if (_typeface_js && _typeface_js.loadFace) _typeface_js.loadFace({"glyphs":{"0":{"ha":1215,"x_min":0,"x_max":1042,"o":"m 0 174 l 174 174 l 174 0 l 868 0 l 868 174 l 1042 174 l 1042 694 l 868 694 l 868 868 l 174 868 l 174 694 l 0 694 l 0 174 m 347 174 l 347 694 l 694 694 l 694 174 l 347 174 "},"1":{"ha":694,"x_min":0,"x_max":521,"o":"m 0 694 l 174 694 l 174 0 l 521 0 l 521 868 l 0 868 l 0 694 "},"2":{"ha":1215,"x_min":0,"x_max":1042,"o":"m 0 0 l 1042 0 l 1042 174 l 347 174 l 347 347 l 1042 347 l 1042 694 l 868 694 l 868 868 l 0 868 l 0 694 l 694 694 l 694 521 l 174 521 l 174 347 l 0 347 l 0 0 "},"3":{"ha":1215,"x_min":0,"x_max":1042,"o":"m 0 0 l 868 0 l 868 174 l 1042 174 l 1042 347 l 868 347 l 868 521 l 1042 521 l 1042 694 l 868 694 l 868 868 l 0 868 l 0 694 l 694 694 l 694 521 l 174 521 l 174 347 l 694 347 l 694 174 l 0 174 l 0 0 "},"4":{"ha":1215,"x_min":0,"x_max":1042,"o":"m 0 347 l 694 347 l 694 0 l 1042 0 l 1042 868 l 694 868 l 694 521 l 347 521 l 347 868 l 0 868 l 0 347 "},"5":{"ha":1215,"x_min":0,"x_max":1042,"o":"m 0 0 l 868 0 l 868 174 l 1042 174 l 1042 347 l 868 347 l 868 521 l 347 521 l 347 694 l 1042 694 l 1042 868 l 0 868 l 0 347 l 694 347 l 694 174 l 0 174 l 0 0 "},"6":{"ha":1215,"x_min":0,"x_max":1042,"o":"m 0 174 l 174 174 l 174 0 l 868 0 l 868 174 l 1042 174 l 1042 347 l 868 347 l 868 521 l 347 521 l 347 694 l 868 694 l 868 868 l 174 868 l 174 694 l 0 694 l 0 174 m 347 174 l 347 347 l 694 347 l 694 174 l 347 174 "},"7":{"ha":1042,"x_min":0,"x_max":868,"o":"m 0 694 l 521 694 l 521 347 l 347 347 l 347 0 l 694 0 l 694 347 l 868 347 l 868 868 l 0 868 l 0 694 "},"8":{"ha":1215,"x_min":0,"x_max":1042,"o":"m 0 174 l 174 174 l 174 0 l 868 0 l 868 174 l 1042 174 l 1042 347 l 868 347 l 868 521 l 1042 521 l 1042 694 l 868 694 l 868 868 l 174 868 l 174 694 l 0 694 l 0 521 l 174 521 l 174 347 l 0 347 l 0 174 m 347 174 l 347 347 l 694 347 l 694 174 l 347 174 m 347 521 l 347 694 l 694 694 l 694 521 l 347 521 "},"9":{"ha":1215,"x_min":0,"x_max":1042,"o":"m 0 521 l 174 521 l 174 347 l 694 347 l 694 174 l 174 174 l 174 0 l 868 0 l 868 174 l 1042 174 l 1042 694 l 868 694 l 868 868 l 174 868 l 174 694 l 0 694 l 0 521 m 347 521 l 347 694 l 694 694 l 694 521 l 347 521 "},"\r":{"ha":694,"x_min":0,"x_max":0,"o":""},"\u0000":{"ha":0,"x_min":0,"x_max":0,"o":""}," ":{"ha":694,"x_min":0,"x_max":0,"o":""},"!":{"ha":694,"x_min":174,"x_max":521,"o":"m 174 0 l 521 0 l 521 174 l 174 174 l 174 0 m 174 347 l 521 347 l 521 868 l 174 868 l 174 347 "},"\"":{"ha":1042,"x_min":0,"x_max":868,"o":"m 0 521 l 347 521 l 347 868 l 0 868 l 0 521 m 521 521 l 868 521 l 868 868 l 521 868 l 521 521 "},"#":{"ha":1042,"x_min":0,"x_max":868,"o":"m 0 174 l 174 174 l 174 0 l 347 0 l 347 174 l 521 174 l 521 0 l 694 0 l 694 174 l 868 174 l 868 347 l 694 347 l 694 521 l 868 521 l 868 694 l 694 694 l 694 868 l 521 868 l 521 694 l 347 694 l 347 868 l 174 868 l 174 694 l 0 694 l 0 521 l 174 521 l 174 347 l 0 347 l 0 174 m 347 347 l 347 521 l 521 521 l 521 347 l 347 347 "},"$":{"ha":1215,"x_min":0,"x_max":1042,"o":"m 0 0 l 347 0 l 347 -174 l 694 -174 l 694 0 l 868 0 l 868 174 l 1042 174 l 1042 347 l 868 347 l 868 521 l 347 521 l 347 694 l 1042 694 l 1042 868 l 694 868 l 694 1042 l 347 1042 l 347 868 l 174 868 l 174 694 l 0 694 l 0 521 l 174 521 l 174 347 l 694 347 l 694 174 l 0 174 l 0 0 "},"%":{"ha":1215,"x_min":0,"x_max":1042,"o":"m 0 0 l 347 0 l 347 174 l 521 174 l 521 347 l 694 347 l 694 521 l 868 521 l 868 694 l 1042 694 l 1042 868 l 694 868 l 694 694 l 521 694 l 521 521 l 347 521 l 347 347 l 174 347 l 174 174 l 0 174 l 0 0 m 0 694 l 347 694 l 347 868 l 0 868 l 0 694 m 694 0 l 1042 0 l 1042 174 l 694 174 l 694 0 "},"&":{"ha":1389,"x_min":0,"x_max":1215,"o":"m 0 174 l 174 174 l 174 0 l 1042 0 l 1042 174 l 1215 174 l 1215 347 l 868 347 l 868 521 l 1042 521 l 1042 694 l 868 694 l 868 868 l 174 868 l 174 694 l 0 694 l 0 521 l 174 521 l 174 347 l 0 347 l 0 174 m 347 174 l 347 347 l 861 347 l 861 174 l 347 174 m 347 521 l 347 694 l 694 694 l 694 521 l 347 521 "},"'":{"ha":521,"x_min":0,"x_max":347,"o":"m 0 521 l 347 521 l 347 868 l 0 868 l 0 521 "},"(":{"ha":694,"x_min":0,"x_max":521,"o":"m 0 0 l 174 0 l 174 -174 l 521 -174 l 521 0 l 347 0 l 347 868 l 521 868 l 521 1042 l 174 1042 l 174 868 l 0 868 l 0 0 "},")":{"ha":694,"x_min":0,"x_max":521,"o":"m 0 0 l 0 -174 l 347 -174 l 347 0 l 521 0 l 521 868 l 347 868 l 347 1042 l 0 1042 l 0 868 l 174 868 l 174 0 l 0 0 "},"*":{"ha":1215,"x_min":0,"x_max":1042,"o":"m 0 347 l 347 347 l 347 174 l 174 174 l 174 0 l 347 0 l 347 174 l 694 174 l 694 0 l 868 0 l 868 174 l 694 174 l 694 347 l 1042 347 l 1042 521 l 694 521 l 694 694 l 868 694 l 868 868 l 694 868 l 694 694 l 347 694 l 347 868 l 174 868 l 174 694 l 347 694 l 347 521 l 0 521 l 0 347 "},"+":{"ha":1215,"x_min":0,"x_max":1042,"o":"m 0 347 l 347 347 l 347 0 l 694 0 l 694 347 l 1042 347 l 1042 521 l 694 521 l 694 868 l 347 868 l 347 521 l 0 521 l 0 347 "},",":{"ha":694,"x_min":0,"x_max":521,"o":"m 0 -174 l 0 -347 l 347 -347 l 347 -174 l 521 -174 l 521 174 l 174 174 l 174 -174 l 0 -174 "},"-":{"ha":868,"x_min":0,"x_max":694,"o":"m 0 347 l 694 347 l 694 521 l 0 521 l 0 347 "},".":{"ha":521,"x_min":0,"x_max":347,"o":"m 0 0 l 347 0 l 347 174 l 0 174 l 0 0 "},"/":{"ha":1215,"x_min":0,"x_max":1042,"o":"m 0 0 l 347 0 l 347 174 l 521 174 l 521 347 l 694 347 l 694 521 l 868 521 l 868 694 l 1042 694 l 1042 868 l 694 868 l 694 694 l 521 694 l 521 521 l 347 521 l 347 347 l 174 347 l 174 174 l 0 174 l 0 0 "},":":{"ha":868,"x_min":174,"x_max":521,"o":"m 174 174 l 521 174 l 521 347 l 174 347 l 174 174 m 174 521 l 521 521 l 521 694 l 174 694 l 174 521 "},";":{"ha":868,"x_min":0,"x_max":521,"o":"m 0 -174 l 0 -347 l 347 -347 l 347 -174 l 521 -174 l 521 174 l 174 174 l 174 -174 l 0 -174 m 174 521 l 521 521 l 521 694 l 174 694 l 174 521 "},"<":{"ha":868,"x_min":0,"x_max":694,"o":"m 0 347 l 174 347 l 174 174 l 347 174 l 347 0 l 694 0 l 694 174 l 521 174 l 521 347 l 347 347 l 347 521 l 521 521 l 521 694 l 694 694 l 694 868 l 347 868 l 347 694 l 174 694 l 174 521 l 0 521 l 0 347 "},"=":{"ha":1042,"x_min":0,"x_max":868,"o":"m 0 174 l 868 174 l 868 347 l 0 347 l 0 174 m 0 521 l 868 521 l 868 694 l 0 694 l 0 521 "},">":{"ha":868,"x_min":0,"x_max":694,"o":"m 0 0 l 347 0 l 347 174 l 521 174 l 521 347 l 694 347 l 694 521 l 521 521 l 521 694 l 347 694 l 347 868 l 0 868 l 0 694 l 174 694 l 174 521 l 347 521 l 347 347 l 174 347 l 174 174 l 0 174 l 0 0 "},"?":{"ha":1042,"x_min":0,"x_max":868,"o":"m 0 694 l 521 694 l 521 521 l 174 521 l 174 347 l 694 347 l 694 521 l 868 521 l 868 694 l 694 694 l 694 868 l 0 868 l 0 694 m 174 0 l 521 0 l 521 174 l 174 174 l 174 0 "},"@":{"ha":1215,"x_min":0,"x_max":1042,"o":"m 0 174 l 174 174 l 174 0 l 868 0 l 868 174 l 347 174 l 347 694 l 694 694 l 694 521 l 521 521 l 521 347 l 1042 347 l 1042 694 l 868 694 l 868 868 l 174 868 l 174 694 l 0 694 l 0 174 "},"A":{"ha":1215,"x_min":0,"x_max":1042,"o":"m 0 0 l 347 0 l 347 347 l 694 347 l 694 0 l 1042 0 l 1042 694 l 868 694 l 868 868 l 174 868 l 174 694 l 0 694 l 0 0 m 347 521 l 347 694 l 694 694 l 694 521 l 347 521 "},"B":{"ha":1215,"x_min":0,"x_max":1042,"o":"m 0 0 l 868 0 l 868 174 l 1042 174 l 1042 347 l 868 347 l 868 521 l 1042 521 l 1042 694 l 868 694 l 868 868 l 0 868 l 0 0 m 347 174 l 347 347 l 694 347 l 694 174 l 347 174 m 347 521 l 347 694 l 694 694 l 694 521 l 347 521 "},"C":{"ha":1215,"x_min":0,"x_max":1042,"o":"m 0 174 l 174 174 l 174 0 l 868 0 l 868 174 l 1042 174 l 1042 347 l 694 347 l 694 174 l 347 174 l 347 694 l 694 694 l 694 521 l 1042 521 l 1042 694 l 868 694 l 868 868 l 174 868 l 174 694 l 0 694 l 0 174 "},"D":{"ha":1215,"x_min":0,"x_max":1042,"o":"m 0 0 l 868 0 l 868 174 l 1042 174 l 1042 694 l 868 694 l 868 868 l 0 868 l 0 0 m 347 174 l 347 694 l 694 694 l 694 174 l 347 174 "},"E":{"ha":1042,"x_min":0,"x_max":868,"o":"m 0 0 l 868 0 l 868 174 l 347 174 l 347 347 l 694 347 l 694 521 l 347 521 l 347 694 l 868 694 l 868 868 l 0 868 l 0 0 "},"F":{"ha":1042,"x_min":0,"x_max":868,"o":"m 0 0 l 347 0 l 347 347 l 694 347 l 694 521 l 347 521 l 347 694 l 868 694 l 868 868 l 0 868 l 0 0 "},"G":{"ha":1215,"x_min":0,"x_max":1042,"o":"m 0 174 l 174 174 l 174 0 l 1042 0 l 1042 521 l 521 521 l 521 347 l 694 347 l 694 174 l 347 174 l 347 694 l 1042 694 l 1042 868 l 174 868 l 174 694 l 0 694 l 0 174 "},"H":{"ha":1215,"x_min":0,"x_max":1042,"o":"m 0 0 l 347 0 l 347 347 l 694 347 l 694 0 l 1042 0 l 1042 868 l 694 868 l 694 521 l 347 521 l 347 868 l 0 868 l 0 0 "},"I":{"ha":521,"x_min":0,"x_max":347,"o":"m 0 0 l 347 0 l 347 868 l 0 868 l 0 0 "},"J":{"ha":1042,"x_min":0,"x_max":868,"o":"m 0 174 l 174 174 l 174 0 l 694 0 l 694 174 l 868 174 l 868 868 l 521 868 l 521 174 l 347 174 l 347 347 l 0 347 l 0 174 "},"K":{"ha":1215,"x_min":0,"x_max":1042,"o":"m 0 0 l 347 0 l 347 347 l 521 347 l 521 174 l 694 174 l 694 0 l 1042 0 l 1042 174 l 868 174 l 868 347 l 694 347 l 694 521 l 868 521 l 868 694 l 1042 694 l 1042 868 l 694 868 l 694 694 l 521 694 l 521 521 l 347 521 l 347 868 l 0 868 l 0 0 "},"L":{"ha":1042,"x_min":0,"x_max":868,"o":"m 0 0 l 868 0 l 868 174 l 347 174 l 347 868 l 0 868 l 0 0 "},"M":{"ha":1389,"x_min":0,"x_max":1215,"o":"m 0 0 l 347 0 l 347 347 l 521 347 l 521 174 l 694 174 l 694 347 l 868 347 l 868 0 l 1215 0 l 1215 868 l 868 868 l 868 694 l 694 694 l 694 521 l 521 521 l 521 694 l 347 694 l 347 868 l 0 868 l 0 0 "},"N":{"ha":1215,"x_min":0,"x_max":1042,"o":"m 0 0 l 347 0 l 347 347 l 521 347 l 521 174 l 694 174 l 694 0 l 1042 0 l 1042 868 l 694 868 l 694 521 l 521 521 l 521 694 l 347 694 l 347 868 l 0 868 l 0 0 "},"O":{"ha":1215,"x_min":0,"x_max":1042,"o":"m 0 174 l 174 174 l 174 0 l 868 0 l 868 174 l 1042 174 l 1042 694 l 868 694 l 868 868 l 174 868 l 174 694 l 0 694 l 0 174 m 347 174 l 347 694 l 694 694 l 694 174 l 347 174 "},"P":{"ha":1215,"x_min":0,"x_max":1042,"o":"m 0 0 l 347 0 l 347 347 l 868 347 l 868 521 l 1042 521 l 1042 694 l 868 694 l 868 868 l 0 868 l 0 0 m 347 521 l 347 694 l 694 694 l 694 521 l 347 521 "},"Q":{"ha":1215,"x_min":0,"x_max":1042,"o":"m 0 174 l 174 174 l 174 0 l 694 0 l 694 -174 l 1042 -174 l 1042 0 l 868 0 l 868 174 l 1042 174 l 1042 694 l 868 694 l 868 868 l 174 868 l 174 694 l 0 694 l 0 174 m 347 174 l 347 694 l 694 694 l 694 174 l 347 174 "},"R":{"ha":1215,"x_min":0,"x_max":1042,"o":"m 0 0 l 347 0 l 347 347 l 521 347 l 521 174 l 694 174 l 694 0 l 1042 0 l 1042 174 l 868 174 l 868 521 l 1042 521 l 1042 694 l 868 694 l 868 868 l 0 868 l 0 0 m 347 521 l 347 694 l 694 694 l 694 521 l 347 521 "},"S":{"ha":1215,"x_min":0,"x_max":1042,"o":"m 0 0 l 868 0 l 868 174 l 1042 174 l 1042 347 l 868 347 l 868 521 l 521 521 l 521 694 l 1042 694 l 1042 868 l 174 868 l 174 694 l 0 694 l 0 521 l 174 521 l 174 347 l 521 347 l 521 174 l 0 174 l 0 0 "},"T":{"ha":1215,"x_min":0,"x_max":1042,"o":"m 0 694 l 347 694 l 347 0 l 694 0 l 694 694 l 1042 694 l 1042 868 l 0 868 l 0 694 "},"U":{"ha":1215,"x_min":0,"x_max":1042,"o":"m 0 174 l 174 174 l 174 0 l 868 0 l 868 174 l 1042 174 l 1042 868 l 694 868 l 694 174 l 347 174 l 347 868 l 0 868 l 0 174 "},"V":{"ha":1215,"x_min":0,"x_max":1042,"o":"m 0 347 l 174 347 l 174 174 l 347 174 l 347 0 l 694 0 l 694 174 l 868 174 l 868 347 l 1042 347 l 1042 868 l 694 868 l 694 347 l 347 347 l 347 868 l 0 868 l 0 347 "},"W":{"ha":1563,"x_min":0,"x_max":1389,"o":"m 0 174 l 174 174 l 174 0 l 1215 0 l 1215 174 l 1389 174 l 1389 868 l 1042 868 l 1042 174 l 868 174 l 868 868 l 521 868 l 521 174 l 347 174 l 347 868 l 0 868 l 0 174 "},"X":{"ha":1215,"x_min":0,"x_max":1042,"o":"m 0 0 l 347 0 l 347 174 l 694 174 l 694 0 l 1042 0 l 1042 174 l 868 174 l 868 347 l 694 347 l 694 521 l 868 521 l 868 694 l 1042 694 l 1042 868 l 694 868 l 694 694 l 347 694 l 347 868 l 0 868 l 0 694 l 174 694 l 174 521 l 347 521 l 347 347 l 174 347 l 174 174 l 0 174 l 0 0 "},"Y":{"ha":1215,"x_min":0,"x_max":1042,"o":"m 0 521 l 174 521 l 174 347 l 347 347 l 347 0 l 694 0 l 694 347 l 868 347 l 868 521 l 1042 521 l 1042 868 l 694 868 l 694 521 l 347 521 l 347 868 l 0 868 l 0 521 "},"Z":{"ha":1215,"x_min":0,"x_max":1042,"o":"m 0 0 l 1042 0 l 1042 174 l 521 174 l 521 347 l 694 347 l 694 521 l 868 521 l 868 694 l 1042 694 l 1042 868 l 0 868 l 0 694 l 521 694 l 521 521 l 347 521 l 347 347 l 174 347 l 174 174 l 0 174 l 0 0 "},"[":{"ha":694,"x_min":0,"x_max":521,"o":"m 0 -174 l 521 -174 l 521 0 l 347 0 l 347 868 l 521 868 l 521 1042 l 0 1042 l 0 -174 "},"\\":{"ha":1215,"x_min":0,"x_max":1042,"o":"m 0 694 l 174 694 l 174 521 l 347 521 l 347 347 l 521 347 l 521 174 l 694 174 l 694 0 l 1042 0 l 1042 174 l 868 174 l 868 347 l 694 347 l 694 521 l 521 521 l 521 694 l 347 694 l 347 868 l 0 868 l 0 694 "},"]":{"ha":694,"x_min":0,"x_max":521,"o":"m 0 0 l 0 -174 l 521 -174 l 521 1042 l 0 1042 l 0 868 l 174 868 l 174 0 l 0 0 "},"^":{"ha":1042,"x_min":-4,"x_max":868,"o":"m -4 521 l 347 521 l 347 694 l 521 694 l 521 521 l 868 521 l 868 694 l 694 694 l 694 868 l 170 868 l 170 694 l -4 694 l -4 521 "},"_":{"ha":1042,"x_min":0,"x_max":868,"o":"m 0 0 l 0 -174 l 868 -174 l 868 0 l 0 0 "},"`":{"ha":694,"x_min":0,"x_max":521,"o":"m 0 694 l 174 694 l 174 521 l 521 521 l 521 694 l 347 694 l 347 868 l 0 868 l 0 694 "},"a":{"ha":1042,"x_min":0,"x_max":868,"o":"m 0 174 l 174 174 l 174 0 l 868 0 l 868 521 l 694 521 l 694 694 l 174 694 l 174 521 l 0 521 l 0 174 m 347 174 l 347 521 l 521 521 l 521 174 l 347 174 "},"b":{"ha":1042,"x_min":0,"x_max":868,"o":"m 0 0 l 694 0 l 694 174 l 868 174 l 868 521 l 694 521 l 694 694 l 347 694 l 347 868 l 0 868 l 0 0 m 347 174 l 347 521 l 521 521 l 521 174 l 347 174 "},"c":{"ha":1042,"x_min":0,"x_max":868,"o":"m 0 174 l 174 174 l 174 0 l 868 0 l 868 174 l 347 174 l 347 521 l 868 521 l 868 694 l 174 694 l 174 521 l 0 521 l 0 174 "},"d":{"ha":1042,"x_min":0,"x_max":868,"o":"m 0 174 l 174 174 l 174 0 l 868 0 l 868 868 l 521 868 l 521 694 l 174 694 l 174 521 l 0 521 l 0 174 m 347 174 l 347 521 l 521 521 l 521 174 l 347 174 "},"e":{"ha":1042,"x_min":0,"x_max":868,"o":"m 0 174 l 174 174 l 174 0 l 868 0 l 868 174 l 694 174 l 694 347 l 868 347 l 868 694 l 174 694 l 174 521 l 0 521 l 0 174 m 347 347 l 347 514 l 521 514 l 521 347 l 347 347 "},"f":{"ha":694,"x_min":0,"x_max":521,"o":"m 0 0 l 347 0 l 347 347 l 521 347 l 521 521 l 347 521 l 347 694 l 521 694 l 521 868 l 174 868 l 174 694 l 0 694 l 0 0 "},"g":{"ha":1042,"x_min":0,"x_max":868,"o":"m 0 174 l 174 174 l 174 0 l 521 0 l 521 -174 l 174 -174 l 174 -347 l 694 -347 l 694 -174 l 868 -174 l 868 521 l 694 521 l 694 694 l 174 694 l 174 521 l 0 521 l 0 174 m 347 174 l 347 521 l 521 521 l 521 174 l 347 174 "},"h":{"ha":1042,"x_min":0,"x_max":868,"o":"m 0 0 l 347 0 l 347 521 l 521 521 l 521 0 l 868 0 l 868 521 l 694 521 l 694 694 l 347 694 l 347 868 l 0 868 l 0 0 "},"i":{"ha":521,"x_min":0,"x_max":347,"o":"m 0 0 l 347 0 l 347 521 l 0 521 l 0 0 m 0 694 l 347 694 l 347 868 l 0 868 l 0 694 "},"j":{"ha":694,"x_min":0,"x_max":521,"o":"m 0 -174 l 0 -347 l 347 -347 l 347 -174 l 521 -174 l 521 521 l 174 521 l 174 -174 l 0 -174 m 174 694 l 521 694 l 521 868 l 174 868 l 174 694 "},"k":{"ha":1042,"x_min":0,"x_max":868,"o":"m 0 0 l 347 0 l 347 347 l 521 347 l 521 0 l 868 0 l 868 347 l 694 347 l 694 521 l 868 521 l 868 694 l 521 694 l 521 521 l 347 521 l 347 868 l 0 868 l 0 0 "},"l":{"ha":521,"x_min":0,"x_max":347,"o":"m 0 0 l 347 0 l 347 868 l 0 868 l 0 0 "},"m":{"ha":1563,"x_min":0,"x_max":1389,"o":"m 0 0 l 347 0 l 347 521 l 521 521 l 521 0 l 868 0 l 868 521 l 1042 521 l 1042 0 l 1389 0 l 1389 521 l 1215 521 l 1215 694 l 0 694 l 0 0 "},"n":{"ha":1042,"x_min":0,"x_max":868,"o":"m 0 0 l 347 0 l 347 521 l 521 521 l 521 0 l 868 0 l 868 521 l 694 521 l 694 694 l 0 694 l 0 0 "},"o":{"ha":1042,"x_min":0,"x_max":868,"o":"m 0 174 l 174 174 l 174 0 l 694 0 l 694 174 l 868 174 l 868 521 l 694 521 l 694 694 l 174 694 l 174 521 l 0 521 l 0 174 m 347 174 l 347 521 l 521 521 l 521 174 l 347 174 "},"p":{"ha":1042,"x_min":0,"x_max":868,"o":"m 0 -347 l 347 -347 l 347 0 l 694 0 l 694 174 l 868 174 l 868 521 l 694 521 l 694 694 l 0 694 l 0 -347 m 347 174 l 347 521 l 521 521 l 521 174 l 347 174 "},"q":{"ha":1042,"x_min":0,"x_max":868,"o":"m 0 174 l 174 174 l 174 0 l 521 0 l 521 -347 l 868 -347 l 868 694 l 174 694 l 174 521 l 0 521 l 0 174 m 347 174 l 347 521 l 521 521 l 521 174 l 347 174 "},"r":{"ha":868,"x_min":0,"x_max":694,"o":"m 0 0 l 347 0 l 347 347 l 521 347 l 521 521 l 694 521 l 694 694 l 521 694 l 521 521 l 347 521 l 347 694 l 0 694 l 0 0 "},"s":{"ha":1042,"x_min":0,"x_max":868,"o":"m 0 0 l 694 0 l 694 174 l 868 174 l 868 347 l 521 347 l 521 521 l 868 521 l 868 694 l 174 694 l 174 521 l 0 521 l 0 347 l 347 347 l 347 174 l 0 174 l 0 0 "},"t":{"ha":868,"x_min":0,"x_max":694,"o":"m 0 521 l 174 521 l 174 0 l 521 0 l 521 521 l 694 521 l 694 694 l 521 694 l 521 868 l 174 868 l 174 694 l 0 694 l 0 521 "},"u":{"ha":1042,"x_min":0,"x_max":868,"o":"m 0 174 l 174 174 l 174 0 l 868 0 l 868 694 l 521 694 l 521 174 l 347 174 l 347 694 l 0 694 l 0 174 "},"v":{"ha":1042,"x_min":0,"x_max":868,"o":"m 0 174 l 174 174 l 174 0 l 694 0 l 694 174 l 868 174 l 868 694 l 521 694 l 521 174 l 347 174 l 347 694 l 0 694 l 0 174 "},"w":{"ha":1563,"x_min":0,"x_max":1389,"o":"m 0 174 l 174 174 l 174 0 l 1215 0 l 1215 174 l 1389 174 l 1389 694 l 1042 694 l 1042 174 l 868 174 l 868 694 l 521 694 l 521 174 l 347 174 l 347 694 l 0 694 l 0 174 "},"x":{"ha":1042,"x_min":0,"x_max":868,"o":"m 0 0 l 347 0 l 347 174 l 521 174 l 521 0 l 868 0 l 868 174 l 694 174 l 694 521 l 868 521 l 868 694 l 521 694 l 521 521 l 347 521 l 347 694 l 0 694 l 0 521 l 174 521 l 174 174 l 0 174 l 0 0 "},"y":{"ha":1042,"x_min":0,"x_max":868,"o":"m 0 174 l 174 174 l 174 0 l 521 0 l 521 -174 l 174 -174 l 174 -347 l 694 -347 l 694 -174 l 868 -174 l 868 694 l 521 694 l 521 174 l 347 174 l 347 694 l 0 694 l 0 174 "},"z":{"ha":1042,"x_min":0,"x_max":868,"o":"m 0 0 l 868 0 l 868 174 l 521 174 l 521 347 l 694 347 l 694 521 l 868 521 l 868 694 l 0 694 l 0 521 l 347 521 l 347 347 l 174 347 l 174 174 l 0 174 l 0 0 "},"{":{"ha":868,"x_min":0,"x_max":694,"o":"m 0 347 l 174 347 l 174 0 l 347 0 l 347 -174 l 694 -174 l 694 0 l 521 0 l 521 347 l 347 347 l 347 521 l 521 521 l 521 868 l 694 868 l 694 1042 l 347 1042 l 347 868 l 174 868 l 174 521 l 0 521 l 0 347 "},"|":{"ha":868,"x_min":174,"x_max":521,"o":"m 174 -174 l 521 -174 l 521 1042 l 174 1042 l 174 -174 "},"}":{"ha":868,"x_min":0,"x_max":694,"o":"m 0 0 l 0 -174 l 347 -174 l 347 0 l 521 0 l 521 347 l 694 347 l 694 521 l 521 521 l 521 868 l 347 868 l 347 1042 l 0 1042 l 0 868 l 174 868 l 174 521 l 347 521 l 347 347 l 174 347 l 174 0 l 0 0 "},"~":{"ha":1215,"x_min":0,"x_max":1042,"o":"m 0 347 l 347 347 l 347 521 l 521 521 l 521 694 l 174 694 l 174 521 l 0 521 l 0 347 m 521 347 l 868 347 l 868 521 l 1042 521 l 1042 694 l 694 694 l 694 521 l 521 521 l 521 347 "}," ":{"ha":694,"x_min":0,"x_max":0,"o":""},"¡":{"ha":694,"x_min":174,"x_max":521,"o":"m 174 0 l 521 0 l 521 521 l 174 521 l 174 0 m 174 694 l 521 694 l 521 868 l 174 868 l 174 694 "},"¢":{"ha":1042,"x_min":0,"x_max":868,"o":"m 0 174 l 174 174 l 174 0 l 347 0 l 347 -174 l 694 -174 l 694 0 l 868 0 l 868 174 l 347 174 l 347 521 l 868 521 l 868 694 l 694 694 l 694 868 l 347 868 l 347 694 l 174 694 l 174 521 l 0 521 l 0 174 "},"£":{"ha":1389,"x_min":0,"x_max":1215,"o":"m 0 0 l 1042 0 l 1042 174 l 1215 174 l 1215 347 l 868 347 l 868 174 l 521 174 l 521 347 l 694 347 l 694 521 l 521 521 l 521 868 l 694 868 l 694 694 l 1042 694 l 1042 868 l 868 868 l 868 1042 l 347 1042 l 347 868 l 174 868 l 174 521 l 0 521 l 0 347 l 174 347 l 174 174 l 0 174 l 0 0 "},"¤":{"ha":1389,"x_min":0,"x_max":1215,"o":"m 0 347 l 174 347 l 174 174 l 347 174 l 347 0 l 1042 0 l 1042 174 l 1215 174 l 1215 347 l 868 347 l 868 174 l 521 174 l 521 347 l 694 347 l 694 521 l 521 521 l 521 694 l 868 694 l 868 521 l 1215 521 l 1215 694 l 1042 694 l 1042 868 l 347 868 l 347 694 l 174 694 l 174 521 l 0 521 l 0 347 "},"¥":{"ha":1215,"x_min":0,"x_max":1042,"o":"m 0 174 l 347 174 l 347 0 l 694 0 l 694 174 l 1042 174 l 1042 347 l 868 347 l 868 521 l 1042 521 l 1042 868 l 694 868 l 694 521 l 347 521 l 347 868 l 0 868 l 0 521 l 174 521 l 174 347 l 0 347 l 0 174 "},"¦":{"ha":521,"x_min":0,"x_max":347,"o":"m 0 0 l 347 0 l 347 347 l 0 347 l 0 0 m 0 521 l 347 521 l 347 868 l 0 868 l 0 521 "},"§":{"ha":1042,"x_min":0,"x_max":868,"o":"m 0 347 l 174 347 l 174 174 l 521 174 l 521 0 l 174 0 l 174 -174 l 694 -174 l 694 0 l 868 0 l 868 174 l 694 174 l 694 347 l 868 347 l 868 521 l 694 521 l 694 694 l 347 694 l 347 868 l 694 868 l 694 1042 l 174 1042 l 174 868 l 0 868 l 0 694 l 174 694 l 174 521 l 0 521 l 0 347 m 347 347 l 347 521 l 521 521 l 521 347 l 347 347 "},"¨":{"ha":1042,"x_min":0,"x_max":869,"o":"m 0 521 l 349 521 l 349 868 l 0 868 l 0 521 m 521 521 l 869 521 l 869 868 l 521 868 l 521 521 "},"©":{"ha":1042,"x_min":0,"x_max":868,"o":"m 0 174 l 174 174 l 174 0 l 694 0 l 694 174 l 868 174 l 868 694 l 694 694 l 694 868 l 174 868 l 174 694 l 0 694 l 0 174 m 174 180 l 174 688 l 694 688 l 694 521 l 347 521 l 347 347 l 694 347 l 694 180 l 174 180 "},"ª":{"ha":1042,"x_min":0,"x_max":868,"o":"m 0 0 l 868 0 l 868 174 l 0 174 l 0 0 m 0 521 l 174 521 l 174 347 l 868 347 l 868 694 l 694 694 l 694 868 l 174 868 l 174 694 l 0 694 l 0 521 m 347 521 l 347 694 l 521 694 l 521 521 l 347 521 "},"«":{"ha":1389,"x_min":0,"x_max":1215,"o":"m 0 347 l 174 347 l 174 174 l 521 174 l 521 347 l 347 347 l 347 521 l 521 521 l 521 694 l 174 694 l 174 521 l 0 521 l 0 347 m 694 347 l 868 347 l 868 174 l 1215 174 l 1215 347 l 1042 347 l 1042 521 l 1215 521 l 1215 694 l 868 694 l 868 521 l 694 521 l 694 347 "},"¬":{"ha":1215,"x_min":0,"x_max":1042,"o":"m 0 347 l 694 347 l 694 0 l 1042 0 l 1042 521 l 0 521 l 0 347 "},"­":{"ha":868,"x_min":0,"x_max":694,"o":"m 0 347 l 694 347 l 694 521 l 0 521 l 0 347 "},"®":{"ha":1042,"x_min":0,"x_max":868,"o":"m 0 174 l 174 174 l 174 0 l 694 0 l 694 174 l 868 174 l 868 694 l 694 694 l 694 868 l 174 868 l 174 694 l 0 694 l 0 174 m 174 180 l 174 688 l 694 688 l 694 521 l 347 521 l 347 180 l 174 180 "},"¯":{"ha":694,"x_min":0,"x_max":521,"o":"m 0 694 l 521 694 l 521 868 l 0 868 l 0 694 "},"°":{"ha":1042,"x_min":0,"x_max":868,"o":"m 0 521 l 174 521 l 174 347 l 694 347 l 694 521 l 868 521 l 868 694 l 694 694 l 694 868 l 174 868 l 174 694 l 0 694 l 0 521 m 347 521 l 347 694 l 521 694 l 521 521 l 347 521 "},"±":{"ha":1215,"x_min":0,"x_max":1042,"o":"m 0 0 l 0 -174 l 1042 -174 l 1042 0 l 694 0 l 694 347 l 1042 347 l 1042 521 l 694 521 l 694 868 l 347 868 l 347 521 l 0 521 l 0 347 l 347 347 l 347 0 l 0 0 "},"²":{"ha":868,"x_min":0,"x_max":694,"o":"m 0 174 l 694 174 l 694 347 l 521 347 l 521 521 l 694 521 l 694 694 l 521 694 l 521 868 l 0 868 l 0 694 l 347 694 l 347 521 l 174 521 l 174 347 l 0 347 l 0 174 "},"³":{"ha":868,"x_min":0,"x_max":694,"o":"m 0 174 l 521 174 l 521 347 l 694 347 l 694 694 l 521 694 l 521 868 l 0 868 l 0 694 l 174 694 l 174 521 l 347 521 l 347 347 l 0 347 l 0 174 "},"´":{"ha":694,"x_min":0,"x_max":521,"o":"m 0 521 l 347 521 l 347 694 l 521 694 l 521 868 l 174 868 l 174 694 l 0 694 l 0 521 "},"µ":{"ha":1215,"x_min":0,"x_max":1038,"o":"m 0 -347 l 343 -347 l 343 0 l 521 0 l 521 174 l 694 174 l 694 0 l 1038 0 l 1038 174 l 864 174 l 864 694 l 521 694 l 521 174 l 343 174 l 343 694 l 0 694 l 0 -347 "},"¶":{"ha":1389,"x_min":0,"x_max":1215,"o":"m 0 521 l 174 521 l 174 347 l 347 347 l 347 0 l 694 0 l 694 347 l 868 347 l 868 0 l 1215 0 l 1215 868 l 174 868 l 174 694 l 0 694 l 0 521 m 694 521 l 694 694 l 868 694 l 868 521 l 694 521 "},"·":{"ha":521,"x_min":0,"x_max":347,"o":"m 0 347 l 347 347 l 347 694 l 0 694 l 0 347 "},"¸":{"ha":694,"x_min":0,"x_max":521,"o":"m 0 -174 l 0 -347 l 347 -347 l 347 -174 l 521 -174 l 521 174 l 174 174 l 174 -174 l 0 -174 "},"¹":{"ha":521,"x_min":0,"x_max":347,"o":"m 0 174 l 347 174 l 347 868 l 0 868 l 0 174 "},"º":{"ha":1042,"x_min":0,"x_max":868,"o":"m 0 0 l 868 0 l 868 174 l 0 174 l 0 0 m 0 521 l 174 521 l 174 347 l 694 347 l 694 521 l 868 521 l 868 694 l 694 694 l 694 868 l 174 868 l 174 694 l 0 694 l 0 521 m 347 521 l 347 694 l 521 694 l 521 521 l 347 521 "},"»":{"ha":1389,"x_min":0,"x_max":1215,"o":"m 0 174 l 347 174 l 347 347 l 521 347 l 521 521 l 347 521 l 347 694 l 0 694 l 0 521 l 174 521 l 174 347 l 0 347 l 0 174 m 694 174 l 1042 174 l 1042 347 l 1215 347 l 1215 521 l 1042 521 l 1042 694 l 694 694 l 694 521 l 868 521 l 868 347 l 694 347 l 694 174 "},"¼":{"ha":1563,"x_min":0,"x_max":1389,"o":"m 0 0 l 347 0 l 347 174 l 521 174 l 521 347 l 694 347 l 694 174 l 1042 174 l 1042 0 l 1389 0 l 1389 521 l 1042 521 l 1042 347 l 868 347 l 868 694 l 1042 694 l 1042 868 l 694 868 l 694 694 l 521 694 l 521 521 l 347 521 l 347 868 l 0 868 l 0 347 l 174 347 l 174 174 l 0 174 l 0 0 "},"½":{"ha":1563,"x_min":0,"x_max":1389,"o":"m 0 0 l 347 0 l 347 174 l 521 174 l 521 347 l 694 347 l 694 521 l 1042 521 l 1042 347 l 868 347 l 868 174 l 694 174 l 694 0 l 1389 0 l 1389 174 l 1215 174 l 1215 347 l 1389 347 l 1389 521 l 1215 521 l 1215 694 l 1042 694 l 1042 868 l 694 868 l 694 694 l 521 694 l 521 521 l 347 521 l 347 868 l 0 868 l 0 347 l 174 347 l 174 174 l 0 174 l 0 0 "},"¾":{"ha":1736,"x_min":0,"x_max":1563,"o":"m 0 174 l 174 174 l 174 0 l 521 0 l 521 174 l 694 174 l 694 347 l 868 347 l 868 174 l 1215 174 l 1215 0 l 1563 0 l 1563 521 l 1215 521 l 1215 347 l 1042 347 l 1042 694 l 1215 694 l 1215 868 l 868 868 l 868 694 l 521 694 l 521 868 l 0 868 l 0 694 l 174 694 l 174 521 l 347 521 l 347 347 l 0 347 l 0 174 "},"¿":{"ha":1042,"x_min":0,"x_max":868,"o":"m 0 174 l 174 174 l 174 0 l 868 0 l 868 174 l 347 174 l 347 347 l 694 347 l 694 521 l 174 521 l 174 347 l 0 347 l 0 174 m 347 694 l 694 694 l 694 868 l 347 868 l 347 694 "},"À":{"ha":1215,"x_min":0,"x_max":1042,"o":"m 0 0 l 347 0 l 347 347 l 694 347 l 694 0 l 1042 0 l 1042 694 l 868 694 l 868 868 l 174 868 l 174 694 l 0 694 l 0 0 m 174 1215 l 347 1215 l 347 1042 l 694 1042 l 694 1215 l 521 1215 l 521 1389 l 174 1389 l 174 1215 m 347 521 l 347 694 l 694 694 l 694 521 l 347 521 "},"Á":{"ha":1215,"x_min":0,"x_max":1042,"o":"m 0 0 l 347 0 l 347 347 l 694 347 l 694 0 l 1042 0 l 1042 694 l 868 694 l 868 868 l 174 868 l 174 694 l 0 694 l 0 0 m 347 521 l 347 694 l 694 694 l 694 521 l 347 521 m 347 1042 l 694 1042 l 694 1215 l 868 1215 l 868 1389 l 521 1389 l 521 1215 l 347 1215 l 347 1042 "},"Â":{"ha":1215,"x_min":0,"x_max":1042,"o":"m 0 0 l 347 0 l 347 347 l 694 347 l 694 0 l 1042 0 l 1042 694 l 868 694 l 868 868 l 174 868 l 174 694 l 0 694 l 0 0 m 0 1042 l 347 1042 l 347 1215 l 694 1215 l 694 1042 l 1042 1042 l 1042 1215 l 868 1215 l 868 1389 l 174 1389 l 174 1215 l 0 1215 l 0 1042 m 347 521 l 347 694 l 694 694 l 694 521 l 347 521 "},"Ã":{"ha":1215,"x_min":0,"x_max":1042,"o":"m 0 0 l 347 0 l 347 347 l 694 347 l 694 0 l 1042 0 l 1042 694 l 868 694 l 868 868 l 174 868 l 174 694 l 0 694 l 0 0 m 0 1042 l 347 1042 l 347 1215 l 521 1215 l 521 1389 l 174 1389 l 174 1215 l 0 1215 l 0 1042 m 347 521 l 347 694 l 694 694 l 694 521 l 347 521 m 521 1042 l 868 1042 l 868 1215 l 1042 1215 l 1042 1389 l 694 1389 l 694 1215 l 521 1215 l 521 1042 "},"Ä":{"ha":1215,"x_min":-1,"x_max":1042,"o":"m -1 1042 l 347 1042 l 347 1389 l -1 1389 l -1 1042 m 0 0 l 347 0 l 347 347 l 694 347 l 694 0 l 1042 0 l 1042 694 l 868 694 l 868 868 l 174 868 l 174 694 l 0 694 l 0 0 m 347 521 l 347 694 l 694 694 l 694 521 l 347 521 m 693 1042 l 1042 1042 l 1042 1389 l 693 1389 l 693 1042 "},"Å":{"ha":1215,"x_min":0,"x_max":1042,"o":"m 0 0 l 347 0 l 347 347 l 694 347 l 694 0 l 1042 0 l 1042 694 l 868 694 l 868 1042 l 1042 1042 l 1042 1215 l 868 1215 l 868 1389 l 174 1389 l 174 1215 l 0 1215 l 0 1042 l 174 1042 l 174 694 l 0 694 l 0 0 m 347 521 l 347 694 l 694 694 l 694 521 l 347 521 m 347 1042 l 347 1215 l 694 1215 l 694 1042 l 347 1042 "},"Æ":{"ha":1910,"x_min":0,"x_max":1736,"o":"m 0 0 l 347 0 l 347 347 l 694 347 l 694 0 l 1736 0 l 1736 174 l 1042 174 l 1042 347 l 1563 347 l 1563 521 l 1042 521 l 1042 694 l 1736 694 l 1736 868 l 174 868 l 174 694 l 0 694 l 0 0 m 347 521 l 347 694 l 694 694 l 694 521 l 347 521 "},"Ç":{"ha":1215,"x_min":0,"x_max":1042,"o":"m 0 174 l 174 174 l 174 0 l 347 0 l 347 -174 l 174 -174 l 174 -347 l 521 -347 l 521 -174 l 694 -174 l 694 0 l 868 0 l 868 174 l 1042 174 l 1042 347 l 694 347 l 694 174 l 347 174 l 347 694 l 694 694 l 694 521 l 1042 521 l 1042 694 l 868 694 l 868 868 l 174 868 l 174 694 l 0 694 l 0 174 "},"È":{"ha":1042,"x_min":0,"x_max":868,"o":"m 0 0 l 868 0 l 868 174 l 347 174 l 347 347 l 694 347 l 694 521 l 347 521 l 347 694 l 868 694 l 868 868 l 0 868 l 0 0 m 174 1215 l 347 1215 l 347 1042 l 694 1042 l 694 1215 l 521 1215 l 521 1389 l 174 1389 l 174 1215 "},"É":{"ha":1042,"x_min":0,"x_max":868,"o":"m 0 0 l 868 0 l 868 174 l 347 174 l 347 347 l 694 347 l 694 521 l 347 521 l 347 694 l 868 694 l 868 868 l 0 868 l 0 0 m 347 1042 l 694 1042 l 694 1215 l 868 1215 l 868 1389 l 521 1389 l 521 1215 l 347 1215 l 347 1042 "},"Ê":{"ha":1042,"x_min":0,"x_max":868,"o":"m 0 0 l 868 0 l 868 174 l 347 174 l 347 347 l 694 347 l 694 521 l 347 521 l 347 694 l 868 694 l 868 868 l 0 868 l 0 0 m 0 1042 l 347 1042 l 347 1215 l 521 1215 l 521 1042 l 868 1042 l 868 1215 l 694 1215 l 694 1389 l 174 1389 l 174 1215 l 0 1215 l 0 1042 "},"Ë":{"ha":1042,"x_min":-1,"x_max":868,"o":"m -1 1042 l 347 1042 l 347 1389 l -1 1389 l -1 1042 m 0 0 l 868 0 l 868 174 l 347 174 l 347 347 l 694 347 l 694 521 l 347 521 l 347 694 l 868 694 l 868 868 l 0 868 l 0 0 m 519 1042 l 868 1042 l 868 1389 l 519 1389 l 519 1042 "},"Ì":{"ha":521,"x_min":-174,"x_max":347,"o":"m -174 1215 l 0 1215 l 0 1042 l 347 1042 l 347 1215 l 174 1215 l 174 1389 l -174 1389 l -174 1215 m 0 0 l 347 0 l 347 868 l 0 868 l 0 0 "},"Í":{"ha":521,"x_min":0,"x_max":521,"o":"m 0 0 l 347 0 l 347 868 l 0 868 l 0 0 m 0 1042 l 347 1042 l 347 1215 l 521 1215 l 521 1389 l 174 1389 l 174 1215 l 0 1215 l 0 1042 "},"Î":{"ha":521,"x_min":-347,"x_max":694,"o":"m -347 1042 l 0 1042 l 0 1215 l 347 1215 l 347 1042 l 694 1042 l 694 1215 l 521 1215 l 521 1389 l -174 1389 l -174 1215 l -347 1215 l -347 1042 m 0 0 l 347 0 l 347 868 l 0 868 l 0 0 "},"Ï":{"ha":521,"x_min":-349,"x_max":696,"o":"m -349 1042 l 0 1042 l 0 1389 l -349 1389 l -349 1042 m 0 0 l 347 0 l 347 868 l 0 868 l 0 0 m 347 1042 l 696 1042 l 696 1389 l 347 1389 l 347 1042 "},"Ð":{"ha":1389,"x_min":0,"x_max":1215,"o":"m 0 347 l 174 347 l 174 0 l 1042 0 l 1042 174 l 1215 174 l 1215 694 l 1042 694 l 1042 868 l 174 868 l 174 521 l 0 521 l 0 347 m 521 174 l 521 347 l 694 347 l 694 521 l 521 521 l 521 694 l 868 694 l 868 174 l 521 174 "},"Ñ":{"ha":1215,"x_min":0,"x_max":1042,"o":"m 0 0 l 347 0 l 347 347 l 521 347 l 521 174 l 694 174 l 694 0 l 1042 0 l 1042 868 l 694 868 l 694 521 l 521 521 l 521 694 l 347 694 l 347 868 l 0 868 l 0 0 m 0 1042 l 347 1042 l 347 1215 l 521 1215 l 521 1389 l 174 1389 l 174 1215 l 0 1215 l 0 1042 m 521 1042 l 868 1042 l 868 1215 l 1042 1215 l 1042 1389 l 694 1389 l 694 1215 l 521 1215 l 521 1042 "},"Ò":{"ha":1215,"x_min":0,"x_max":1042,"o":"m 0 174 l 174 174 l 174 0 l 868 0 l 868 174 l 1042 174 l 1042 694 l 868 694 l 868 868 l 174 868 l 174 694 l 0 694 l 0 174 m 174 1215 l 347 1215 l 347 1042 l 694 1042 l 694 1215 l 521 1215 l 521 1389 l 174 1389 l 174 1215 m 347 174 l 347 694 l 694 694 l 694 174 l 347 174 "},"Ó":{"ha":1215,"x_min":0,"x_max":1042,"o":"m 0 174 l 174 174 l 174 0 l 868 0 l 868 174 l 1042 174 l 1042 694 l 868 694 l 868 868 l 174 868 l 174 694 l 0 694 l 0 174 m 347 174 l 347 694 l 694 694 l 694 174 l 347 174 m 347 1042 l 694 1042 l 694 1215 l 868 1215 l 868 1389 l 521 1389 l 521 1215 l 347 1215 l 347 1042 "},"Ô":{"ha":1215,"x_min":0,"x_max":1042,"o":"m 0 174 l 174 174 l 174 0 l 868 0 l 868 174 l 1042 174 l 1042 694 l 868 694 l 868 868 l 174 868 l 174 694 l 0 694 l 0 174 m 0 1042 l 347 1042 l 347 1215 l 694 1215 l 694 1042 l 1042 1042 l 1042 1215 l 868 1215 l 868 1389 l 174 1389 l 174 1215 l 0 1215 l 0 1042 m 347 174 l 347 694 l 694 694 l 694 174 l 347 174 "},"Õ":{"ha":1215,"x_min":0,"x_max":1042,"o":"m 0 174 l 174 174 l 174 0 l 868 0 l 868 174 l 1042 174 l 1042 694 l 868 694 l 868 868 l 174 868 l 174 694 l 0 694 l 0 174 m 0 1042 l 347 1042 l 347 1215 l 521 1215 l 521 1389 l 174 1389 l 174 1215 l 0 1215 l 0 1042 m 347 174 l 347 694 l 694 694 l 694 174 l 347 174 m 521 1042 l 868 1042 l 868 1215 l 1042 1215 l 1042 1389 l 694 1389 l 694 1215 l 521 1215 l 521 1042 "},"Ö":{"ha":1215,"x_min":-1,"x_max":1042,"o":"m -1 1042 l 347 1042 l 347 1389 l -1 1389 l -1 1042 m 0 174 l 174 174 l 174 0 l 868 0 l 868 174 l 1042 174 l 1042 694 l 868 694 l 868 868 l 174 868 l 174 694 l 0 694 l 0 174 m 347 174 l 347 694 l 694 694 l 694 174 l 347 174 m 693 1042 l 1042 1042 l 1042 1389 l 693 1389 l 693 1042 "},"Ø":{"ha":1389,"x_min":0,"x_max":1213,"o":"m 0 174 l 174 174 l 174 0 l 1039 0 l 1039 174 l 1213 174 l 1213 694 l 1039 694 l 1039 868 l 174 868 l 174 694 l 0 694 l 0 174 m 347 347 l 347 688 l 694 688 l 694 521 l 521 521 l 521 347 l 347 347 m 528 174 l 528 347 l 701 347 l 701 521 l 861 521 l 861 174 l 528 174 "},"Ù":{"ha":1215,"x_min":0,"x_max":1042,"o":"m 0 174 l 174 174 l 174 0 l 868 0 l 868 174 l 1042 174 l 1042 868 l 694 868 l 694 174 l 347 174 l 347 868 l 0 868 l 0 174 m 174 1215 l 347 1215 l 347 1042 l 694 1042 l 694 1215 l 521 1215 l 521 1389 l 174 1389 l 174 1215 "},"Ú":{"ha":1215,"x_min":0,"x_max":1042,"o":"m 0 174 l 174 174 l 174 0 l 868 0 l 868 174 l 1042 174 l 1042 868 l 694 868 l 694 174 l 347 174 l 347 868 l 0 868 l 0 174 m 347 1042 l 694 1042 l 694 1215 l 868 1215 l 868 1389 l 521 1389 l 521 1215 l 347 1215 l 347 1042 "},"Û":{"ha":1215,"x_min":0,"x_max":1042,"o":"m 0 174 l 174 174 l 174 0 l 868 0 l 868 174 l 1042 174 l 1042 868 l 694 868 l 694 174 l 347 174 l 347 868 l 0 868 l 0 174 m 0 1042 l 347 1042 l 347 1215 l 694 1215 l 694 1042 l 1042 1042 l 1042 1215 l 868 1215 l 868 1389 l 174 1389 l 174 1215 l 0 1215 l 0 1042 "},"Ü":{"ha":1215,"x_min":-1,"x_max":1042,"o":"m -1 1042 l 347 1042 l 347 1389 l -1 1389 l -1 1042 m 0 174 l 174 174 l 174 0 l 868 0 l 868 174 l 1042 174 l 1042 868 l 694 868 l 694 174 l 347 174 l 347 868 l 0 868 l 0 174 m 693 1042 l 1042 1042 l 1042 1389 l 693 1389 l 693 1042 "},"Ý":{"ha":1215,"x_min":0,"x_max":1042,"o":"m 0 521 l 174 521 l 174 347 l 347 347 l 347 0 l 694 0 l 694 347 l 868 347 l 868 521 l 1042 521 l 1042 868 l 694 868 l 694 521 l 347 521 l 347 868 l 0 868 l 0 521 m 347 1042 l 694 1042 l 694 1215 l 868 1215 l 868 1389 l 521 1389 l 521 1215 l 347 1215 l 347 1042 "},"Þ":{"ha":1042,"x_min":0,"x_max":868,"o":"m 0 0 l 347 0 l 347 174 l 694 174 l 694 347 l 868 347 l 868 521 l 694 521 l 694 694 l 347 694 l 347 868 l 0 868 l 0 0 m 347 347 l 347 521 l 521 521 l 521 347 l 347 347 "},"ß":{"ha":1215,"x_min":0,"x_max":1039,"o":"m 0 0 l 347 0 l 347 694 l 694 694 l 694 521 l 521 521 l 521 347 l 694 347 l 694 174 l 521 174 l 521 0 l 865 0 l 865 174 l 1039 174 l 1039 347 l 865 347 l 865 521 l 1039 521 l 1039 694 l 865 694 l 865 868 l 171 868 l 171 694 l 0 694 l 0 0 "},"à":{"ha":1042,"x_min":0,"x_max":868,"o":"m 0 174 l 174 174 l 174 0 l 868 0 l 868 521 l 694 521 l 694 694 l 174 694 l 174 521 l 0 521 l 0 174 m 174 1042 l 347 1042 l 347 868 l 694 868 l 694 1042 l 521 1042 l 521 1215 l 174 1215 l 174 1042 m 347 174 l 347 521 l 521 521 l 521 174 l 347 174 "},"á":{"ha":1042,"x_min":0,"x_max":868,"o":"m 0 174 l 174 174 l 174 0 l 868 0 l 868 521 l 694 521 l 694 694 l 174 694 l 174 521 l 0 521 l 0 174 m 347 174 l 347 521 l 521 521 l 521 174 l 347 174 m 347 868 l 694 868 l 694 1042 l 868 1042 l 868 1215 l 521 1215 l 521 1042 l 347 1042 l 347 868 "},"â":{"ha":1042,"x_min":0,"x_max":868,"o":"m 0 174 l 174 174 l 174 0 l 868 0 l 868 521 l 694 521 l 694 694 l 174 694 l 174 521 l 0 521 l 0 174 m 0 868 l 347 868 l 347 1042 l 521 1042 l 521 868 l 868 868 l 868 1042 l 694 1042 l 694 1215 l 174 1215 l 174 1042 l 0 1042 l 0 868 m 347 174 l 347 521 l 521 521 l 521 174 l 347 174 "},"ã":{"ha":1042,"x_min":0,"x_max":1042,"o":"m 0 174 l 174 174 l 174 0 l 868 0 l 868 521 l 694 521 l 694 694 l 174 694 l 174 521 l 0 521 l 0 174 m 0 868 l 347 868 l 347 1042 l 521 1042 l 521 1215 l 174 1215 l 174 1042 l 0 1042 l 0 868 m 347 174 l 347 521 l 521 521 l 521 174 l 347 174 m 521 868 l 868 868 l 868 1042 l 1042 1042 l 1042 1215 l 694 1215 l 694 1042 l 521 1042 l 521 868 "},"ä":{"ha":1042,"x_min":-1,"x_max":868,"o":"m -1 868 l 347 868 l 347 1215 l -1 1215 l -1 868 m 0 174 l 174 174 l 174 0 l 868 0 l 868 521 l 694 521 l 694 694 l 174 694 l 174 521 l 0 521 l 0 174 m 347 174 l 347 521 l 521 521 l 521 174 l 347 174 m 519 868 l 868 868 l 868 1215 l 519 1215 l 519 868 "},"å":{"ha":1042,"x_min":0,"x_max":868,"o":"m 0 174 l 174 174 l 174 0 l 868 0 l 868 521 l 694 521 l 694 868 l 868 868 l 868 1042 l 694 1042 l 694 1215 l 174 1215 l 174 1042 l 0 1042 l 0 868 l 174 868 l 174 521 l 0 521 l 0 174 m 347 174 l 347 521 l 521 521 l 521 174 l 347 174 m 347 868 l 347 1042 l 521 1042 l 521 868 l 347 868 "},"æ":{"ha":1736,"x_min":0,"x_max":1563,"o":"m 0 174 l 174 174 l 174 0 l 1563 0 l 1563 174 l 1389 174 l 1389 347 l 1563 347 l 1563 694 l 868 694 l 868 521 l 694 521 l 694 694 l 174 694 l 174 521 l 0 521 l 0 174 m 347 174 l 347 521 l 521 521 l 521 174 l 347 174 m 1042 354 l 1042 514 l 1215 514 l 1215 354 l 1042 354 "},"ç":{"ha":1042,"x_min":0,"x_max":868,"o":"m 0 174 l 174 174 l 174 0 l 347 0 l 347 -174 l 172 -174 l 172 -347 l 521 -347 l 521 -174 l 694 -174 l 694 0 l 868 0 l 868 174 l 347 174 l 347 521 l 868 521 l 868 694 l 174 694 l 174 521 l 0 521 l 0 174 "},"è":{"ha":1042,"x_min":0,"x_max":868,"o":"m 0 174 l 174 174 l 174 0 l 868 0 l 868 174 l 694 174 l 694 347 l 868 347 l 868 694 l 174 694 l 174 521 l 0 521 l 0 174 m 174 1042 l 347 1042 l 347 868 l 694 868 l 694 1042 l 521 1042 l 521 1215 l 174 1215 l 174 1042 m 347 354 l 347 514 l 521 514 l 521 354 l 347 354 "},"é":{"ha":1042,"x_min":0,"x_max":868,"o":"m 0 174 l 174 174 l 174 0 l 868 0 l 868 174 l 694 174 l 694 347 l 868 347 l 868 694 l 174 694 l 174 521 l 0 521 l 0 174 m 174 868 l 521 868 l 521 1042 l 694 1042 l 694 1215 l 347 1215 l 347 1042 l 174 1042 l 174 868 m 347 354 l 347 514 l 521 514 l 521 354 l 347 354 "},"ê":{"ha":1042,"x_min":0,"x_max":868,"o":"m 0 174 l 174 174 l 174 0 l 868 0 l 868 174 l 694 174 l 694 347 l 868 347 l 868 694 l 174 694 l 174 521 l 0 521 l 0 174 m 0 868 l 349 868 l 349 1042 l 519 1042 l 519 868 l 868 868 l 868 1042 l 694 1042 l 694 1215 l 174 1215 l 174 1042 l 0 1042 l 0 868 m 347 354 l 347 514 l 521 514 l 521 354 l 347 354 "},"ë":{"ha":1042,"x_min":-1,"x_max":868,"o":"m -1 868 l 347 868 l 347 1215 l -1 1215 l -1 868 m 0 174 l 174 174 l 174 0 l 868 0 l 868 174 l 694 174 l 694 347 l 868 347 l 868 694 l 174 694 l 174 521 l 0 521 l 0 174 m 347 354 l 347 514 l 521 514 l 521 354 l 347 354 m 519 868 l 868 868 l 868 1215 l 519 1215 l 519 868 "},"ì":{"ha":521,"x_min":-174,"x_max":347,"o":"m -174 1042 l 0 1042 l 0 868 l 347 868 l 347 1042 l 174 1042 l 174 1215 l -174 1215 l -174 1042 m 0 0 l 347 0 l 347 694 l 0 694 l 0 0 "},"í":{"ha":521,"x_min":0,"x_max":521,"o":"m 0 0 l 347 0 l 347 694 l 0 694 l 0 0 m 0 868 l 347 868 l 347 1042 l 521 1042 l 521 1215 l 174 1215 l 174 1042 l 0 1042 l 0 868 "},"î":{"ha":521,"x_min":-349,"x_max":694,"o":"m -349 868 l 0 868 l 0 1042 l 346 1042 l 346 868 l 694 868 l 694 1042 l 521 1042 l 521 1215 l -175 1215 l -175 1042 l -349 1042 l -349 868 m 0 0 l 347 0 l 347 694 l 0 694 l 0 0 "},"ï":{"ha":521,"x_min":-349,"x_max":696,"o":"m -349 868 l 0 868 l 0 1215 l -349 1215 l -349 868 m 0 0 l 347 0 l 347 694 l 0 694 l 0 0 m 347 868 l 696 868 l 696 1215 l 347 1215 l 347 868 "},"ð":{"ha":1042,"x_min":0,"x_max":868,"o":"m 0 174 l 174 174 l 174 0 l 694 0 l 694 174 l 868 174 l 868 694 l 694 694 l 694 868 l 868 868 l 868 1042 l 694 1042 l 694 868 l 521 868 l 521 1042 l 174 1042 l 174 868 l 347 868 l 347 694 l 174 694 l 174 521 l 0 521 l 0 174 m 347 174 l 347 521 l 521 521 l 521 174 l 347 174 "},"ñ":{"ha":1042,"x_min":0,"x_max":1042,"o":"m 0 0 l 347 0 l 347 521 l 521 521 l 521 0 l 868 0 l 868 521 l 694 521 l 694 694 l 0 694 l 0 0 m 0 868 l 347 868 l 347 1042 l 521 1042 l 521 1215 l 174 1215 l 174 1042 l 0 1042 l 0 868 m 521 868 l 868 868 l 868 1042 l 1042 1042 l 1042 1215 l 694 1215 l 694 1042 l 521 1042 l 521 868 "},"ò":{"ha":1042,"x_min":0,"x_max":868,"o":"m 0 174 l 174 174 l 174 0 l 694 0 l 694 174 l 868 174 l 868 521 l 694 521 l 694 694 l 174 694 l 174 521 l 0 521 l 0 174 m 174 1042 l 347 1042 l 347 868 l 694 868 l 694 1042 l 521 1042 l 521 1215 l 174 1215 l 174 1042 m 347 174 l 347 521 l 521 521 l 521 174 l 347 174 "},"ó":{"ha":1042,"x_min":0,"x_max":868,"o":"m 0 174 l 174 174 l 174 0 l 694 0 l 694 174 l 868 174 l 868 521 l 694 521 l 694 694 l 174 694 l 174 521 l 0 521 l 0 174 m 174 868 l 521 868 l 521 1042 l 694 1042 l 694 1215 l 347 1215 l 347 1042 l 174 1042 l 174 868 m 347 174 l 347 521 l 521 521 l 521 174 l 347 174 "},"ô":{"ha":1042,"x_min":0,"x_max":868,"o":"m 0 174 l 174 174 l 174 0 l 694 0 l 694 174 l 868 174 l 868 521 l 694 521 l 694 694 l 174 694 l 174 521 l 0 521 l 0 174 m 0 868 l 349 868 l 349 1042 l 519 1042 l 519 868 l 868 868 l 868 1042 l 694 1042 l 694 1215 l 174 1215 l 174 1042 l 0 1042 l 0 868 m 347 174 l 347 521 l 521 521 l 521 174 l 347 174 "},"õ":{"ha":1042,"x_min":0,"x_max":1042,"o":"m 0 174 l 174 174 l 174 0 l 694 0 l 694 174 l 868 174 l 868 521 l 694 521 l 694 694 l 174 694 l 174 521 l 0 521 l 0 174 m 0 868 l 347 868 l 347 1042 l 521 1042 l 521 1215 l 174 1215 l 174 1042 l 0 1042 l 0 868 m 347 174 l 347 521 l 521 521 l 521 174 l 347 174 m 521 868 l 868 868 l 868 1042 l 1042 1042 l 1042 1215 l 694 1215 l 694 1042 l 521 1042 l 521 868 "},"ö":{"ha":1042,"x_min":-1,"x_max":868,"o":"m -1 868 l 347 868 l 347 1215 l -1 1215 l -1 868 m 0 174 l 174 174 l 174 0 l 694 0 l 694 174 l 868 174 l 868 521 l 694 521 l 694 694 l 174 694 l 174 521 l 0 521 l 0 174 m 347 174 l 347 521 l 521 521 l 521 174 l 347 174 m 519 868 l 868 868 l 868 1215 l 519 1215 l 519 868 "},"÷":{"ha":1215,"x_min":0,"x_max":1042,"o":"m 0 347 l 1042 347 l 1042 521 l 0 521 l 0 347 m 347 0 l 694 0 l 694 174 l 347 174 l 347 0 m 347 694 l 694 694 l 694 868 l 347 868 l 347 694 "},"ø":{"ha":1215,"x_min":0,"x_max":1042,"o":"m 0 174 l 174 174 l 174 0 l 694 0 l 694 174 l 1042 174 l 1042 521 l 868 521 l 868 694 l 347 694 l 347 521 l 0 521 l 0 174 m 347 347 l 347 514 l 521 514 l 521 347 l 694 347 l 694 180 l 521 180 l 521 347 l 347 347 "},"ù":{"ha":1042,"x_min":0,"x_max":868,"o":"m 0 174 l 174 174 l 174 0 l 868 0 l 868 694 l 521 694 l 521 174 l 347 174 l 347 694 l 0 694 l 0 174 m 174 1042 l 347 1042 l 347 868 l 694 868 l 694 1042 l 521 1042 l 521 1215 l 174 1215 l 174 1042 "},"ú":{"ha":1042,"x_min":0,"x_max":868,"o":"m 0 174 l 174 174 l 174 0 l 868 0 l 868 694 l 521 694 l 521 174 l 347 174 l 347 694 l 0 694 l 0 174 m 174 868 l 521 868 l 521 1042 l 694 1042 l 694 1215 l 347 1215 l 347 1042 l 174 1042 l 174 868 "},"û":{"ha":1042,"x_min":0,"x_max":868,"o":"m 0 174 l 174 174 l 174 0 l 868 0 l 868 694 l 521 694 l 521 174 l 347 174 l 347 694 l 0 694 l 0 174 m 0 868 l 349 868 l 349 1042 l 519 1042 l 519 868 l 868 868 l 868 1042 l 694 1042 l 694 1215 l 174 1215 l 174 1042 l 0 1042 l 0 868 "},"ü":{"ha":1042,"x_min":-1,"x_max":868,"o":"m -1 868 l 347 868 l 347 1215 l -1 1215 l -1 868 m 0 174 l 174 174 l 174 0 l 868 0 l 868 694 l 521 694 l 521 174 l 347 174 l 347 694 l 0 694 l 0 174 m 519 868 l 868 868 l 868 1215 l 519 1215 l 519 868 "},"þ":{"ha":1042,"x_min":0,"x_max":868,"o":"m 0 -347 l 347 -347 l 347 0 l 694 0 l 694 174 l 868 174 l 868 347 l 694 347 l 694 521 l 347 521 l 347 868 l 0 868 l 0 -347 m 347 174 l 347 347 l 521 347 l 521 174 l 347 174 "},"ÿ":{"ha":1042,"x_min":-1,"x_max":868,"o":"m -1 868 l 347 868 l 347 1215 l -1 1215 l -1 868 m 0 174 l 174 174 l 174 0 l 521 0 l 521 -174 l 174 -174 l 174 -347 l 694 -347 l 694 -174 l 868 -174 l 868 694 l 521 694 l 521 174 l 347 174 l 347 694 l 0 694 l 0 174 m 519 868 l 868 868 l 868 1215 l 519 1215 l 519 868 "},"Ā":{"ha":1215,"x_min":0,"x_max":1042,"o":"m 0 0 l 347 0 l 347 347 l 694 347 l 694 0 l 1042 0 l 1042 694 l 868 694 l 868 868 l 174 868 l 174 694 l 0 694 l 0 0 m 174 1042 l 868 1042 l 868 1215 l 174 1215 l 174 1042 m 347 521 l 347 694 l 694 694 l 694 521 l 347 521 "},"ā":{"ha":1042,"x_min":0,"x_max":868,"o":"m 0 174 l 174 174 l 174 0 l 868 0 l 868 521 l 694 521 l 694 694 l 174 694 l 174 521 l 0 521 l 0 174 m 0 868 l 868 868 l 868 1042 l 0 1042 l 0 868 m 347 174 l 347 521 l 521 521 l 521 174 l 347 174 "},"Ă":{"ha":1215,"x_min":0,"x_max":1042,"o":"m 0 0 l 347 0 l 347 347 l 694 347 l 694 0 l 1042 0 l 1042 694 l 868 694 l 868 868 l 174 868 l 174 694 l 0 694 l 0 0 m 0 1215 l 174 1215 l 174 1042 l 868 1042 l 868 1215 l 1042 1215 l 1042 1389 l 694 1389 l 694 1215 l 347 1215 l 347 1389 l 0 1389 l 0 1215 m 347 521 l 347 694 l 694 694 l 694 521 l 347 521 "},"ă":{"ha":1042,"x_min":0,"x_max":868,"o":"m 0 174 l 174 174 l 174 0 l 868 0 l 868 521 l 694 521 l 694 694 l 174 694 l 174 521 l 0 521 l 0 174 m 0 1042 l 174 1042 l 174 868 l 694 868 l 694 1042 l 868 1042 l 868 1215 l 519 1215 l 519 1042 l 349 1042 l 349 1215 l 0 1215 l 0 1042 m 347 174 l 347 521 l 521 521 l 521 174 l 347 174 "},"Ą":{"ha":1215,"x_min":0,"x_max":1042,"o":"m 0 0 l 347 0 l 347 347 l 694 347 l 694 0 l 521 0 l 521 -174 l 694 -174 l 694 -347 l 1042 -347 l 1042 -174 l 868 -174 l 868 0 l 1042 0 l 1042 694 l 868 694 l 868 868 l 174 868 l 174 694 l 0 694 l 0 0 m 347 521 l 347 694 l 694 694 l 694 521 l 347 521 "},"ą":{"ha":1042,"x_min":0,"x_max":868,"o":"m 0 174 l 174 174 l 174 0 l 347 0 l 347 -174 l 521 -174 l 521 -347 l 868 -347 l 868 -174 l 694 -174 l 694 0 l 868 0 l 868 521 l 694 521 l 694 694 l 174 694 l 174 521 l 0 521 l 0 174 m 347 174 l 347 521 l 521 521 l 521 174 l 347 174 "},"Ć":{"ha":1215,"x_min":0,"x_max":1042,"o":"m 0 174 l 174 174 l 174 0 l 868 0 l 868 174 l 1042 174 l 1042 347 l 694 347 l 694 174 l 347 174 l 347 694 l 694 694 l 694 521 l 1042 521 l 1042 694 l 868 694 l 868 868 l 174 868 l 174 694 l 0 694 l 0 174 m 347 1042 l 694 1042 l 694 1215 l 868 1215 l 868 1389 l 521 1389 l 521 1215 l 347 1215 l 347 1042 "},"ć":{"ha":1042,"x_min":0,"x_max":868,"o":"m 0 174 l 174 174 l 174 0 l 868 0 l 868 174 l 347 174 l 347 521 l 868 521 l 868 694 l 174 694 l 174 521 l 0 521 l 0 174 m 347 868 l 694 868 l 694 1042 l 868 1042 l 868 1215 l 521 1215 l 521 1042 l 347 1042 l 347 868 "},"Ĉ":{"ha":1215,"x_min":0,"x_max":1042,"o":"m 0 174 l 174 174 l 174 0 l 868 0 l 868 174 l 1042 174 l 1042 347 l 694 347 l 694 174 l 347 174 l 347 694 l 694 694 l 694 521 l 1042 521 l 1042 694 l 868 694 l 868 868 l 174 868 l 174 694 l 0 694 l 0 174 m 0 1042 l 347 1042 l 347 1215 l 694 1215 l 694 1042 l 1042 1042 l 1042 1215 l 868 1215 l 868 1389 l 174 1389 l 174 1215 l 0 1215 l 0 1042 "},"ĉ":{"ha":1042,"x_min":0,"x_max":868,"o":"m 0 174 l 174 174 l 174 0 l 868 0 l 868 174 l 347 174 l 347 521 l 868 521 l 868 694 l 174 694 l 174 521 l 0 521 l 0 174 m 0 868 l 349 868 l 349 1042 l 519 1042 l 519 868 l 868 868 l 868 1042 l 694 1042 l 694 1215 l 174 1215 l 174 1042 l 0 1042 l 0 868 "},"Ċ":{"ha":1215,"x_min":0,"x_max":1042,"o":"m 0 174 l 174 174 l 174 0 l 868 0 l 868 174 l 1042 174 l 1042 347 l 694 347 l 694 174 l 347 174 l 347 694 l 694 694 l 694 521 l 1042 521 l 1042 694 l 868 694 l 868 868 l 174 868 l 174 694 l 0 694 l 0 174 m 347 1042 l 694 1042 l 694 1215 l 347 1215 l 347 1042 "},"ċ":{"ha":1042,"x_min":0,"x_max":868,"o":"m 0 174 l 174 174 l 174 0 l 868 0 l 868 174 l 347 174 l 347 521 l 868 521 l 868 694 l 174 694 l 174 521 l 0 521 l 0 174 m 347 868 l 694 868 l 694 1042 l 347 1042 l 347 868 "},"Č":{"ha":1215,"x_min":0,"x_max":1042,"o":"m 0 174 l 174 174 l 174 0 l 868 0 l 868 174 l 1042 174 l 1042 347 l 694 347 l 694 174 l 347 174 l 347 694 l 694 694 l 694 521 l 1042 521 l 1042 694 l 868 694 l 868 868 l 174 868 l 174 694 l 0 694 l 0 174 m 0 1215 l 174 1215 l 174 1042 l 868 1042 l 868 1215 l 1042 1215 l 1042 1389 l 694 1389 l 694 1215 l 347 1215 l 347 1389 l 0 1389 l 0 1215 "},"č":{"ha":1042,"x_min":0,"x_max":868,"o":"m 0 174 l 174 174 l 174 0 l 868 0 l 868 174 l 347 174 l 347 521 l 868 521 l 868 694 l 174 694 l 174 521 l 0 521 l 0 174 m 0 1042 l 174 1042 l 174 868 l 694 868 l 694 1042 l 868 1042 l 868 1215 l 519 1215 l 519 1042 l 349 1042 l 349 1215 l 0 1215 l 0 1042 "},"Ď":{"ha":1215,"x_min":0,"x_max":1042,"o":"m 0 0 l 868 0 l 868 174 l 1042 174 l 1042 694 l 868 694 l 868 868 l 0 868 l 0 0 m 0 1215 l 174 1215 l 174 1042 l 868 1042 l 868 1215 l 1042 1215 l 1042 1389 l 694 1389 l 694 1215 l 347 1215 l 347 1389 l 0 1389 l 0 1215 m 347 174 l 347 694 l 694 694 l 694 174 l 347 174 "},"ď":{"ha":1563,"x_min":0,"x_max":1389,"o":"m 0 174 l 174 174 l 174 0 l 868 0 l 868 868 l 521 868 l 521 694 l 174 694 l 174 521 l 0 521 l 0 174 m 347 174 l 347 521 l 521 521 l 521 174 l 347 174 m 1042 521 l 1389 521 l 1389 868 l 1042 868 l 1042 521 "},"Đ":{"ha":1389,"x_min":0,"x_max":1215,"o":"m 0 347 l 174 347 l 174 0 l 1042 0 l 1042 174 l 1215 174 l 1215 694 l 1042 694 l 1042 868 l 174 868 l 174 521 l 0 521 l 0 347 m 521 174 l 521 347 l 694 347 l 694 521 l 521 521 l 521 694 l 868 694 l 868 174 l 521 174 "},"đ":{"ha":1042,"x_min":0,"x_max":868,"o":"m 0 174 l 174 174 l 174 0 l 694 0 l 694 174 l 868 174 l 868 694 l 694 694 l 694 868 l 868 868 l 868 1042 l 694 1042 l 694 868 l 521 868 l 521 1042 l 174 1042 l 174 868 l 347 868 l 347 694 l 174 694 l 174 521 l 0 521 l 0 174 m 347 174 l 347 521 l 521 521 l 521 174 l 347 174 "},"Ē":{"ha":1042,"x_min":0,"x_max":868,"o":"m 0 0 l 868 0 l 868 174 l 347 174 l 347 347 l 694 347 l 694 521 l 347 521 l 347 694 l 868 694 l 868 868 l 0 868 l 0 0 m 0 1042 l 694 1042 l 694 1215 l 0 1215 l 0 1042 "},"ē":{"ha":1042,"x_min":0,"x_max":868,"o":"m 0 174 l 174 174 l 174 0 l 868 0 l 868 174 l 694 174 l 694 347 l 868 347 l 868 694 l 174 694 l 174 521 l 0 521 l 0 174 m 0 868 l 868 868 l 868 1042 l 0 1042 l 0 868 m 347 347 l 347 514 l 521 514 l 521 347 l 347 347 "},"Ĕ":{"ha":1042,"x_min":0,"x_max":868,"o":"m 0 0 l 868 0 l 868 174 l 347 174 l 347 347 l 694 347 l 694 521 l 347 521 l 347 694 l 868 694 l 868 868 l 0 868 l 0 0 m 0 1042 l 347 1042 l 347 1215 l 521 1215 l 521 1042 l 868 1042 l 868 1215 l 694 1215 l 694 1389 l 174 1389 l 174 1215 l 0 1215 l 0 1042 "},"ĕ":{"ha":1042,"x_min":0,"x_max":868,"o":"m 0 174 l 174 174 l 174 0 l 868 0 l 868 174 l 694 174 l 694 347 l 868 347 l 868 694 l 174 694 l 174 521 l 0 521 l 0 174 m 0 868 l 349 868 l 349 1042 l 519 1042 l 519 868 l 868 868 l 868 1042 l 694 1042 l 694 1215 l 174 1215 l 174 1042 l 0 1042 l 0 868 m 347 347 l 347 514 l 521 514 l 521 347 l 347 347 "},"Ė":{"ha":1042,"x_min":0,"x_max":868,"o":"m 0 0 l 868 0 l 868 174 l 347 174 l 347 347 l 694 347 l 694 521 l 347 521 l 347 694 l 868 694 l 868 868 l 0 868 l 0 0 m 347 1042 l 694 1042 l 694 1215 l 347 1215 l 347 1042 "},"ė":{"ha":1042,"x_min":0,"x_max":868,"o":"m 0 174 l 174 174 l 174 0 l 868 0 l 868 174 l 694 174 l 694 347 l 868 347 l 868 694 l 174 694 l 174 521 l 0 521 l 0 174 m 347 347 l 347 514 l 521 514 l 521 347 l 347 347 m 347 868 l 694 868 l 694 1042 l 347 1042 l 347 868 "},"Ę":{"ha":1042,"x_min":0,"x_max":868,"o":"m 0 0 l 347 0 l 347 -174 l 521 -174 l 521 -347 l 868 -347 l 868 -174 l 694 -174 l 694 0 l 868 0 l 868 174 l 347 174 l 347 347 l 694 347 l 694 521 l 347 521 l 347 694 l 868 694 l 868 868 l 0 868 l 0 0 "},"ę":{"ha":1042,"x_min":0,"x_max":868,"o":"m 0 174 l 174 174 l 174 0 l 347 0 l 347 -174 l 521 -174 l 521 -347 l 868 -347 l 868 -174 l 694 -174 l 694 0 l 868 0 l 868 174 l 694 174 l 694 347 l 868 347 l 868 694 l 174 694 l 174 521 l 0 521 l 0 174 m 347 347 l 347 514 l 521 514 l 521 347 l 347 347 "},"Ě":{"ha":1042,"x_min":0,"x_max":1042,"o":"m 0 0 l 868 0 l 868 174 l 347 174 l 347 347 l 694 347 l 694 521 l 347 521 l 347 694 l 868 694 l 868 868 l 0 868 l 0 0 m 0 1215 l 174 1215 l 174 1042 l 868 1042 l 868 1215 l 1042 1215 l 1042 1389 l 694 1389 l 694 1215 l 347 1215 l 347 1389 l 0 1389 l 0 1215 "},"ě":{"ha":1042,"x_min":0,"x_max":868,"o":"m 0 174 l 174 174 l 174 0 l 868 0 l 868 174 l 694 174 l 694 347 l 868 347 l 868 694 l 174 694 l 174 521 l 0 521 l 0 174 m 0 1042 l 174 1042 l 174 868 l 694 868 l 694 1042 l 868 1042 l 868 1215 l 519 1215 l 519 1042 l 349 1042 l 349 1215 l 0 1215 l 0 1042 m 347 347 l 347 514 l 521 514 l 521 347 l 347 347 "},"Ĝ":{"ha":1215,"x_min":0,"x_max":1042,"o":"m 0 174 l 174 174 l 174 0 l 1042 0 l 1042 521 l 521 521 l 521 347 l 694 347 l 694 174 l 347 174 l 347 694 l 1042 694 l 1042 868 l 174 868 l 174 694 l 0 694 l 0 174 m 0 1042 l 347 1042 l 347 1215 l 694 1215 l 694 1042 l 1042 1042 l 1042 1215 l 868 1215 l 868 1389 l 174 1389 l 174 1215 l 0 1215 l 0 1042 "},"ĝ":{"ha":1042,"x_min":0,"x_max":868,"o":"m 0 174 l 174 174 l 174 0 l 521 0 l 521 -174 l 174 -174 l 174 -347 l 694 -347 l 694 -174 l 868 -174 l 868 521 l 694 521 l 694 694 l 174 694 l 174 521 l 0 521 l 0 174 m 0 868 l 349 868 l 349 1042 l 519 1042 l 519 868 l 868 868 l 868 1042 l 694 1042 l 694 1215 l 174 1215 l 174 1042 l 0 1042 l 0 868 m 347 174 l 347 521 l 521 521 l 521 174 l 347 174 "},"Ğ":{"ha":1215,"x_min":0,"x_max":1042,"o":"m 0 174 l 174 174 l 174 0 l 1042 0 l 1042 521 l 521 521 l 521 347 l 694 347 l 694 174 l 347 174 l 347 694 l 1042 694 l 1042 868 l 174 868 l 174 694 l 0 694 l 0 174 m 0 1215 l 174 1215 l 174 1042 l 868 1042 l 868 1215 l 1042 1215 l 1042 1389 l 694 1389 l 694 1215 l 347 1215 l 347 1389 l 0 1389 l 0 1215 "},"ğ":{"ha":1042,"x_min":0,"x_max":868,"o":"m 0 174 l 174 174 l 174 0 l 521 0 l 521 -174 l 174 -174 l 174 -347 l 694 -347 l 694 -174 l 868 -174 l 868 521 l 694 521 l 694 694 l 174 694 l 174 521 l 0 521 l 0 174 m 0 1042 l 174 1042 l 174 868 l 694 868 l 694 1042 l 868 1042 l 868 1215 l 519 1215 l 519 1042 l 349 1042 l 349 1215 l 0 1215 l 0 1042 m 347 174 l 347 521 l 521 521 l 521 174 l 347 174 "},"Ġ":{"ha":1215,"x_min":0,"x_max":1042,"o":"m 0 174 l 174 174 l 174 0 l 1042 0 l 1042 521 l 521 521 l 521 347 l 694 347 l 694 174 l 347 174 l 347 694 l 1042 694 l 1042 868 l 174 868 l 174 694 l 0 694 l 0 174 m 347 1042 l 694 1042 l 694 1215 l 347 1215 l 347 1042 "},"ġ":{"ha":1042,"x_min":0,"x_max":868,"o":"m 0 174 l 174 174 l 174 0 l 521 0 l 521 -174 l 174 -174 l 174 -347 l 694 -347 l 694 -174 l 868 -174 l 868 521 l 694 521 l 694 694 l 174 694 l 174 521 l 0 521 l 0 174 m 347 174 l 347 521 l 521 521 l 521 174 l 347 174 m 347 868 l 694 868 l 694 1042 l 347 1042 l 347 868 "},"Ģ":{"ha":1215,"x_min":0,"x_max":1042,"o":"m 0 174 l 174 174 l 174 0 l 347 0 l 347 -174 l 174 -174 l 174 -347 l 521 -347 l 521 -174 l 694 -174 l 694 0 l 1042 0 l 1042 521 l 521 521 l 521 347 l 694 347 l 694 174 l 347 174 l 347 694 l 1042 694 l 1042 868 l 174 868 l 174 694 l 0 694 l 0 174 "},"ģ":{"ha":1042,"x_min":0,"x_max":868,"o":"m 0 174 l 174 174 l 174 0 l 521 0 l 521 -174 l 174 -174 l 174 -347 l 694 -347 l 694 -174 l 868 -174 l 868 521 l 694 521 l 694 694 l 174 694 l 174 521 l 0 521 l 0 174 m 347 174 l 347 521 l 521 521 l 521 174 l 347 174 m 347 868 l 694 868 l 694 1042 l 868 1042 l 868 1215 l 521 1215 l 521 1042 l 347 1042 l 347 868 "},"Ĥ":{"ha":1215,"x_min":0,"x_max":1042,"o":"m 0 0 l 347 0 l 347 347 l 694 347 l 694 0 l 1042 0 l 1042 868 l 694 868 l 694 521 l 347 521 l 347 868 l 0 868 l 0 0 m 0 1042 l 347 1042 l 347 1215 l 694 1215 l 694 1042 l 1042 1042 l 1042 1215 l 868 1215 l 868 1389 l 174 1389 l 174 1215 l 0 1215 l 0 1042 "},"ĥ":{"ha":1042,"x_min":0,"x_max":868,"o":"m 0 0 l 347 0 l 347 521 l 521 521 l 521 0 l 868 0 l 868 521 l 694 521 l 694 694 l 347 694 l 347 868 l 0 868 l 0 0 m 0 1042 l 349 1042 l 349 1215 l 519 1215 l 519 1042 l 868 1042 l 868 1215 l 694 1215 l 694 1389 l 174 1389 l 174 1215 l 0 1215 l 0 1042 "},"Ħ":{"ha":1563,"x_min":0,"x_max":1389,"o":"m 0 694 l 174 694 l 174 0 l 521 0 l 521 347 l 868 347 l 868 0 l 1215 0 l 1215 694 l 1389 694 l 1389 868 l 0 868 l 0 694 m 521 521 l 521 694 l 868 694 l 868 521 l 521 521 "},"ħ":{"ha":1215,"x_min":0,"x_max":1042,"o":"m 0 694 l 174 694 l 174 0 l 521 0 l 521 347 l 694 347 l 694 0 l 1042 0 l 1042 347 l 868 347 l 868 521 l 521 521 l 521 694 l 868 694 l 868 868 l 0 868 l 0 694 "},"Ĩ":{"ha":521,"x_min":-347,"x_max":694,"o":"m -347 1042 l 0 1042 l 0 1215 l 174 1215 l 174 1389 l -174 1389 l -174 1215 l -347 1215 l -347 1042 m 0 0 l 347 0 l 347 868 l 0 868 l 0 0 m 174 1042 l 521 1042 l 521 1215 l 694 1215 l 694 1389 l 347 1389 l 347 1215 l 174 1215 l 174 1042 "},"ĩ":{"ha":521,"x_min":-347,"x_max":694,"o":"m -347 694 l 0 694 l 0 868 l 174 868 l 174 1042 l -174 1042 l -174 868 l -347 868 l -347 694 m 0 0 l 347 0 l 347 521 l 0 521 l 0 0 m 174 694 l 521 694 l 521 868 l 694 868 l 694 1042 l 347 1042 l 347 868 l 174 868 l 174 694 "},"Ī":{"ha":521,"x_min":-174,"x_max":521,"o":"m -174 1042 l 521 1042 l 521 1215 l -174 1215 l -174 1042 m 0 0 l 347 0 l 347 868 l 0 868 l 0 0 "},"ī":{"ha":521,"x_min":-174,"x_max":521,"o":"m -174 694 l 521 694 l 521 868 l -174 868 l -174 694 m 0 0 l 347 0 l 347 521 l 0 521 l 0 0 "},"Ĭ":{"ha":521,"x_min":-347,"x_max":694,"o":"m -347 1215 l -174 1215 l -174 1042 l 521 1042 l 521 1215 l 694 1215 l 694 1389 l 347 1389 l 347 1215 l 0 1215 l 0 1389 l -347 1389 l -347 1215 m 0 0 l 347 0 l 347 868 l 0 868 l 0 0 "},"ĭ":{"ha":521,"x_min":-349,"x_max":697,"o":"m -349 868 l -175 868 l -175 694 l 524 694 l 524 868 l 697 868 l 697 1042 l 349 1042 l 349 868 l 0 868 l 0 1042 l -349 1042 l -349 868 m 0 0 l 347 0 l 347 521 l 0 521 l 0 0 "},"Į":{"ha":694,"x_min":0,"x_max":521,"o":"m 0 0 l 0 -174 l 174 -174 l 174 -347 l 521 -347 l 521 -174 l 347 -174 l 347 0 l 521 0 l 521 868 l 174 868 l 174 0 l 0 0 "},"į":{"ha":694,"x_min":0,"x_max":521,"o":"m 0 0 l 0 -174 l 174 -174 l 174 -347 l 521 -347 l 521 -174 l 347 -174 l 347 0 l 521 0 l 521 521 l 174 521 l 174 0 l 0 0 m 174 694 l 521 694 l 521 868 l 174 868 l 174 694 "},"İ":{"ha":521,"x_min":0,"x_max":347,"o":"m 0 0 l 347 0 l 347 868 l 0 868 l 0 0 m 0 1042 l 347 1042 l 347 1215 l 0 1215 l 0 1042 "},"ı":{"ha":521,"x_min":0,"x_max":347,"o":"m 0 0 l 347 0 l 347 521 l 0 521 l 0 0 "},"Ĳ":{"ha":1215,"x_min":0,"x_max":1042,"o":"m 0 0 l 347 0 l 347 868 l 0 868 l 0 0 m 521 0 l 868 0 l 868 174 l 1042 174 l 1042 868 l 694 868 l 694 174 l 521 174 l 521 0 "},"ĳ":{"ha":1042,"x_min":0,"x_max":868,"o":"m 0 0 l 347 0 l 347 521 l 0 521 l 0 0 m 0 694 l 347 694 l 347 868 l 0 868 l 0 694 m 347 -174 l 347 -347 l 694 -347 l 694 -174 l 868 -174 l 868 521 l 521 521 l 521 -174 l 347 -174 m 521 694 l 868 694 l 868 868 l 521 868 l 521 694 "},"Ĵ":{"ha":868,"x_min":0,"x_max":1042,"o":"m 0 0 l 521 0 l 521 174 l 694 174 l 694 868 l 347 868 l 347 174 l 0 174 l 0 0 m 0 1042 l 349 1042 l 349 1215 l 693 1215 l 693 1042 l 1042 1042 l 1042 1215 l 868 1215 l 868 1389 l 174 1389 l 174 1215 l 0 1215 l 0 1042 "},"ĵ":{"ha":694,"x_min":-175,"x_max":867,"o":"m -175 694 l 174 694 l 174 868 l 518 868 l 518 694 l 867 694 l 867 868 l 693 868 l 693 1042 l -1 1042 l -1 868 l -175 868 l -175 694 m 0 -174 l 0 -347 l 347 -347 l 347 -174 l 521 -174 l 521 521 l 174 521 l 174 -174 l 0 -174 "},"Ķ":{"ha":1215,"x_min":0,"x_max":1042,"o":"m 0 0 l 340 0 l 340 -174 l 174 -174 l 174 -347 l 521 -347 l 521 -174 l 701 -174 l 701 0 l 1042 0 l 1042 174 l 868 174 l 868 347 l 694 347 l 694 521 l 868 521 l 868 694 l 1042 694 l 1042 868 l 694 868 l 694 694 l 521 694 l 521 521 l 347 521 l 347 868 l 0 868 l 0 0 m 347 0 l 347 347 l 521 347 l 521 174 l 694 174 l 694 0 l 347 0 "},"ķ":{"ha":1042,"x_min":0,"x_max":868,"o":"m 0 0 l 340 0 l 340 -174 l 174 -174 l 174 -347 l 521 -347 l 521 -174 l 694 -174 l 694 0 l 868 0 l 868 347 l 694 347 l 694 521 l 868 521 l 868 694 l 521 694 l 521 521 l 347 521 l 347 868 l 0 868 l 0 0 m 347 0 l 347 347 l 521 347 l 521 0 l 347 0 "},"ĸ":{"ha":1042,"x_min":0,"x_max":868,"o":"m 0 0 l 347 0 l 347 174 l 521 174 l 521 0 l 868 0 l 868 347 l 694 347 l 694 521 l 868 521 l 868 694 l 521 694 l 521 521 l 347 521 l 347 694 l 0 694 l 0 0 "},"Ĺ":{"ha":1042,"x_min":0,"x_max":868,"o":"m 0 0 l 868 0 l 868 174 l 347 174 l 347 868 l 0 868 l 0 0 m 0 1042 l 347 1042 l 347 1215 l 521 1215 l 521 1389 l 174 1389 l 174 1215 l 0 1215 l 0 1042 "},"ĺ":{"ha":521,"x_min":0,"x_max":521,"o":"m 0 0 l 347 0 l 347 868 l 0 868 l 0 0 m 0 1042 l 347 1042 l 347 1215 l 521 1215 l 521 1389 l 174 1389 l 174 1215 l 0 1215 l 0 1042 "},"Ļ":{"ha":1042,"x_min":0,"x_max":868,"o":"m 0 0 l 347 0 l 347 -174 l 174 -174 l 174 -347 l 521 -347 l 521 -174 l 694 -174 l 694 0 l 868 0 l 868 174 l 347 174 l 347 868 l 0 868 l 0 0 "},"ļ":{"ha":521,"x_min":0,"x_max":521,"o":"m 0 0 l 174 0 l 174 -174 l 0 -174 l 0 -347 l 347 -347 l 347 -174 l 521 -174 l 521 0 l 347 0 l 347 868 l 0 868 l 0 0 "},"Ľ":{"ha":1042,"x_min":0,"x_max":868,"o":"m 0 0 l 868 0 l 868 174 l 347 174 l 347 521 l 694 521 l 694 694 l 868 694 l 868 868 l 521 868 l 521 694 l 347 694 l 347 868 l 0 868 l 0 0 "},"ľ":{"ha":1042,"x_min":0,"x_max":868,"o":"m 0 0 l 347 0 l 347 521 l 694 521 l 694 694 l 868 694 l 868 868 l 521 868 l 521 694 l 347 694 l 347 868 l 0 868 l 0 0 "},"Ŀ":{"ha":1215,"x_min":0,"x_max":1042,"o":"m 0 0 l 868 0 l 868 174 l 347 174 l 347 868 l 0 868 l 0 0 m 694 347 l 1042 347 l 1042 521 l 694 521 l 694 347 "},"ŀ":{"ha":1042,"x_min":0,"x_max":868,"o":"m 0 0 l 347 0 l 347 868 l 0 868 l 0 0 m 521 347 l 868 347 l 868 521 l 521 521 l 521 347 "},"Ł":{"ha":1215,"x_min":0,"x_max":1042,"o":"m 0 174 l 174 174 l 174 0 l 1042 0 l 1042 174 l 521 174 l 521 521 l 694 521 l 694 694 l 521 694 l 521 868 l 174 868 l 174 347 l 0 347 l 0 174 "},"ł":{"ha":868,"x_min":0,"x_max":694,"o":"m 0 174 l 174 174 l 174 0 l 521 0 l 521 521 l 694 521 l 694 694 l 521 694 l 521 868 l 174 868 l 174 347 l 0 347 l 0 174 "},"Ń":{"ha":1215,"x_min":0,"x_max":1042,"o":"m 0 0 l 347 0 l 347 347 l 521 347 l 521 174 l 694 174 l 694 0 l 1042 0 l 1042 868 l 694 868 l 694 521 l 521 521 l 521 694 l 347 694 l 347 868 l 0 868 l 0 0 m 347 1042 l 694 1042 l 694 1215 l 868 1215 l 868 1389 l 521 1389 l 521 1215 l 347 1215 l 347 1042 "},"ń":{"ha":1042,"x_min":0,"x_max":868,"o":"m 0 0 l 347 0 l 347 521 l 521 521 l 521 0 l 868 0 l 868 521 l 694 521 l 694 694 l 0 694 l 0 0 m 174 868 l 521 868 l 521 1042 l 694 1042 l 694 1215 l 347 1215 l 347 1042 l 174 1042 l 174 868 "},"Ņ":{"ha":1215,"x_min":0,"x_max":1042,"o":"m 0 0 l 340 0 l 340 -174 l 174 -174 l 174 -347 l 521 -347 l 521 -174 l 701 -174 l 701 0 l 1042 0 l 1042 868 l 694 868 l 694 521 l 521 521 l 521 694 l 347 694 l 347 868 l 0 868 l 0 0 m 347 0 l 347 347 l 521 347 l 521 174 l 694 174 l 694 0 l 347 0 "},"ņ":{"ha":1042,"x_min":0,"x_max":868,"o":"m 0 0 l 340 0 l 340 -174 l 174 -174 l 174 -347 l 521 -347 l 521 -174 l 694 -174 l 694 0 l 868 0 l 868 521 l 694 521 l 694 694 l 0 694 l 0 0 m 347 0 l 347 521 l 521 521 l 521 0 l 347 0 "},"Ň":{"ha":1215,"x_min":0,"x_max":1042,"o":"m 0 0 l 347 0 l 347 347 l 521 347 l 521 174 l 694 174 l 694 0 l 1042 0 l 1042 868 l 694 868 l 694 521 l 521 521 l 521 694 l 347 694 l 347 868 l 0 868 l 0 0 m 0 1215 l 174 1215 l 174 1042 l 868 1042 l 868 1215 l 1042 1215 l 1042 1389 l 694 1389 l 694 1215 l 347 1215 l 347 1389 l 0 1389 l 0 1215 "},"ň":{"ha":1042,"x_min":0,"x_max":868,"o":"m 0 0 l 347 0 l 347 521 l 521 521 l 521 0 l 868 0 l 868 521 l 694 521 l 694 694 l 0 694 l 0 0 m 0 1042 l 174 1042 l 174 868 l 694 868 l 694 1042 l 868 1042 l 868 1215 l 519 1215 l 519 1042 l 349 1042 l 349 1215 l 0 1215 l 0 1042 "},"ŉ":{"ha":1563,"x_min":0,"x_max":1389,"o":"m 0 521 l 347 521 l 347 694 l 521 694 l 521 0 l 868 0 l 868 521 l 1042 521 l 1042 0 l 1389 0 l 1389 521 l 1215 521 l 1215 694 l 521 694 l 521 868 l 174 868 l 174 694 l 0 694 l 0 521 "},"Ŋ":{"ha":1215,"x_min":0,"x_max":1042,"o":"m 0 0 l 347 0 l 347 347 l 521 347 l 521 174 l 694 174 l 694 3 l 521 3 l 521 -174 l 868 -174 l 868 0 l 1042 0 l 1042 868 l 694 868 l 694 521 l 521 521 l 521 694 l 347 694 l 347 868 l 0 868 l 0 0 "},"ŋ":{"ha":1042,"x_min":0,"x_max":868,"o":"m 0 0 l 340 0 l 340 -174 l 694 -174 l 694 0 l 868 0 l 868 521 l 694 521 l 694 694 l 0 694 l 0 0 m 347 0 l 347 521 l 521 521 l 521 0 l 347 0 "},"Ō":{"ha":1215,"x_min":0,"x_max":1042,"o":"m 0 174 l 174 174 l 174 0 l 868 0 l 868 174 l 1042 174 l 1042 694 l 868 694 l 868 868 l 174 868 l 174 694 l 0 694 l 0 174 m 174 1042 l 868 1042 l 868 1215 l 174 1215 l 174 1042 m 347 174 l 347 694 l 694 694 l 694 174 l 347 174 "},"ō":{"ha":1042,"x_min":0,"x_max":868,"o":"m 0 174 l 174 174 l 174 0 l 694 0 l 694 174 l 868 174 l 868 521 l 694 521 l 694 694 l 174 694 l 174 521 l 0 521 l 0 174 m 0 868 l 868 868 l 868 1042 l 0 1042 l 0 868 m 347 174 l 347 521 l 521 521 l 521 174 l 347 174 "},"Ŏ":{"ha":1215,"x_min":0,"x_max":1042,"o":"m 0 174 l 174 174 l 174 0 l 868 0 l 868 174 l 1042 174 l 1042 694 l 868 694 l 868 868 l 174 868 l 174 694 l 0 694 l 0 174 m 0 1215 l 174 1215 l 174 1042 l 868 1042 l 868 1215 l 1042 1215 l 1042 1389 l 694 1389 l 694 1215 l 347 1215 l 347 1389 l 0 1389 l 0 1215 m 347 174 l 347 694 l 694 694 l 694 174 l 347 174 "},"ŏ":{"ha":1042,"x_min":0,"x_max":868,"o":"m 0 174 l 174 174 l 174 0 l 694 0 l 694 174 l 868 174 l 868 521 l 694 521 l 694 694 l 174 694 l 174 521 l 0 521 l 0 174 m 0 1042 l 174 1042 l 174 868 l 694 868 l 694 1042 l 868 1042 l 868 1215 l 519 1215 l 519 1042 l 349 1042 l 349 1215 l 0 1215 l 0 1042 m 347 174 l 347 521 l 521 521 l 521 174 l 347 174 "},"Ő":{"ha":1215,"x_min":0,"x_max":1042,"o":"m 0 174 l 174 174 l 174 0 l 868 0 l 868 174 l 1042 174 l 1042 694 l 868 694 l 868 868 l 174 868 l 174 694 l 0 694 l 0 174 m 0 1042 l 347 1042 l 347 1215 l 521 1215 l 521 1389 l 174 1389 l 174 1215 l 0 1215 l 0 1042 m 347 174 l 347 694 l 694 694 l 694 174 l 347 174 m 521 1042 l 868 1042 l 868 1215 l 1042 1215 l 1042 1389 l 694 1389 l 694 1215 l 521 1215 l 521 1042 "},"ő":{"ha":1042,"x_min":0,"x_max":1042,"o":"m 0 174 l 174 174 l 174 0 l 694 0 l 694 174 l 868 174 l 868 521 l 694 521 l 694 694 l 174 694 l 174 521 l 0 521 l 0 174 m 0 868 l 347 868 l 347 1042 l 521 1042 l 521 1215 l 174 1215 l 174 1042 l 0 1042 l 0 868 m 347 174 l 347 521 l 521 521 l 521 174 l 347 174 m 521 868 l 868 868 l 868 1042 l 1042 1042 l 1042 1215 l 694 1215 l 694 1042 l 521 1042 l 521 868 "},"Œ":{"ha":1910,"x_min":0,"x_max":1736,"o":"m 0 174 l 174 174 l 174 0 l 1736 0 l 1736 174 l 1042 174 l 1042 347 l 1563 347 l 1563 521 l 1042 521 l 1042 694 l 1736 694 l 1736 868 l 174 868 l 174 694 l 0 694 l 0 174 m 347 174 l 347 694 l 694 694 l 694 174 l 347 174 "},"œ":{"ha":1736,"x_min":0,"x_max":1563,"o":"m 0 174 l 174 174 l 174 0 l 694 0 l 694 174 l 868 174 l 868 0 l 1563 0 l 1563 174 l 1389 174 l 1389 347 l 1563 347 l 1563 694 l 868 694 l 868 521 l 694 521 l 694 694 l 174 694 l 174 521 l 0 521 l 0 174 m 347 174 l 347 521 l 521 521 l 521 174 l 347 174 m 1042 354 l 1042 514 l 1215 514 l 1215 354 l 1042 354 "},"Ŕ":{"ha":1215,"x_min":0,"x_max":1042,"o":"m 0 0 l 347 0 l 347 347 l 521 347 l 521 174 l 694 174 l 694 0 l 1042 0 l 1042 174 l 868 174 l 868 521 l 1042 521 l 1042 694 l 868 694 l 868 868 l 0 868 l 0 0 m 347 521 l 347 694 l 694 694 l 694 521 l 347 521 m 347 1042 l 694 1042 l 694 1215 l 868 1215 l 868 1389 l 521 1389 l 521 1215 l 347 1215 l 347 1042 "},"ŕ":{"ha":868,"x_min":0,"x_max":694,"o":"m 0 0 l 347 0 l 347 347 l 521 347 l 521 521 l 694 521 l 694 694 l 521 694 l 521 521 l 347 521 l 347 694 l 0 694 l 0 0 m 174 868 l 521 868 l 521 1042 l 694 1042 l 694 1215 l 347 1215 l 347 1042 l 174 1042 l 174 868 "},"Ŗ":{"ha":1215,"x_min":0,"x_max":1042,"o":"m 0 0 l 340 0 l 340 -174 l 174 -174 l 174 -347 l 521 -347 l 521 -174 l 701 -174 l 701 0 l 1042 0 l 1042 174 l 868 174 l 868 521 l 1042 521 l 1042 694 l 868 694 l 868 868 l 0 868 l 0 0 m 347 0 l 347 347 l 521 347 l 521 174 l 694 174 l 694 0 l 347 0 m 347 521 l 347 694 l 694 694 l 694 521 l 347 521 "},"ŗ":{"ha":868,"x_min":0,"x_max":694,"o":"m 0 0 l 174 0 l 174 -174 l 0 -174 l 0 -347 l 347 -347 l 347 -174 l 521 -174 l 521 0 l 347 0 l 347 347 l 521 347 l 521 521 l 694 521 l 694 694 l 521 694 l 521 521 l 347 521 l 347 694 l 0 694 l 0 0 "},"Ř":{"ha":1215,"x_min":0,"x_max":1042,"o":"m 0 0 l 347 0 l 347 347 l 521 347 l 521 174 l 694 174 l 694 0 l 1042 0 l 1042 174 l 868 174 l 868 521 l 1042 521 l 1042 694 l 868 694 l 868 868 l 0 868 l 0 0 m 0 1215 l 174 1215 l 174 1042 l 868 1042 l 868 1215 l 1042 1215 l 1042 1389 l 694 1389 l 694 1215 l 347 1215 l 347 1389 l 0 1389 l 0 1215 m 347 521 l 347 694 l 694 694 l 694 521 l 347 521 "},"ř":{"ha":868,"x_min":0,"x_max":868,"o":"m 0 0 l 347 0 l 347 347 l 521 347 l 521 521 l 694 521 l 694 694 l 521 694 l 521 521 l 347 521 l 347 694 l 0 694 l 0 0 m 0 1042 l 174 1042 l 174 868 l 694 868 l 694 1042 l 868 1042 l 868 1215 l 519 1215 l 519 1042 l 349 1042 l 349 1215 l 0 1215 l 0 1042 "},"Ś":{"ha":1215,"x_min":0,"x_max":1042,"o":"m 0 0 l 868 0 l 868 174 l 1042 174 l 1042 347 l 868 347 l 868 521 l 521 521 l 521 694 l 1042 694 l 1042 868 l 174 868 l 174 694 l 0 694 l 0 521 l 174 521 l 174 347 l 521 347 l 521 174 l 0 174 l 0 0 m 347 1042 l 694 1042 l 694 1215 l 868 1215 l 868 1389 l 521 1389 l 521 1215 l 347 1215 l 347 1042 "},"ś":{"ha":1042,"x_min":0,"x_max":868,"o":"m 0 0 l 694 0 l 694 174 l 868 174 l 868 347 l 521 347 l 521 521 l 868 521 l 868 694 l 174 694 l 174 521 l 0 521 l 0 347 l 347 347 l 347 174 l 0 174 l 0 0 m 174 868 l 521 868 l 521 1042 l 694 1042 l 694 1215 l 347 1215 l 347 1042 l 174 1042 l 174 868 "},"Ŝ":{"ha":1215,"x_min":0,"x_max":1042,"o":"m 0 0 l 868 0 l 868 174 l 1042 174 l 1042 347 l 868 347 l 868 521 l 521 521 l 521 694 l 1042 694 l 1042 868 l 174 868 l 174 694 l 0 694 l 0 521 l 174 521 l 174 347 l 521 347 l 521 174 l 0 174 l 0 0 m 0 1042 l 347 1042 l 347 1215 l 694 1215 l 694 1042 l 1042 1042 l 1042 1215 l 868 1215 l 868 1389 l 174 1389 l 174 1215 l 0 1215 l 0 1042 "},"ŝ":{"ha":1042,"x_min":0,"x_max":868,"o":"m 0 0 l 694 0 l 694 174 l 868 174 l 868 347 l 521 347 l 521 521 l 868 521 l 868 694 l 174 694 l 174 521 l 0 521 l 0 347 l 347 347 l 347 174 l 0 174 l 0 0 m 0 868 l 349 868 l 349 1042 l 519 1042 l 519 868 l 868 868 l 868 1042 l 694 1042 l 694 1215 l 174 1215 l 174 1042 l 0 1042 l 0 868 "},"Ş":{"ha":1215,"x_min":0,"x_max":1042,"o":"m 0 0 l 347 0 l 347 -174 l 174 -174 l 174 -347 l 521 -347 l 521 -174 l 694 -174 l 694 0 l 868 0 l 868 174 l 1042 174 l 1042 347 l 868 347 l 868 521 l 521 521 l 521 694 l 1042 694 l 1042 868 l 174 868 l 174 694 l 0 694 l 0 521 l 174 521 l 174 347 l 521 347 l 521 174 l 0 174 l 0 0 "},"ş":{"ha":1042,"x_min":0,"x_max":868,"o":"m 0 0 l 347 0 l 347 -174 l 174 -174 l 174 -347 l 521 -347 l 521 -174 l 694 -174 l 694 174 l 868 174 l 868 347 l 521 347 l 521 521 l 868 521 l 868 694 l 174 694 l 174 521 l 0 521 l 0 347 l 347 347 l 347 174 l 0 174 l 0 0 "},"Š":{"ha":1215,"x_min":0,"x_max":1042,"o":"m 0 0 l 868 0 l 868 174 l 1042 174 l 1042 347 l 868 347 l 868 521 l 521 521 l 521 694 l 1042 694 l 1042 868 l 174 868 l 174 694 l 0 694 l 0 521 l 174 521 l 174 347 l 521 347 l 521 174 l 0 174 l 0 0 m 0 1215 l 174 1215 l 174 1042 l 868 1042 l 868 1215 l 1042 1215 l 1042 1389 l 694 1389 l 694 1215 l 347 1215 l 347 1389 l 0 1389 l 0 1215 "},"š":{"ha":1042,"x_min":0,"x_max":868,"o":"m 0 0 l 694 0 l 694 174 l 868 174 l 868 347 l 521 347 l 521 521 l 868 521 l 868 694 l 174 694 l 174 521 l 0 521 l 0 347 l 347 347 l 347 174 l 0 174 l 0 0 m 0 1042 l 174 1042 l 174 868 l 694 868 l 694 1042 l 868 1042 l 868 1215 l 519 1215 l 519 1042 l 349 1042 l 349 1215 l 0 1215 l 0 1042 "},"Ţ":{"ha":1215,"x_min":0,"x_max":1042,"o":"m 0 694 l 347 694 l 347 0 l 521 0 l 521 -174 l 347 -174 l 347 -347 l 694 -347 l 694 -174 l 868 -174 l 868 0 l 694 0 l 694 694 l 1042 694 l 1042 868 l 0 868 l 0 694 "},"ţ":{"ha":868,"x_min":0,"x_max":694,"o":"m 0 521 l 174 521 l 174 0 l 347 0 l 347 -174 l 174 -174 l 174 -347 l 521 -347 l 521 -174 l 694 -174 l 694 0 l 521 0 l 521 521 l 694 521 l 694 694 l 521 694 l 521 868 l 174 868 l 174 694 l 0 694 l 0 521 "},"Ť":{"ha":1215,"x_min":0,"x_max":1042,"o":"m 0 694 l 347 694 l 347 0 l 694 0 l 694 694 l 1042 694 l 1042 868 l 0 868 l 0 694 m 0 1215 l 174 1215 l 174 1042 l 868 1042 l 868 1215 l 1042 1215 l 1042 1389 l 694 1389 l 694 1215 l 347 1215 l 347 1389 l 0 1389 l 0 1215 "},"ť":{"ha":868,"x_min":-174,"x_max":868,"o":"m -174 868 l 174 868 l 174 694 l 0 694 l 0 521 l 174 521 l 174 0 l 521 0 l 521 521 l 694 521 l 694 694 l 521 694 l 521 868 l 868 868 l 868 1042 l 694 1042 l 694 1215 l 0 1215 l 0 1042 l -174 1042 l -174 868 m 180 868 l 180 1042 l 514 1042 l 514 868 l 180 868 "},"Ŧ":{"ha":1215,"x_min":0,"x_max":1042,"o":"m 0 694 l 347 694 l 347 521 l 174 521 l 174 347 l 347 347 l 347 0 l 694 0 l 694 347 l 868 347 l 868 521 l 694 521 l 694 694 l 1042 694 l 1042 868 l 0 868 l 0 694 "},"ŧ":{"ha":868,"x_min":0,"x_max":694,"o":"m 0 174 l 174 174 l 174 0 l 521 0 l 521 174 l 694 174 l 694 347 l 521 347 l 521 521 l 694 521 l 694 694 l 521 694 l 521 868 l 174 868 l 174 694 l 0 694 l 0 521 l 174 521 l 174 347 l 0 347 l 0 174 "},"Ũ":{"ha":1215,"x_min":0,"x_max":1042,"o":"m 0 174 l 174 174 l 174 0 l 868 0 l 868 174 l 1042 174 l 1042 868 l 694 868 l 694 174 l 347 174 l 347 868 l 0 868 l 0 174 m 0 1042 l 347 1042 l 347 1215 l 521 1215 l 521 1389 l 174 1389 l 174 1215 l 0 1215 l 0 1042 m 521 1042 l 868 1042 l 868 1215 l 1042 1215 l 1042 1389 l 694 1389 l 694 1215 l 521 1215 l 521 1042 "},"ũ":{"ha":1042,"x_min":0,"x_max":1042,"o":"m 0 174 l 174 174 l 174 0 l 868 0 l 868 694 l 521 694 l 521 174 l 347 174 l 347 694 l 0 694 l 0 174 m 0 868 l 347 868 l 347 1042 l 521 1042 l 521 1215 l 174 1215 l 174 1042 l 0 1042 l 0 868 m 521 868 l 868 868 l 868 1042 l 1042 1042 l 1042 1215 l 694 1215 l 694 1042 l 521 1042 l 521 868 "},"Ū":{"ha":1215,"x_min":0,"x_max":1042,"o":"m 0 174 l 174 174 l 174 0 l 868 0 l 868 174 l 1042 174 l 1042 868 l 694 868 l 694 174 l 347 174 l 347 868 l 0 868 l 0 174 m 174 1042 l 868 1042 l 868 1215 l 174 1215 l 174 1042 "},"ū":{"ha":1042,"x_min":0,"x_max":868,"o":"m 0 174 l 174 174 l 174 0 l 868 0 l 868 694 l 521 694 l 521 174 l 347 174 l 347 694 l 0 694 l 0 174 m 0 868 l 868 868 l 868 1042 l 0 1042 l 0 868 "},"Ŭ":{"ha":1215,"x_min":0,"x_max":1042,"o":"m 0 174 l 174 174 l 174 0 l 868 0 l 868 174 l 1042 174 l 1042 868 l 694 868 l 694 174 l 347 174 l 347 868 l 0 868 l 0 174 m 0 1215 l 174 1215 l 174 1042 l 868 1042 l 868 1215 l 1042 1215 l 1042 1389 l 694 1389 l 694 1215 l 347 1215 l 347 1389 l 0 1389 l 0 1215 "},"ŭ":{"ha":1042,"x_min":0,"x_max":868,"o":"m 0 174 l 174 174 l 174 0 l 868 0 l 868 694 l 521 694 l 521 174 l 347 174 l 347 694 l 0 694 l 0 174 m 0 1042 l 174 1042 l 174 868 l 694 868 l 694 1042 l 868 1042 l 868 1215 l 519 1215 l 519 1042 l 349 1042 l 349 1215 l 0 1215 l 0 1042 "},"Ů":{"ha":1215,"x_min":0,"x_max":1042,"o":"m 0 174 l 174 174 l 174 0 l 868 0 l 868 174 l 1042 174 l 1042 868 l 868 868 l 868 1042 l 1042 1042 l 1042 1215 l 868 1215 l 868 1389 l 174 1389 l 174 1215 l 0 1215 l 0 1042 l 174 1042 l 174 868 l 0 868 l 0 174 m 347 174 l 347 868 l 694 868 l 694 174 l 347 174 m 347 1042 l 347 1215 l 694 1215 l 694 1042 l 347 1042 "},"ů":{"ha":1042,"x_min":0,"x_max":868,"o":"m 0 174 l 174 174 l 174 0 l 868 0 l 868 694 l 694 694 l 694 868 l 868 868 l 868 1042 l 694 1042 l 694 1215 l 174 1215 l 174 1042 l 0 1042 l 0 868 l 174 868 l 174 694 l 0 694 l 0 174 m 347 174 l 347 694 l 521 694 l 521 174 l 347 174 m 347 868 l 347 1042 l 521 1042 l 521 868 l 347 868 "},"Ű":{"ha":1215,"x_min":0,"x_max":1042,"o":"m 0 174 l 174 174 l 174 0 l 868 0 l 868 174 l 1042 174 l 1042 868 l 694 868 l 694 174 l 347 174 l 347 868 l 0 868 l 0 174 m 347 1042 l 694 1042 l 694 1215 l 868 1215 l 868 1389 l 521 1389 l 521 1215 l 347 1215 l 347 1042 "},"ű":{"ha":1042,"x_min":0,"x_max":868,"o":"m 0 174 l 174 174 l 174 0 l 868 0 l 868 694 l 521 694 l 521 174 l 347 174 l 347 694 l 0 694 l 0 174 m 174 868 l 521 868 l 521 1042 l 694 1042 l 694 1215 l 347 1215 l 347 1042 l 174 1042 l 174 868 "},"Ų":{"ha":1215,"x_min":0,"x_max":1042,"o":"m 0 174 l 174 174 l 174 0 l 347 0 l 347 -174 l 521 -174 l 521 -347 l 868 -347 l 868 -174 l 694 -174 l 694 0 l 868 0 l 868 174 l 1042 174 l 1042 868 l 694 868 l 694 174 l 347 174 l 347 868 l 0 868 l 0 174 "},"ų":{"ha":1042,"x_min":0,"x_max":868,"o":"m 0 174 l 174 174 l 174 0 l 347 0 l 347 -174 l 521 -174 l 521 -347 l 868 -347 l 868 -174 l 694 -174 l 694 0 l 868 0 l 868 694 l 521 694 l 521 174 l 347 174 l 347 694 l 0 694 l 0 174 "},"Ŵ":{"ha":1563,"x_min":0,"x_max":1389,"o":"m 0 174 l 174 174 l 174 0 l 1215 0 l 1215 174 l 1389 174 l 1389 868 l 1042 868 l 1042 174 l 868 174 l 868 868 l 521 868 l 521 174 l 347 174 l 347 868 l 0 868 l 0 174 m 174 1042 l 521 1042 l 521 1215 l 868 1215 l 868 1042 l 1215 1042 l 1215 1215 l 1042 1215 l 1042 1389 l 347 1389 l 347 1215 l 174 1215 l 174 1042 "},"ŵ":{"ha":1563,"x_min":0,"x_max":1389,"o":"m 0 174 l 174 174 l 174 0 l 1215 0 l 1215 174 l 1389 174 l 1389 694 l 1042 694 l 1042 174 l 868 174 l 868 694 l 521 694 l 521 174 l 347 174 l 347 694 l 0 694 l 0 174 m 172 868 l 521 868 l 521 1042 l 865 1042 l 865 868 l 1214 868 l 1214 1042 l 1040 1042 l 1040 1215 l 346 1215 l 346 1042 l 172 1042 l 172 868 "},"Ŷ":{"ha":1215,"x_min":0,"x_max":1042,"o":"m 0 521 l 174 521 l 174 347 l 347 347 l 347 0 l 694 0 l 694 347 l 868 347 l 868 521 l 1042 521 l 1042 868 l 694 868 l 694 521 l 347 521 l 347 868 l 0 868 l 0 521 m 0 1042 l 347 1042 l 347 1215 l 694 1215 l 694 1042 l 1042 1042 l 1042 1215 l 868 1215 l 868 1389 l 174 1389 l 174 1215 l 0 1215 l 0 1042 "},"ŷ":{"ha":1042,"x_min":0,"x_max":868,"o":"m 0 174 l 174 174 l 174 0 l 521 0 l 521 -174 l 174 -174 l 174 -347 l 694 -347 l 694 -174 l 868 -174 l 868 694 l 521 694 l 521 174 l 347 174 l 347 694 l 0 694 l 0 174 m 0 868 l 349 868 l 349 1042 l 519 1042 l 519 868 l 868 868 l 868 1042 l 694 1042 l 694 1215 l 174 1215 l 174 1042 l 0 1042 l 0 868 "},"Ÿ":{"ha":1215,"x_min":-1,"x_max":1042,"o":"m -1 1042 l 347 1042 l 347 1389 l -1 1389 l -1 1042 m 0 521 l 174 521 l 174 347 l 347 347 l 347 0 l 694 0 l 694 347 l 868 347 l 868 521 l 1042 521 l 1042 868 l 694 868 l 694 521 l 347 521 l 347 868 l 0 868 l 0 521 m 693 1042 l 1042 1042 l 1042 1389 l 693 1389 l 693 1042 "},"Ź":{"ha":1215,"x_min":0,"x_max":1042,"o":"m 0 0 l 1042 0 l 1042 174 l 521 174 l 521 347 l 694 347 l 694 521 l 868 521 l 868 694 l 1042 694 l 1042 868 l 0 868 l 0 694 l 521 694 l 521 521 l 347 521 l 347 347 l 174 347 l 174 174 l 0 174 l 0 0 m 347 1042 l 694 1042 l 694 1215 l 868 1215 l 868 1389 l 521 1389 l 521 1215 l 347 1215 l 347 1042 "},"ź":{"ha":1042,"x_min":0,"x_max":868,"o":"m 0 0 l 868 0 l 868 174 l 521 174 l 521 347 l 694 347 l 694 521 l 868 521 l 868 694 l 0 694 l 0 521 l 347 521 l 347 347 l 174 347 l 174 174 l 0 174 l 0 0 m 174 868 l 521 868 l 521 1042 l 694 1042 l 694 1215 l 347 1215 l 347 1042 l 174 1042 l 174 868 "},"Ż":{"ha":1215,"x_min":0,"x_max":1042,"o":"m 0 0 l 1042 0 l 1042 174 l 521 174 l 521 347 l 694 347 l 694 521 l 868 521 l 868 694 l 1042 694 l 1042 868 l 0 868 l 0 694 l 521 694 l 521 521 l 347 521 l 347 347 l 174 347 l 174 174 l 0 174 l 0 0 m 347 1042 l 694 1042 l 694 1215 l 347 1215 l 347 1042 "},"ż":{"ha":1042,"x_min":0,"x_max":868,"o":"m 0 0 l 868 0 l 868 174 l 521 174 l 521 347 l 694 347 l 694 521 l 868 521 l 868 694 l 0 694 l 0 521 l 347 521 l 347 347 l 174 347 l 174 174 l 0 174 l 0 0 m 347 868 l 694 868 l 694 1042 l 347 1042 l 347 868 "},"Ž":{"ha":1215,"x_min":0,"x_max":1042,"o":"m 0 0 l 1042 0 l 1042 174 l 521 174 l 521 347 l 694 347 l 694 521 l 868 521 l 868 694 l 1042 694 l 1042 868 l 0 868 l 0 694 l 521 694 l 521 521 l 347 521 l 347 347 l 174 347 l 174 174 l 0 174 l 0 0 m 0 1215 l 174 1215 l 174 1042 l 868 1042 l 868 1215 l 1042 1215 l 1042 1389 l 694 1389 l 694 1215 l 347 1215 l 347 1389 l 0 1389 l 0 1215 "},"ž":{"ha":1042,"x_min":0,"x_max":868,"o":"m 0 0 l 868 0 l 868 174 l 521 174 l 521 347 l 694 347 l 694 521 l 868 521 l 868 694 l 0 694 l 0 521 l 347 521 l 347 347 l 174 347 l 174 174 l 0 174 l 0 0 m 0 1042 l 174 1042 l 174 868 l 694 868 l 694 1042 l 868 1042 l 868 1215 l 519 1215 l 519 1042 l 349 1042 l 349 1215 l 0 1215 l 0 1042 "},"ſ":{"ha":694,"x_min":0,"x_max":521,"o":"m 0 0 l 347 0 l 347 694 l 521 694 l 521 868 l 174 868 l 174 694 l 0 694 l 0 0 "},"ƀ":{"ha":1042,"x_min":0,"x_max":868,"o":"m 0 0 l 694 0 l 694 174 l 868 174 l 868 521 l 694 521 l 694 694 l 521 694 l 521 868 l 694 868 l 694 1042 l 521 1042 l 521 868 l 347 868 l 347 1042 l 0 1042 l 0 868 l 174 868 l 174 694 l 0 694 l 0 0 m 347 174 l 347 521 l 521 521 l 521 174 l 347 174 "},"Ɓ":{"ha":1389,"x_min":0,"x_max":1215,"o":"m 0 694 l 174 694 l 174 0 l 1042 0 l 1042 174 l 1215 174 l 1215 347 l 1042 347 l 1042 521 l 1215 521 l 1215 694 l 1042 694 l 1042 868 l 0 868 l 0 694 m 521 174 l 521 347 l 861 347 l 861 174 l 521 174 m 521 521 l 521 694 l 861 694 l 861 521 l 521 521 "},"Ƃ":{"ha":1215,"x_min":0,"x_max":1042,"o":"m 0 0 l 868 0 l 868 174 l 1042 174 l 1042 347 l 868 347 l 868 521 l 347 521 l 347 694 l 868 694 l 868 868 l 0 868 l 0 0 m 347 174 l 347 347 l 688 347 l 688 174 l 347 174 "},"ƃ":{"ha":1042,"x_min":0,"x_max":868,"o":"m 0 0 l 694 0 l 694 174 l 868 174 l 868 347 l 694 347 l 694 521 l 347 521 l 347 694 l 868 694 l 868 868 l 0 868 l 0 0 m 347 174 l 347 347 l 514 347 l 514 174 l 347 174 "},"Ƅ":{"ha":1389,"x_min":0,"x_max":1215,"o":"m 0 521 l 174 521 l 174 0 l 1042 0 l 1042 174 l 1215 174 l 1215 347 l 1042 347 l 1042 521 l 521 521 l 521 868 l 174 868 l 174 694 l 0 694 l 0 521 m 521 174 l 521 347 l 861 347 l 861 174 l 521 174 "},"ƅ":{"ha":1042,"x_min":0,"x_max":1042,"o":"m 0 521 l 174 521 l 174 0 l 868 0 l 868 174 l 1042 174 l 1042 347 l 868 347 l 868 521 l 521 521 l 521 868 l 174 868 l 174 694 l 0 694 l 0 521 m 521 174 l 521 347 l 688 347 l 688 174 l 521 174 "},"Ɔ":{"ha":1215,"x_min":0,"x_max":1042,"o":"m 0 174 l 174 174 l 174 0 l 868 0 l 868 174 l 1042 174 l 1042 694 l 868 694 l 868 868 l 174 868 l 174 694 l 0 694 l 0 521 l 347 521 l 347 694 l 694 694 l 694 174 l 347 174 l 347 347 l 0 347 l 0 174 "},"Ƈ":{"ha":1215,"x_min":0,"x_max":1215,"o":"m 0 174 l 174 174 l 174 0 l 868 0 l 868 174 l 1042 174 l 1042 347 l 694 347 l 694 174 l 347 174 l 347 694 l 694 694 l 694 521 l 1042 521 l 1042 694 l 1215 694 l 1215 868 l 1042 868 l 1042 694 l 868 694 l 868 868 l 174 868 l 174 694 l 0 694 l 0 174 "},"ƈ":{"ha":1042,"x_min":0,"x_max":1042,"o":"m 0 174 l 174 174 l 174 0 l 868 0 l 868 174 l 347 174 l 347 521 l 868 521 l 868 694 l 1042 694 l 1042 868 l 868 868 l 868 694 l 174 694 l 174 521 l 0 521 l 0 174 "},"Ɖ":{"ha":1389,"x_min":0,"x_max":1215,"o":"m 0 347 l 174 347 l 174 0 l 1042 0 l 1042 174 l 1215 174 l 1215 694 l 1042 694 l 1042 868 l 174 868 l 174 521 l 0 521 l 0 347 m 521 174 l 521 347 l 694 347 l 694 521 l 521 521 l 521 694 l 868 694 l 868 174 l 521 174 "},"Ɗ":{"ha":1389,"x_min":0,"x_max":1215,"o":"m 0 694 l 174 694 l 174 0 l 1042 0 l 1042 174 l 1215 174 l 1215 694 l 1042 694 l 1042 868 l 0 868 l 0 694 m 521 174 l 521 694 l 861 694 l 861 174 l 521 174 "},"Ƌ":{"ha":1215,"x_min":0,"x_max":1042,"o":"m 0 174 l 174 174 l 174 0 l 1042 0 l 1042 868 l 174 868 l 174 694 l 694 694 l 694 521 l 174 521 l 174 347 l 0 347 l 0 174 m 354 174 l 354 347 l 694 347 l 694 174 l 354 174 "},"ƌ":{"ha":1042,"x_min":0,"x_max":868,"o":"m 0 174 l 174 174 l 174 0 l 868 0 l 868 868 l 0 868 l 0 694 l 521 694 l 521 521 l 174 521 l 174 347 l 0 347 l 0 174 m 354 174 l 354 347 l 521 347 l 521 174 l 354 174 "},"ƍ":{"ha":1042,"x_min":0,"x_max":868,"o":"m 0 174 l 174 174 l 174 0 l 521 0 l 521 -174 l 174 -174 l 174 -347 l 694 -347 l 694 -174 l 868 -174 l 868 0 l 694 0 l 694 174 l 868 174 l 868 521 l 694 521 l 694 694 l 174 694 l 174 521 l 0 521 l 0 174 m 347 174 l 347 521 l 521 521 l 521 174 l 347 174 "},"Ǝ":{"ha":1042,"x_min":0,"x_max":868,"o":"m 0 0 l 868 0 l 868 868 l 0 868 l 0 694 l 521 694 l 521 521 l 174 521 l 174 347 l 521 347 l 521 174 l 0 174 l 0 0 "},"Ə":{"ha":1042,"x_min":0,"x_max":868,"o":"m 0 0 l 694 0 l 694 174 l 868 174 l 868 521 l 694 521 l 694 694 l 0 694 l 0 347 l 174 347 l 174 174 l 0 174 l 0 0 m 347 347 l 347 514 l 521 514 l 521 347 l 347 347 "},"Ɛ":{"ha":1215,"x_min":0,"x_max":1042,"o":"m 0 174 l 174 174 l 174 0 l 868 0 l 868 174 l 1042 174 l 1042 347 l 694 347 l 694 174 l 347 174 l 347 347 l 521 347 l 521 521 l 347 521 l 347 694 l 694 694 l 694 521 l 1042 521 l 1042 694 l 868 694 l 868 868 l 174 868 l 174 694 l 0 694 l 0 521 l 174 521 l 174 347 l 0 347 l 0 174 "},"Ƒ":{"ha":1215,"x_min":0,"x_max":1042,"o":"m 0 0 l 0 -174 l 347 -174 l 347 0 l 521 0 l 521 347 l 868 347 l 868 521 l 521 521 l 521 694 l 1042 694 l 1042 868 l 174 868 l 174 0 l 0 0 "},"ƒ":{"ha":868,"x_min":0,"x_max":694,"o":"m 0 0 l 0 -174 l 347 -174 l 347 0 l 521 0 l 521 347 l 694 347 l 694 521 l 521 521 l 521 694 l 694 694 l 694 868 l 347 868 l 347 694 l 174 694 l 174 0 l 0 0 "},"Ɠ":{"ha":1215,"x_min":0,"x_max":1215,"o":"m 0 174 l 174 174 l 174 0 l 1042 0 l 1042 521 l 521 521 l 521 347 l 694 347 l 694 174 l 347 174 l 347 694 l 1042 694 l 1042 868 l 1215 868 l 1215 1042 l 1042 1042 l 1042 868 l 174 868 l 174 694 l 0 694 l 0 174 "},"Ɣ":{"ha":1215,"x_min":0,"x_max":1042,"o":"m 0 521 l 174 521 l 174 347 l 347 347 l 347 0 l 694 0 l 694 347 l 868 347 l 868 521 l 1042 521 l 1042 868 l 694 868 l 694 521 l 347 521 l 347 868 l 0 868 l 0 521 "},"ƕ":{"ha":1563,"x_min":0,"x_max":1389,"o":"m 0 0 l 347 0 l 347 521 l 521 521 l 521 174 l 694 174 l 694 0 l 1215 0 l 1215 174 l 1389 174 l 1389 694 l 1042 694 l 1042 174 l 868 174 l 868 521 l 694 521 l 694 694 l 347 694 l 347 868 l 0 868 l 0 0 "},"Ɩ":{"ha":694,"x_min":0,"x_max":521,"o":"m 0 174 l 174 174 l 174 0 l 521 0 l 521 174 l 347 174 l 347 868 l 0 868 l 0 174 "},"Ɨ":{"ha":868,"x_min":0,"x_max":694,"o":"m 0 347 l 174 347 l 174 0 l 521 0 l 521 347 l 694 347 l 694 521 l 521 521 l 521 868 l 174 868 l 174 521 l 0 521 l 0 347 "},"Ƙ":{"ha":1215,"x_min":0,"x_max":1042,"o":"m 0 0 l 347 0 l 347 347 l 521 347 l 521 174 l 694 174 l 694 0 l 1042 0 l 1042 174 l 868 174 l 868 347 l 694 347 l 694 694 l 868 694 l 868 521 l 1042 521 l 1042 694 l 868 694 l 868 868 l 521 868 l 521 694 l 347 694 l 347 868 l 0 868 l 0 0 "},"ƙ":{"ha":1042,"x_min":0,"x_max":868,"o":"m 0 0 l 347 0 l 347 347 l 521 347 l 521 0 l 868 0 l 868 347 l 694 347 l 694 521 l 868 521 l 868 694 l 521 694 l 521 868 l 174 868 l 174 694 l 0 694 l 0 0 m 347 521 l 347 694 l 514 694 l 514 521 l 347 521 "},"ƚ":{"ha":868,"x_min":0,"x_max":694,"o":"m 0 347 l 174 347 l 174 0 l 521 0 l 521 347 l 694 347 l 694 521 l 521 521 l 521 868 l 174 868 l 174 521 l 0 521 l 0 347 "},"ƛ":{"ha":1215,"x_min":0,"x_max":1042,"o":"m 0 -174 l 347 -174 l 347 174 l 694 174 l 694 -174 l 1042 -174 l 1042 347 l 868 347 l 868 521 l 1042 521 l 1042 694 l 694 694 l 694 521 l 521 521 l 521 694 l 0 694 l 0 521 l 347 521 l 347 347 l 174 347 l 174 174 l 0 174 l 0 -174 "},"Ɯ":{"ha":1563,"x_min":0,"x_max":1389,"o":"m 0 174 l 174 174 l 174 0 l 1389 0 l 1389 694 l 1042 694 l 1042 174 l 868 174 l 868 694 l 521 694 l 521 174 l 347 174 l 347 694 l 0 694 l 0 174 "},"Ɲ":{"ha":1389,"x_min":0,"x_max":1215,"o":"m 0 0 l 0 -174 l 347 -174 l 347 0 l 521 0 l 521 347 l 694 347 l 694 174 l 868 174 l 868 0 l 1215 0 l 1215 868 l 868 868 l 868 521 l 694 521 l 694 694 l 521 694 l 521 868 l 174 868 l 174 0 l 0 0 "},"ƞ":{"ha":1042,"x_min":0,"x_max":868,"o":"m 0 0 l 347 0 l 347 521 l 521 521 l 521 -174 l 868 -174 l 868 521 l 694 521 l 694 694 l 0 694 l 0 0 "},"Ɵ":{"ha":1215,"x_min":0,"x_max":1042,"o":"m 0 174 l 174 174 l 174 0 l 868 0 l 868 174 l 1042 174 l 1042 694 l 868 694 l 868 868 l 174 868 l 174 694 l 0 694 l 0 174 m 347 174 l 347 347 l 694 347 l 694 174 l 347 174 m 347 521 l 347 694 l 694 694 l 694 521 l 347 521 "},"Ơ":{"ha":1215,"x_min":0,"x_max":1215,"o":"m 0 174 l 174 174 l 174 0 l 868 0 l 868 174 l 1042 174 l 1042 694 l 1215 694 l 1215 868 l 1042 868 l 1042 694 l 868 694 l 868 868 l 174 868 l 174 694 l 0 694 l 0 174 m 347 174 l 347 694 l 694 694 l 694 174 l 347 174 "},"ơ":{"ha":1042,"x_min":0,"x_max":868,"o":"m 0 174 l 174 174 l 174 0 l 694 0 l 694 174 l 868 174 l 868 521 l 694 521 l 694 694 l 868 694 l 868 868 l 694 868 l 694 694 l 174 694 l 174 521 l 0 521 l 0 174 m 347 174 l 347 521 l 521 521 l 521 174 l 347 174 "},"Ƣ":{"ha":1563,"x_min":0,"x_max":1389,"o":"m 0 347 l 174 347 l 174 174 l 694 174 l 694 347 l 868 347 l 868 694 l 1042 694 l 1042 0 l 1389 0 l 1389 868 l 174 868 l 174 694 l 0 694 l 0 347 m 347 347 l 347 694 l 521 694 l 521 347 l 347 347 "},"ƣ":{"ha":1563,"x_min":0,"x_max":1389,"o":"m 0 174 l 174 174 l 174 0 l 694 0 l 694 174 l 868 174 l 868 521 l 1042 521 l 1042 -174 l 1389 -174 l 1389 694 l 174 694 l 174 521 l 0 521 l 0 174 m 347 174 l 347 521 l 521 521 l 521 174 l 347 174 "},"Ƥ":{"ha":1389,"x_min":0,"x_max":1215,"o":"m 0 694 l 174 694 l 174 0 l 521 0 l 521 347 l 1042 347 l 1042 521 l 1215 521 l 1215 694 l 1042 694 l 1042 868 l 0 868 l 0 694 m 521 521 l 521 694 l 861 694 l 861 521 l 521 521 "},"ƥ":{"ha":1042,"x_min":0,"x_max":868,"o":"m 0 -174 l 347 -174 l 347 0 l 694 0 l 694 174 l 868 174 l 868 347 l 694 347 l 694 521 l 347 521 l 347 694 l 521 694 l 521 868 l 174 868 l 174 694 l 0 694 l 0 -174 m 347 174 l 347 347 l 521 347 l 521 174 l 347 174 "},"Ʀ":{"ha":1215,"x_min":0,"x_max":1042,"o":"m 0 0 l 347 0 l 347 347 l 521 347 l 521 174 l 694 174 l 694 0 l 1042 0 l 1042 174 l 868 174 l 868 521 l 1042 521 l 1042 694 l 868 694 l 868 868 l 347 868 l 347 1042 l 0 1042 l 0 0 m 347 521 l 347 694 l 694 694 l 694 521 l 347 521 "},"Ƨ":{"ha":1215,"x_min":0,"x_max":1042,"o":"m 0 174 l 174 174 l 174 0 l 1042 0 l 1042 174 l 521 174 l 521 347 l 868 347 l 868 521 l 1042 521 l 1042 694 l 868 694 l 868 868 l 0 868 l 0 694 l 521 694 l 521 521 l 174 521 l 174 347 l 0 347 l 0 174 "},"ƨ":{"ha":1042,"x_min":0,"x_max":868,"o":"m 0 174 l 174 174 l 174 0 l 868 0 l 868 174 l 521 174 l 521 347 l 868 347 l 868 521 l 694 521 l 694 694 l 0 694 l 0 521 l 347 521 l 347 347 l 0 347 l 0 174 "},"Ʃ":{"ha":1215,"x_min":0,"x_max":1042,"o":"m 0 0 l 1042 0 l 1042 347 l 701 347 l 701 521 l 1042 521 l 1042 868 l 0 868 l 0 694 l 174 694 l 174 521 l 347 521 l 347 347 l 174 347 l 174 174 l 0 174 l 0 0 m 521 174 l 521 347 l 694 347 l 694 174 l 521 174 m 521 521 l 521 694 l 694 694 l 694 521 l 521 521 "},"ƪ":{"ha":868,"x_min":0,"x_max":694,"o":"m 0 694 l 174 694 l 174 0 l 347 0 l 347 -174 l 694 -174 l 694 0 l 521 0 l 521 694 l 347 694 l 347 868 l 0 868 l 0 694 "},"ƫ":{"ha":868,"x_min":0,"x_max":694,"o":"m 0 521 l 174 521 l 174 0 l 347 0 l 347 -174 l 174 -174 l 174 -347 l 521 -347 l 521 -174 l 694 -174 l 694 0 l 521 0 l 521 521 l 694 521 l 694 694 l 521 694 l 521 868 l 174 868 l 174 694 l 0 694 l 0 521 "},"Ƭ":{"ha":1215,"x_min":0,"x_max":1042,"o":"m 0 521 l 347 521 l 347 694 l 521 694 l 521 0 l 868 0 l 868 694 l 1042 694 l 1042 868 l 174 868 l 174 694 l 0 694 l 0 521 "},"ƭ":{"ha":694,"x_min":0,"x_max":521,"o":"m 0 174 l 174 174 l 174 0 l 521 0 l 521 174 l 347 174 l 347 347 l 521 347 l 521 521 l 347 521 l 347 694 l 521 694 l 521 868 l 174 868 l 174 694 l 0 694 l 0 174 "},"Ʈ":{"ha":1215,"x_min":0,"x_max":1042,"o":"m 0 694 l 347 694 l 347 0 l 521 0 l 521 -174 l 868 -174 l 868 0 l 694 0 l 694 694 l 1042 694 l 1042 868 l 0 868 l 0 694 "},"Ư":{"ha":1215,"x_min":0,"x_max":1215,"o":"m 0 174 l 174 174 l 174 0 l 868 0 l 868 174 l 1042 174 l 1042 868 l 1215 868 l 1215 1042 l 1042 1042 l 1042 868 l 694 868 l 694 174 l 347 174 l 347 868 l 0 868 l 0 174 "},"ư":{"ha":1042,"x_min":0,"x_max":1042,"o":"m 0 174 l 174 174 l 174 0 l 868 0 l 868 694 l 1042 694 l 1042 868 l 868 868 l 868 694 l 521 694 l 521 174 l 347 174 l 347 694 l 0 694 l 0 174 "},"Ʊ":{"ha":1389,"x_min":0,"x_max":1215,"o":"m 0 174 l 174 174 l 174 0 l 1042 0 l 1042 174 l 1215 174 l 1215 694 l 1042 694 l 1042 868 l 694 868 l 694 694 l 868 694 l 868 174 l 347 174 l 347 694 l 521 694 l 521 868 l 174 868 l 174 694 l 0 694 l 0 174 "},"Ʋ":{"ha":1215,"x_min":0,"x_max":1042,"o":"m 0 174 l 174 174 l 174 0 l 868 0 l 868 174 l 1042 174 l 1042 694 l 868 694 l 868 868 l 521 868 l 521 694 l 694 694 l 694 174 l 347 174 l 347 868 l 0 868 l 0 174 "},"Ƴ":{"ha":1563,"x_min":0,"x_max":1389,"o":"m 0 347 l 347 347 l 347 521 l 521 521 l 521 347 l 694 347 l 694 0 l 1042 0 l 1042 347 l 1215 347 l 1215 521 l 1389 521 l 1389 868 l 1042 868 l 1042 521 l 694 521 l 694 868 l 347 868 l 347 694 l 174 694 l 174 521 l 0 521 l 0 347 "},"ƴ":{"ha":1042,"x_min":0,"x_max":1042,"o":"m 0 174 l 174 174 l 174 0 l 521 0 l 521 -174 l 174 -174 l 174 -347 l 694 -347 l 694 -174 l 868 -174 l 868 694 l 1042 694 l 1042 868 l 868 868 l 868 694 l 521 694 l 521 174 l 347 174 l 347 694 l 0 694 l 0 174 "},"Ƶ":{"ha":1215,"x_min":0,"x_max":1042,"o":"m 0 0 l 1042 0 l 1042 174 l 521 174 l 521 347 l 1042 347 l 1042 521 l 868 521 l 868 694 l 1042 694 l 1042 868 l 0 868 l 0 694 l 521 694 l 521 521 l 0 521 l 0 347 l 174 347 l 174 174 l 0 174 l 0 0 "},"ƶ":{"ha":1042,"x_min":0,"x_max":868,"o":"m 0 0 l 868 0 l 868 174 l 694 174 l 694 521 l 868 521 l 868 694 l 0 694 l 0 521 l 347 521 l 347 347 l 174 347 l 174 174 l 0 174 l 0 0 "},"Ʒ":{"ha":1042,"x_min":0,"x_max":868,"o":"m 0 0 l 694 0 l 694 174 l 868 174 l 868 347 l 694 347 l 694 694 l 868 694 l 868 868 l 0 868 l 0 694 l 347 694 l 347 521 l 174 521 l 174 347 l 521 347 l 521 174 l 0 174 l 0 0 "},"Ƹ":{"ha":1042,"x_min":0,"x_max":868,"o":"m 0 174 l 174 174 l 174 0 l 868 0 l 868 174 l 347 174 l 347 347 l 694 347 l 694 521 l 521 521 l 521 694 l 868 694 l 868 868 l 0 868 l 0 694 l 174 694 l 174 347 l 0 347 l 0 174 "},"ƹ":{"ha":1042,"x_min":0,"x_max":868,"o":"m 0 0 l 174 0 l 174 -174 l 868 -174 l 868 0 l 347 0 l 347 174 l 694 174 l 694 347 l 521 347 l 521 521 l 868 521 l 868 694 l 0 694 l 0 521 l 174 521 l 174 174 l 0 174 l 0 0 "},"ƺ":{"ha":1042,"x_min":0,"x_max":868,"o":"m 0 0 l 174 0 l 174 -174 l 694 -174 l 694 0 l 347 0 l 347 174 l 868 174 l 868 347 l 694 347 l 694 521 l 868 521 l 868 694 l 0 694 l 0 521 l 347 521 l 347 347 l 174 347 l 174 174 l 0 174 l 0 0 "},"ƻ":{"ha":1215,"x_min":0,"x_max":1042,"o":"m 0 0 l 1042 0 l 1042 174 l 521 174 l 521 347 l 1042 347 l 1042 694 l 694 694 l 694 521 l 0 521 l 0 347 l 174 347 l 174 174 l 0 174 l 0 0 m 0 694 l 868 694 l 868 868 l 0 868 l 0 694 "},"Ƽ":{"ha":1215,"x_min":0,"x_max":1042,"o":"m 0 0 l 868 0 l 868 174 l 1042 174 l 1042 347 l 868 347 l 868 521 l 347 521 l 347 694 l 1042 694 l 1042 868 l 0 868 l 0 521 l 174 521 l 174 347 l 694 347 l 694 174 l 0 174 l 0 0 "},"ƽ":{"ha":1042,"x_min":0,"x_max":868,"o":"m 0 0 l 0 -174 l 694 -174 l 694 0 l 868 0 l 868 174 l 694 174 l 694 347 l 347 347 l 347 521 l 868 521 l 868 694 l 0 694 l 0 347 l 174 347 l 174 174 l 521 174 l 521 0 l 0 0 "},"ƾ":{"ha":868,"x_min":0,"x_max":694,"o":"m 0 0 l 521 0 l 521 174 l 694 174 l 694 347 l 521 347 l 521 521 l 694 521 l 694 694 l 521 694 l 521 868 l 174 868 l 174 694 l 0 694 l 0 521 l 174 521 l 174 347 l 347 347 l 347 174 l 0 174 l 0 0 "},"ƿ":{"ha":1215,"x_min":0,"x_max":1042,"o":"m 0 -347 l 694 -347 l 694 -174 l 868 -174 l 868 0 l 1042 0 l 1042 521 l 868 521 l 868 694 l 0 694 l 0 -347 m 347 -174 l 347 521 l 694 521 l 694 0 l 521 0 l 521 -174 l 347 -174 "},"ǀ":{"ha":521,"x_min":0,"x_max":347,"o":"m 0 0 l 347 0 l 347 868 l 0 868 l 0 0 "},"ǁ":{"ha":1042,"x_min":0,"x_max":868,"o":"m 0 0 l 347 0 l 347 868 l 0 868 l 0 0 m 521 0 l 868 0 l 868 868 l 521 868 l 521 0 "},"ǂ":{"ha":868,"x_min":0,"x_max":694,"o":"m 0 174 l 174 174 l 174 0 l 521 0 l 521 174 l 694 174 l 694 347 l 521 347 l 521 521 l 694 521 l 694 694 l 521 694 l 521 868 l 174 868 l 174 694 l 0 694 l 0 521 l 174 521 l 174 347 l 0 347 l 0 174 "},"ǃ":{"ha":694,"x_min":174,"x_max":521,"o":"m 174 0 l 521 0 l 521 174 l 174 174 l 174 0 m 174 347 l 521 347 l 521 868 l 174 868 l 174 347 "},"Ǆ":{"ha":2431,"x_min":0,"x_max":2257,"o":"m 0 0 l 868 0 l 868 174 l 1042 174 l 1042 694 l 868 694 l 868 868 l 0 868 l 0 0 m 347 174 l 347 694 l 694 694 l 694 174 l 347 174 m 1215 0 l 2257 0 l 2257 174 l 1736 174 l 1736 347 l 1910 347 l 1910 521 l 2083 521 l 2083 694 l 2257 694 l 2257 868 l 1215 868 l 1215 694 l 1736 694 l 1736 521 l 1563 521 l 1563 347 l 1389 347 l 1389 174 l 1215 174 l 1215 0 m 1215 1215 l 1389 1215 l 1389 1042 l 2083 1042 l 2083 1215 l 2257 1215 l 2257 1389 l 1910 1389 l 1910 1215 l 1563 1215 l 1563 1389 l 1215 1389 l 1215 1215 "},"ǅ":{"ha":2257,"x_min":0,"x_max":2083,"o":"m 0 0 l 868 0 l 868 174 l 1042 174 l 1042 694 l 868 694 l 868 868 l 0 868 l 0 0 m 347 174 l 347 694 l 694 694 l 694 174 l 347 174 m 1215 0 l 2083 0 l 2083 174 l 1736 174 l 1736 347 l 1910 347 l 1910 521 l 2083 521 l 2083 694 l 1215 694 l 1215 521 l 1563 521 l 1563 347 l 1389 347 l 1389 174 l 1215 174 l 1215 0 m 1215 1042 l 1389 1042 l 1389 868 l 1910 868 l 1910 1042 l 2083 1042 l 2083 1215 l 1735 1215 l 1735 1042 l 1564 1042 l 1564 1215 l 1215 1215 l 1215 1042 "},"ǆ":{"ha":2083,"x_min":0,"x_max":1910,"o":"m 0 174 l 174 174 l 174 0 l 868 0 l 868 868 l 521 868 l 521 694 l 174 694 l 174 521 l 0 521 l 0 174 m 347 174 l 347 521 l 521 521 l 521 174 l 347 174 m 1042 0 l 1910 0 l 1910 174 l 1563 174 l 1563 347 l 1736 347 l 1736 521 l 1910 521 l 1910 694 l 1042 694 l 1042 521 l 1389 521 l 1389 347 l 1215 347 l 1215 174 l 1042 174 l 1042 0 m 1042 1042 l 1215 1042 l 1215 868 l 1736 868 l 1736 1042 l 1910 1042 l 1910 1215 l 1561 1215 l 1561 1042 l 1390 1042 l 1390 1215 l 1042 1215 l 1042 1042 "},"Ǉ":{"ha":1736,"x_min":0,"x_max":1563,"o":"m 0 0 l 694 0 l 694 174 l 868 174 l 868 0 l 1389 0 l 1389 174 l 1563 174 l 1563 868 l 1215 868 l 1215 174 l 1042 174 l 1042 347 l 694 347 l 694 174 l 347 174 l 347 868 l 0 868 l 0 0 "},"ǈ":{"ha":1389,"x_min":0,"x_max":1215,"o":"m 0 0 l 868 0 l 868 -174 l 694 -174 l 694 -347 l 1042 -347 l 1042 -174 l 1215 -174 l 1215 521 l 868 521 l 868 174 l 347 174 l 347 868 l 0 868 l 0 0 m 868 694 l 1215 694 l 1215 868 l 868 868 l 868 694 "},"ǉ":{"ha":1042,"x_min":0,"x_max":868,"o":"m 0 0 l 347 0 l 347 868 l 0 868 l 0 0 m 347 -174 l 347 -347 l 694 -347 l 694 -174 l 868 -174 l 868 521 l 521 521 l 521 -174 l 347 -174 m 521 694 l 868 694 l 868 868 l 521 868 l 521 694 "},"Ǌ":{"ha":2257,"x_min":0,"x_max":2083,"o":"m 0 0 l 347 0 l 347 347 l 521 347 l 521 174 l 694 174 l 694 0 l 1042 0 l 1042 868 l 694 868 l 694 521 l 521 521 l 521 694 l 347 694 l 347 868 l 0 868 l 0 0 m 1215 174 l 1389 174 l 1389 0 l 1910 0 l 1910 174 l 2083 174 l 2083 868 l 1736 868 l 1736 174 l 1563 174 l 1563 347 l 1215 347 l 1215 174 "},"ǋ":{"ha":1736,"x_min":0,"x_max":1563,"o":"m 0 0 l 347 0 l 347 347 l 521 347 l 521 174 l 694 174 l 694 0 l 1042 0 l 1042 868 l 694 868 l 694 521 l 521 521 l 521 694 l 347 694 l 347 868 l 0 868 l 0 0 m 1042 -174 l 1042 -347 l 1389 -347 l 1389 -174 l 1563 -174 l 1563 521 l 1215 521 l 1215 -174 l 1042 -174 m 1215 694 l 1563 694 l 1563 868 l 1215 868 l 1215 694 "},"ǌ":{"ha":1563,"x_min":0,"x_max":1389,"o":"m 0 0 l 347 0 l 347 521 l 521 521 l 521 0 l 868 0 l 868 521 l 694 521 l 694 694 l 0 694 l 0 0 m 868 -174 l 868 -347 l 1215 -347 l 1215 -174 l 1389 -174 l 1389 521 l 1042 521 l 1042 -174 l 868 -174 m 1042 694 l 1389 694 l 1389 868 l 1042 868 l 1042 694 "},"Ǎ":{"ha":1215,"x_min":0,"x_max":1042,"o":"m 0 0 l 347 0 l 347 347 l 694 347 l 694 0 l 1042 0 l 1042 694 l 868 694 l 868 868 l 174 868 l 174 694 l 0 694 l 0 0 m 0 1215 l 174 1215 l 174 1042 l 868 1042 l 868 1215 l 1042 1215 l 1042 1389 l 694 1389 l 694 1215 l 347 1215 l 347 1389 l 0 1389 l 0 1215 m 347 521 l 347 694 l 694 694 l 694 521 l 347 521 "},"ǎ":{"ha":1042,"x_min":0,"x_max":868,"o":"m 0 174 l 174 174 l 174 0 l 868 0 l 868 521 l 694 521 l 694 694 l 174 694 l 174 521 l 0 521 l 0 174 m 0 1042 l 174 1042 l 174 868 l 694 868 l 694 1042 l 868 1042 l 868 1215 l 519 1215 l 519 1042 l 349 1042 l 349 1215 l 0 1215 l 0 1042 m 347 174 l 347 521 l 521 521 l 521 174 l 347 174 "},"Ǐ":{"ha":521,"x_min":-349,"x_max":694,"o":"m -349 1215 l -175 1215 l -175 1042 l 521 1042 l 521 1215 l 694 1215 l 694 1389 l 346 1389 l 346 1215 l 0 1215 l 0 1389 l -349 1389 l -349 1215 m 0 0 l 347 0 l 347 868 l 0 868 l 0 0 "},"ǐ":{"ha":868,"x_min":-349,"x_max":694,"o":"m -349 868 l -175 868 l -175 694 l 521 694 l 521 868 l 694 868 l 694 1042 l 346 1042 l 346 868 l 0 868 l 0 1042 l -349 1042 l -349 868 m 0 0 l 347 0 l 347 521 l 0 521 l 0 0 "},"Ǒ":{"ha":1215,"x_min":0,"x_max":1042,"o":"m 0 174 l 174 174 l 174 0 l 868 0 l 868 174 l 1042 174 l 1042 694 l 868 694 l 868 868 l 174 868 l 174 694 l 0 694 l 0 174 m 0 1215 l 174 1215 l 174 1042 l 868 1042 l 868 1215 l 1042 1215 l 1042 1389 l 694 1389 l 694 1215 l 347 1215 l 347 1389 l 0 1389 l 0 1215 m 347 174 l 347 694 l 694 694 l 694 174 l 347 174 "},"ǒ":{"ha":1042,"x_min":0,"x_max":868,"o":"m 0 174 l 174 174 l 174 0 l 694 0 l 694 174 l 868 174 l 868 521 l 694 521 l 694 694 l 174 694 l 174 521 l 0 521 l 0 174 m 0 1042 l 174 1042 l 174 868 l 694 868 l 694 1042 l 868 1042 l 868 1215 l 519 1215 l 519 1042 l 349 1042 l 349 1215 l 0 1215 l 0 1042 m 347 174 l 347 521 l 521 521 l 521 174 l 347 174 "},"Ǔ":{"ha":1215,"x_min":0,"x_max":1042,"o":"m 0 174 l 174 174 l 174 0 l 868 0 l 868 174 l 1042 174 l 1042 868 l 694 868 l 694 174 l 347 174 l 347 868 l 0 868 l 0 174 m 0 1215 l 174 1215 l 174 1042 l 868 1042 l 868 1215 l 1042 1215 l 1042 1389 l 694 1389 l 694 1215 l 347 1215 l 347 1389 l 0 1389 l 0 1215 "},"ǔ":{"ha":1042,"x_min":0,"x_max":868,"o":"m 0 174 l 174 174 l 174 0 l 868 0 l 868 694 l 521 694 l 521 174 l 347 174 l 347 694 l 0 694 l 0 174 m 0 1042 l 174 1042 l 174 868 l 694 868 l 694 1042 l 868 1042 l 868 1215 l 519 1215 l 519 1042 l 349 1042 l 349 1215 l 0 1215 l 0 1042 "},"Ǖ":{"ha":1215,"x_min":0,"x_max":1042,"o":"m 0 174 l 174 174 l 174 0 l 868 0 l 868 174 l 1042 174 l 1042 868 l 694 868 l 694 174 l 347 174 l 347 868 l 0 868 l 0 174 m 0 1042 l 347 1042 l 347 1215 l 694 1215 l 694 1042 l 1042 1042 l 1042 1389 l 0 1389 l 0 1042 "},"ǖ":{"ha":1042,"x_min":0,"x_max":868,"o":"m 0 174 l 174 174 l 174 0 l 868 0 l 868 694 l 521 694 l 521 174 l 347 174 l 347 694 l 0 694 l 0 174 m 0 868 l 347 868 l 347 1042 l 521 1042 l 521 868 l 868 868 l 868 1215 l 0 1215 l 0 868 "},"Ǘ":{"ha":1215,"x_min":0,"x_max":1042,"o":"m 0 174 l 174 174 l 174 0 l 868 0 l 868 174 l 1042 174 l 1042 868 l 694 868 l 694 174 l 347 174 l 347 868 l 0 868 l 0 174 m 0 1042 l 347 1042 l 347 1215 l 521 1215 l 521 1389 l 694 1389 l 694 1563 l 347 1563 l 347 1389 l 174 1389 l 174 1215 l 0 1215 l 0 1042 m 694 1042 l 1042 1042 l 1042 1215 l 694 1215 l 694 1042 "},"ǘ":{"ha":1042,"x_min":0,"x_max":868,"o":"m 0 174 l 174 174 l 174 0 l 868 0 l 868 694 l 521 694 l 521 174 l 347 174 l 347 694 l 0 694 l 0 174 m 0 868 l 347 868 l 347 1042 l 521 1042 l 521 868 l 868 868 l 868 1042 l 521 1042 l 521 1215 l 694 1215 l 694 1389 l 347 1389 l 347 1215 l 174 1215 l 174 1042 l 0 1042 l 0 868 "},"Ǚ":{"ha":1215,"x_min":0,"x_max":1042,"o":"m 0 174 l 174 174 l 174 0 l 868 0 l 868 174 l 1042 174 l 1042 868 l 694 868 l 694 174 l 347 174 l 347 868 l 0 868 l 0 174 m 0 1042 l 347 1042 l 347 1215 l 694 1215 l 694 1042 l 1042 1042 l 1042 1215 l 868 1215 l 868 1563 l 1042 1563 l 1042 1736 l 694 1736 l 694 1563 l 347 1563 l 347 1736 l 0 1736 l 0 1563 l 174 1563 l 174 1215 l 0 1215 l 0 1042 "},"ǚ":{"ha":1042,"x_min":0,"x_max":868,"o":"m 0 174 l 174 174 l 174 0 l 868 0 l 868 694 l 521 694 l 521 174 l 347 174 l 347 694 l 0 694 l 0 174 m 0 868 l 347 868 l 347 1042 l 521 1042 l 521 868 l 868 868 l 868 1042 l 694 1042 l 694 1389 l 868 1389 l 868 1563 l 521 1563 l 521 1389 l 347 1389 l 347 1563 l 0 1563 l 0 1389 l 174 1389 l 174 1042 l 0 1042 l 0 868 "},"Ǜ":{"ha":1215,"x_min":0,"x_max":1042,"o":"m 0 174 l 174 174 l 174 0 l 868 0 l 868 174 l 1042 174 l 1042 868 l 694 868 l 694 174 l 347 174 l 347 868 l 0 868 l 0 174 m 0 1042 l 347 1042 l 347 1215 l 0 1215 l 0 1042 m 347 1389 l 521 1389 l 521 1215 l 694 1215 l 694 1042 l 1042 1042 l 1042 1215 l 868 1215 l 868 1389 l 694 1389 l 694 1563 l 347 1563 l 347 1389 "},"ǜ":{"ha":1042,"x_min":0,"x_max":868,"o":"m 0 174 l 174 174 l 174 0 l 868 0 l 868 694 l 521 694 l 521 174 l 347 174 l 347 694 l 0 694 l 0 174 m 0 868 l 347 868 l 347 1042 l 521 1042 l 521 868 l 868 868 l 868 1042 l 694 1042 l 694 1215 l 521 1215 l 521 1389 l 174 1389 l 174 1215 l 347 1215 l 347 1042 l 0 1042 l 0 868 "},"ǝ":{"ha":1042,"x_min":0,"x_max":868,"o":"m 0 0 l 694 0 l 694 174 l 868 174 l 868 521 l 694 521 l 694 694 l 0 694 l 0 521 l 174 521 l 174 347 l 0 347 l 0 0 m 347 180 l 347 347 l 521 347 l 521 180 l 347 180 "},"Ǟ":{"ha":1215,"x_min":0,"x_max":1042,"o":"m 0 0 l 347 0 l 347 347 l 694 347 l 694 0 l 1042 0 l 1042 694 l 868 694 l 868 868 l 174 868 l 174 694 l 0 694 l 0 0 m 0 1042 l 347 1042 l 347 1215 l 694 1215 l 694 1042 l 1042 1042 l 1042 1389 l 0 1389 l 0 1042 m 347 521 l 347 694 l 694 694 l 694 521 l 347 521 "},"ǟ":{"ha":1042,"x_min":0,"x_max":868,"o":"m 0 174 l 174 174 l 174 0 l 868 0 l 868 521 l 694 521 l 694 694 l 174 694 l 174 521 l 0 521 l 0 174 m 0 868 l 347 868 l 347 1042 l 521 1042 l 521 868 l 868 868 l 868 1215 l 0 1215 l 0 868 m 347 174 l 347 521 l 521 521 l 521 174 l 347 174 "},"Ǡ":{"ha":1042,"x_min":0,"x_max":1042,"o":"m 0 0 l 347 0 l 347 347 l 694 347 l 694 0 l 1042 0 l 1042 694 l 868 694 l 868 868 l 174 868 l 174 694 l 0 694 l 0 0 m 174 1389 l 868 1389 l 868 1563 l 174 1563 l 174 1389 m 347 521 l 347 694 l 694 694 l 694 521 l 347 521 m 347 1042 l 694 1042 l 694 1215 l 347 1215 l 347 1042 "},"ǡ":{"ha":1042,"x_min":0,"x_max":868,"o":"m 0 174 l 174 174 l 174 0 l 868 0 l 868 521 l 694 521 l 694 694 l 174 694 l 174 521 l 0 521 l 0 174 m 174 1215 l 868 1215 l 868 1389 l 174 1389 l 174 1215 m 347 174 l 347 521 l 521 521 l 521 174 l 347 174 m 347 868 l 694 868 l 694 1042 l 347 1042 l 347 868 "},"Ǣ":{"ha":1910,"x_min":0,"x_max":1736,"o":"m 0 0 l 347 0 l 347 347 l 694 347 l 694 0 l 1736 0 l 1736 174 l 1042 174 l 1042 347 l 1563 347 l 1563 521 l 1042 521 l 1042 694 l 1736 694 l 1736 868 l 174 868 l 174 694 l 0 694 l 0 0 m 347 521 l 347 694 l 694 694 l 694 521 l 347 521 m 521 1042 l 1215 1042 l 1215 1215 l 521 1215 l 521 1042 "},"ǣ":{"ha":1736,"x_min":0,"x_max":1563,"o":"m 0 174 l 174 174 l 174 0 l 1563 0 l 1563 174 l 1389 174 l 1389 347 l 1563 347 l 1563 694 l 868 694 l 868 521 l 694 521 l 694 694 l 174 694 l 174 521 l 0 521 l 0 174 m 347 174 l 347 521 l 521 521 l 521 174 l 347 174 m 347 868 l 1215 868 l 1215 1042 l 347 1042 l 347 868 m 1042 354 l 1042 514 l 1215 514 l 1215 354 l 1042 354 "},"Ǥ":{"ha":1215,"x_min":0,"x_max":1042,"o":"m 0 174 l 174 174 l 174 0 l 1042 0 l 1042 694 l 694 694 l 694 521 l 521 521 l 521 347 l 694 347 l 694 174 l 347 174 l 347 694 l 521 694 l 521 868 l 174 868 l 174 694 l 0 694 l 0 174 "},"ǥ":{"ha":1042,"x_min":0,"x_max":868,"o":"m 0 174 l 174 174 l 174 0 l 521 0 l 521 -174 l 174 -174 l 174 -347 l 868 -347 l 868 521 l 694 521 l 694 694 l 174 694 l 174 521 l 0 521 l 0 174 m 347 174 l 347 521 l 521 521 l 521 174 l 347 174 "},"Ǧ":{"ha":1215,"x_min":0,"x_max":1042,"o":"m 0 174 l 174 174 l 174 0 l 1042 0 l 1042 521 l 521 521 l 521 347 l 694 347 l 694 174 l 347 174 l 347 694 l 1042 694 l 1042 868 l 174 868 l 174 694 l 0 694 l 0 174 m 0 1215 l 174 1215 l 174 1042 l 868 1042 l 868 1215 l 1042 1215 l 1042 1389 l 694 1389 l 694 1215 l 347 1215 l 347 1389 l 0 1389 l 0 1215 "},"ǧ":{"ha":1042,"x_min":0,"x_max":868,"o":"m 0 174 l 174 174 l 174 0 l 521 0 l 521 -174 l 174 -174 l 174 -347 l 694 -347 l 694 -174 l 868 -174 l 868 521 l 694 521 l 694 694 l 174 694 l 174 521 l 0 521 l 0 174 m 0 1042 l 174 1042 l 174 868 l 694 868 l 694 1042 l 868 1042 l 868 1215 l 519 1215 l 519 1042 l 349 1042 l 349 1215 l 0 1215 l 0 1042 m 347 174 l 347 521 l 521 521 l 521 174 l 347 174 "},"Ǩ":{"ha":1215,"x_min":0,"x_max":1042,"o":"m 0 0 l 347 0 l 347 347 l 521 347 l 521 174 l 694 174 l 694 0 l 1042 0 l 1042 174 l 868 174 l 868 347 l 694 347 l 694 521 l 868 521 l 868 694 l 1042 694 l 1042 868 l 694 868 l 694 694 l 521 694 l 521 521 l 347 521 l 347 868 l 0 868 l 0 0 m 0 1215 l 174 1215 l 174 1042 l 868 1042 l 868 1215 l 1042 1215 l 1042 1389 l 694 1389 l 694 1215 l 347 1215 l 347 1389 l 0 1389 l 0 1215 "},"ǩ":{"ha":1042,"x_min":0,"x_max":868,"o":"m 0 0 l 347 0 l 347 347 l 521 347 l 521 0 l 868 0 l 868 347 l 694 347 l 694 521 l 868 521 l 868 694 l 521 694 l 521 521 l 347 521 l 347 868 l 694 868 l 694 1042 l 868 1042 l 868 1215 l 519 1215 l 519 1042 l 349 1042 l 349 1215 l 0 1215 l 0 1042 l 174 1042 l 174 868 l 0 868 l 0 0 "},"Ǫ":{"ha":1215,"x_min":0,"x_max":1042,"o":"m 0 174 l 174 174 l 174 0 l 347 0 l 347 -174 l 521 -174 l 521 -347 l 868 -347 l 868 -174 l 694 -174 l 694 0 l 868 0 l 868 174 l 1042 174 l 1042 694 l 868 694 l 868 868 l 174 868 l 174 694 l 0 694 l 0 174 m 347 174 l 347 694 l 694 694 l 694 174 l 347 174 "},"ǫ":{"ha":1042,"x_min":0,"x_max":868,"o":"m 0 174 l 174 174 l 174 -174 l 347 -174 l 347 -347 l 694 -347 l 694 -174 l 521 -174 l 521 0 l 694 0 l 694 174 l 868 174 l 868 521 l 694 521 l 694 694 l 174 694 l 174 521 l 0 521 l 0 174 m 347 174 l 347 521 l 521 521 l 521 174 l 347 174 "},"Ǭ":{"ha":1215,"x_min":0,"x_max":1042,"o":"m 0 174 l 174 174 l 174 0 l 347 0 l 347 -174 l 521 -174 l 521 -347 l 868 -347 l 868 -174 l 694 -174 l 694 0 l 868 0 l 868 174 l 1042 174 l 1042 694 l 868 694 l 868 868 l 174 868 l 174 694 l 0 694 l 0 174 m 174 1042 l 868 1042 l 868 1215 l 174 1215 l 174 1042 m 347 174 l 347 694 l 694 694 l 694 174 l 347 174 "},"ǭ":{"ha":1042,"x_min":0,"x_max":868,"o":"m 0 174 l 174 174 l 174 -174 l 347 -174 l 347 -347 l 694 -347 l 694 -174 l 521 -174 l 521 0 l 694 0 l 694 174 l 868 174 l 868 521 l 694 521 l 694 694 l 174 694 l 174 521 l 0 521 l 0 174 m 0 868 l 868 868 l 868 1042 l 0 1042 l 0 868 m 347 174 l 347 521 l 521 521 l 521 174 l 347 174 "},"Ǯ":{"ha":1042,"x_min":0,"x_max":1042,"o":"m 0 0 l 694 0 l 694 174 l 868 174 l 868 347 l 694 347 l 694 694 l 868 694 l 868 868 l 0 868 l 0 694 l 347 694 l 347 521 l 174 521 l 174 347 l 521 347 l 521 174 l 0 174 l 0 0 m 0 1215 l 174 1215 l 174 1042 l 868 1042 l 868 1215 l 1042 1215 l 1042 1389 l 694 1389 l 694 1215 l 347 1215 l 347 1389 l 0 1389 l 0 1215 "},"ǯ":{"ha":1042,"x_min":0,"x_max":868,"o":"m 0 0 l 0 -174 l 694 -174 l 694 0 l 868 0 l 868 174 l 694 174 l 694 521 l 868 521 l 868 694 l 0 694 l 0 521 l 347 521 l 347 347 l 174 347 l 174 174 l 521 174 l 521 0 l 0 0 m 0 1042 l 174 1042 l 174 868 l 694 868 l 694 1042 l 868 1042 l 868 1215 l 519 1215 l 519 1042 l 349 1042 l 349 1215 l 0 1215 l 0 1042 "},"ǰ":{"ha":694,"x_min":-175,"x_max":868,"o":"m -175 868 l -1 868 l -1 694 l 694 694 l 694 868 l 868 868 l 868 1042 l 519 1042 l 519 868 l 174 868 l 174 1042 l -175 1042 l -175 868 m 0 -174 l 0 -347 l 347 -347 l 347 -174 l 521 -174 l 521 521 l 174 521 l 174 -174 l 0 -174 "},"Ǳ":{"ha":2431,"x_min":0,"x_max":2257,"o":"m 0 0 l 868 0 l 868 174 l 1042 174 l 1042 694 l 868 694 l 868 868 l 0 868 l 0 0 m 347 174 l 347 694 l 694 694 l 694 174 l 347 174 m 1215 0 l 2257 0 l 2257 174 l 1736 174 l 1736 347 l 1910 347 l 1910 521 l 2083 521 l 2083 694 l 2257 694 l 2257 868 l 1215 868 l 1215 694 l 1736 694 l 1736 521 l 1563 521 l 1563 347 l 1389 347 l 1389 174 l 1215 174 l 1215 0 "},"ǲ":{"ha":2257,"x_min":0,"x_max":2083,"o":"m 0 0 l 868 0 l 868 174 l 1042 174 l 1042 694 l 868 694 l 868 868 l 0 868 l 0 0 m 347 174 l 347 694 l 694 694 l 694 174 l 347 174 m 1215 0 l 2083 0 l 2083 174 l 1736 174 l 1736 347 l 1910 347 l 1910 521 l 2083 521 l 2083 694 l 1215 694 l 1215 521 l 1563 521 l 1563 347 l 1389 347 l 1389 174 l 1215 174 l 1215 0 "},"ǳ":{"ha":2083,"x_min":0,"x_max":1910,"o":"m 0 174 l 174 174 l 174 0 l 868 0 l 868 868 l 521 868 l 521 694 l 174 694 l 174 521 l 0 521 l 0 174 m 347 174 l 347 521 l 521 521 l 521 174 l 347 174 m 1042 0 l 1910 0 l 1910 174 l 1563 174 l 1563 347 l 1736 347 l 1736 521 l 1910 521 l 1910 694 l 1042 694 l 1042 521 l 1389 521 l 1389 347 l 1215 347 l 1215 174 l 1042 174 l 1042 0 "},"Ǵ":{"ha":1215,"x_min":0,"x_max":1042,"o":"m 0 174 l 174 174 l 174 0 l 1042 0 l 1042 521 l 521 521 l 521 347 l 694 347 l 694 174 l 347 174 l 347 694 l 1042 694 l 1042 868 l 174 868 l 174 694 l 0 694 l 0 174 m 347 1042 l 694 1042 l 694 1215 l 868 1215 l 868 1389 l 521 1389 l 521 1215 l 347 1215 l 347 1042 "},"ǵ":{"ha":1042,"x_min":0,"x_max":868,"o":"m 0 174 l 174 174 l 174 0 l 521 0 l 521 -174 l 174 -174 l 174 -347 l 694 -347 l 694 -174 l 868 -174 l 868 521 l 694 521 l 694 694 l 174 694 l 174 521 l 0 521 l 0 174 m 347 174 l 347 521 l 521 521 l 521 174 l 347 174 m 347 868 l 694 868 l 694 1042 l 868 1042 l 868 1215 l 521 1215 l 521 1042 l 347 1042 l 347 868 "},"Ƕ":{"ha":1736,"x_min":0,"x_max":1563,"o":"m 0 0 l 347 0 l 347 347 l 694 347 l 694 174 l 868 174 l 868 0 l 1389 0 l 1389 174 l 1563 174 l 1563 694 l 1215 694 l 1215 174 l 1042 174 l 1042 868 l 694 868 l 694 521 l 347 521 l 347 868 l 0 868 l 0 0 "},"Ƿ":{"ha":1215,"x_min":0,"x_max":1042,"o":"m 0 -347 l 694 -347 l 694 -174 l 868 -174 l 868 0 l 1042 0 l 1042 521 l 868 521 l 868 694 l 0 694 l 0 -347 m 347 -174 l 347 521 l 694 521 l 694 0 l 521 0 l 521 -174 l 347 -174 "},"Ǹ":{"ha":1215,"x_min":0,"x_max":1042,"o":"m 0 0 l 347 0 l 347 347 l 521 347 l 521 174 l 694 174 l 694 0 l 1042 0 l 1042 868 l 694 868 l 694 521 l 521 521 l 521 694 l 347 694 l 347 868 l 0 868 l 0 0 m 174 1215 l 347 1215 l 347 1042 l 694 1042 l 694 1215 l 521 1215 l 521 1389 l 174 1389 l 174 1215 "},"ǹ":{"ha":1042,"x_min":0,"x_max":868,"o":"m 0 0 l 347 0 l 347 521 l 521 521 l 521 0 l 868 0 l 868 521 l 694 521 l 694 694 l 0 694 l 0 0 m 0 1042 l 174 1042 l 174 868 l 521 868 l 521 1042 l 347 1042 l 347 1215 l 0 1215 l 0 1042 "},"Ǻ":{"ha":1215,"x_min":0,"x_max":1042,"o":"m 0 0 l 347 0 l 347 347 l 694 347 l 694 0 l 1042 0 l 1042 694 l 868 694 l 868 1042 l 1042 1042 l 1042 1215 l 868 1215 l 868 1389 l 1042 1389 l 1042 1563 l 868 1563 l 868 1389 l 174 1389 l 174 1215 l 0 1215 l 0 1042 l 174 1042 l 174 694 l 0 694 l 0 0 m 347 521 l 347 694 l 694 694 l 694 521 l 347 521 m 347 1042 l 347 1215 l 694 1215 l 694 1042 l 347 1042 "},"ǻ":{"ha":1042,"x_min":0,"x_max":868,"o":"m 0 174 l 174 174 l 174 0 l 868 0 l 868 521 l 694 521 l 694 868 l 868 868 l 868 1042 l 694 1042 l 694 1215 l 868 1215 l 868 1389 l 694 1389 l 694 1215 l 174 1215 l 174 1042 l 0 1042 l 0 868 l 174 868 l 174 521 l 0 521 l 0 174 m 347 174 l 347 521 l 521 521 l 521 174 l 347 174 m 347 868 l 347 1042 l 521 1042 l 521 868 l 347 868 "},"Ǽ":{"ha":1910,"x_min":0,"x_max":1736,"o":"m 0 0 l 347 0 l 347 347 l 694 347 l 694 0 l 1736 0 l 1736 174 l 1042 174 l 1042 347 l 1563 347 l 1563 521 l 1042 521 l 1042 694 l 1736 694 l 1736 868 l 174 868 l 174 694 l 0 694 l 0 0 m 347 521 l 347 694 l 694 694 l 694 521 l 347 521 m 694 1042 l 1042 1042 l 1042 1215 l 1215 1215 l 1215 1389 l 868 1389 l 868 1215 l 694 1215 l 694 1042 "},"ǽ":{"ha":1736,"x_min":0,"x_max":1563,"o":"m 0 174 l 174 174 l 174 0 l 1563 0 l 1563 174 l 1389 174 l 1389 347 l 1563 347 l 1563 694 l 868 694 l 868 521 l 694 521 l 694 694 l 174 694 l 174 521 l 0 521 l 0 174 m 347 174 l 347 521 l 521 521 l 521 174 l 347 174 m 694 868 l 1042 868 l 1042 1042 l 1215 1042 l 1215 1215 l 868 1215 l 868 1042 l 694 1042 l 694 868 m 1042 354 l 1042 514 l 1215 514 l 1215 354 l 1042 354 "},"Ǿ":{"ha":1389,"x_min":0,"x_max":1213,"o":"m 0 174 l 174 174 l 174 0 l 1039 0 l 1039 174 l 1213 174 l 1213 694 l 1039 694 l 1039 868 l 174 868 l 174 694 l 0 694 l 0 174 m 347 347 l 347 688 l 694 688 l 694 521 l 521 521 l 521 347 l 347 347 m 347 1042 l 694 1042 l 694 1215 l 868 1215 l 868 1389 l 521 1389 l 521 1215 l 347 1215 l 347 1042 m 528 174 l 528 347 l 701 347 l 701 521 l 861 521 l 861 174 l 528 174 "},"ǿ":{"ha":1215,"x_min":0,"x_max":1042,"o":"m 0 174 l 174 174 l 174 0 l 694 0 l 694 174 l 1042 174 l 1042 521 l 868 521 l 868 694 l 347 694 l 347 521 l 0 521 l 0 174 m 347 347 l 347 514 l 521 514 l 521 347 l 694 347 l 694 180 l 521 180 l 521 347 l 347 347 m 347 868 l 694 868 l 694 1042 l 868 1042 l 868 1215 l 521 1215 l 521 1042 l 347 1042 l 347 868 "},"ˆ":{"ha":1042,"x_min":0,"x_max":868,"o":"m 0 521 l 349 521 l 349 694 l 519 694 l 519 521 l 868 521 l 868 694 l 694 694 l 694 868 l 174 868 l 174 694 l 0 694 l 0 521 "},"ˇ":{"ha":1042,"x_min":0,"x_max":868,"o":"m 0 694 l 174 694 l 174 521 l 694 521 l 694 694 l 868 694 l 868 868 l 519 868 l 519 694 l 349 694 l 349 868 l 0 868 l 0 694 "},"ˉ":{"ha":694,"x_min":0,"x_max":521,"o":"m 0 694 l 521 694 l 521 868 l 0 868 l 0 694 "},"˘":{"ha":1042,"x_min":0,"x_max":868,"o":"m 0 694 l 174 694 l 174 521 l 694 521 l 694 694 l 868 694 l 868 868 l 519 868 l 519 694 l 349 694 l 349 868 l 0 868 l 0 694 "},"˙":{"ha":521,"x_min":0,"x_max":347,"o":"m 0 347 l 347 347 l 347 521 l 0 521 l 0 347 "},"˚":{"ha":1042,"x_min":0,"x_max":868,"o":"m 0 521 l 174 521 l 174 347 l 694 347 l 694 521 l 868 521 l 868 694 l 694 694 l 694 868 l 174 868 l 174 694 l 0 694 l 0 521 m 347 521 l 347 694 l 521 694 l 521 521 l 347 521 "},"˛":{"ha":694,"x_min":0,"x_max":521,"o":"m 0 0 l 0 -174 l 174 -174 l 174 -347 l 521 -347 l 521 -174 l 347 -174 l 347 0 l 521 0 l 521 174 l 174 174 l 174 0 l 0 0 "},"˜":{"ha":1215,"x_min":0,"x_max":1042,"o":"m 0 347 l 347 347 l 347 521 l 521 521 l 521 694 l 174 694 l 174 521 l 0 521 l 0 347 m 521 347 l 868 347 l 868 521 l 1042 521 l 1042 694 l 694 694 l 694 521 l 521 521 l 521 347 "},"˝":{"ha":1042,"x_min":0,"x_max":869,"o":"m 0 347 l 349 347 l 349 694 l 0 694 l 0 347 m 521 347 l 869 347 l 869 694 l 521 694 l 521 347 "},"ͺ":{"ha":521,"x_min":0,"x_max":347,"o":"m 0 0 l 0 -174 l 174 -174 l 174 0 l 0 0 m 174 -174 l 174 -347 l 347 -347 l 347 -174 l 174 -174 "},"΄":{"ha":694,"x_min":0,"x_max":521,"o":"m 0 521 l 347 521 l 347 694 l 521 694 l 521 868 l 174 868 l 174 694 l 0 694 l 0 521 "},"΅":{"ha":1042,"x_min":0,"x_max":868,"o":"m 0 521 l 347 521 l 347 694 l 521 694 l 521 868 l 694 868 l 694 1042 l 347 1042 l 347 868 l 174 868 l 174 694 l 0 694 l 0 521 m 521 521 l 868 521 l 868 694 l 521 694 l 521 521 "},"Ά":{"ha":1736,"x_min":0,"x_max":1563,"o":"m 0 521 l 347 521 l 347 694 l 521 694 l 521 868 l 174 868 l 174 694 l 0 694 l 0 521 m 521 0 l 868 0 l 868 347 l 1215 347 l 1215 0 l 1563 0 l 1563 694 l 1389 694 l 1389 868 l 694 868 l 694 694 l 521 694 l 521 0 m 868 521 l 868 694 l 1215 694 l 1215 521 l 868 521 "},"·":{"ha":521,"x_min":0,"x_max":347,"o":"m 0 347 l 347 347 l 347 521 l 0 521 l 0 347 "},"Έ":{"ha":1563,"x_min":0,"x_max":1389,"o":"m 0 521 l 347 521 l 347 694 l 521 694 l 521 0 l 1389 0 l 1389 174 l 868 174 l 868 347 l 1215 347 l 1215 521 l 868 521 l 868 694 l 1389 694 l 1389 868 l 174 868 l 174 694 l 0 694 l 0 521 "},"Ή":{"ha":1736,"x_min":0,"x_max":1563,"o":"m 0 521 l 347 521 l 347 694 l 521 694 l 521 0 l 868 0 l 868 347 l 1215 347 l 1215 0 l 1563 0 l 1563 868 l 1215 868 l 1215 521 l 868 521 l 868 868 l 174 868 l 174 694 l 0 694 l 0 521 "},"Ί":{"ha":1042,"x_min":0,"x_max":868,"o":"m 0 521 l 347 521 l 347 694 l 521 694 l 521 0 l 868 0 l 868 868 l 174 868 l 174 694 l 0 694 l 0 521 "},"Ό":{"ha":1736,"x_min":0,"x_max":1563,"o":"m 0 521 l 347 521 l 347 694 l 521 694 l 521 868 l 174 868 l 174 694 l 0 694 l 0 521 m 521 174 l 694 174 l 694 0 l 1389 0 l 1389 174 l 1563 174 l 1563 694 l 1389 694 l 1389 868 l 694 868 l 694 694 l 521 694 l 521 174 m 868 174 l 868 694 l 1215 694 l 1215 174 l 868 174 "},"Ύ":{"ha":1736,"x_min":0,"x_max":1563,"o":"m 0 521 l 347 521 l 347 694 l 521 694 l 521 521 l 694 521 l 694 347 l 868 347 l 868 0 l 1215 0 l 1215 347 l 1389 347 l 1389 521 l 1563 521 l 1563 868 l 1215 868 l 1215 521 l 868 521 l 868 868 l 174 868 l 174 694 l 0 694 l 0 521 "},"Ώ":{"ha":1910,"x_min":0,"x_max":1736,"o":"m 0 521 l 347 521 l 347 694 l 521 694 l 521 868 l 174 868 l 174 694 l 0 694 l 0 521 m 521 0 l 1042 0 l 1042 347 l 868 347 l 868 694 l 1389 694 l 1389 347 l 1215 347 l 1215 0 l 1736 0 l 1736 174 l 1563 174 l 1563 347 l 1736 347 l 1736 694 l 1563 694 l 1563 868 l 694 868 l 694 694 l 521 694 l 521 347 l 694 347 l 694 174 l 521 174 l 521 0 "},"ΐ":{"ha":1042,"x_min":0,"x_max":868,"o":"m 0 521 l 174 521 l 174 382 l 347 382 l 347 174 l 521 174 l 521 0 l 868 0 l 868 174 l 694 174 l 694 521 l 868 521 l 868 694 l 694 694 l 694 868 l 868 868 l 868 1042 l 521 1042 l 521 868 l 174 868 l 174 694 l 0 694 l 0 521 m 347 521 l 347 694 l 521 694 l 521 521 l 347 521 "},"Α":{"ha":1215,"x_min":0,"x_max":1042,"o":"m 0 0 l 347 0 l 347 347 l 694 347 l 694 0 l 1042 0 l 1042 694 l 868 694 l 868 868 l 174 868 l 174 694 l 0 694 l 0 0 m 347 521 l 347 694 l 694 694 l 694 521 l 347 521 "},"Β":{"ha":1215,"x_min":0,"x_max":1042,"o":"m 0 0 l 868 0 l 868 174 l 1042 174 l 1042 347 l 868 347 l 868 521 l 1042 521 l 1042 694 l 868 694 l 868 868 l 0 868 l 0 0 m 347 174 l 347 347 l 694 347 l 694 174 l 347 174 m 347 521 l 347 694 l 694 694 l 694 521 l 347 521 "},"Γ":{"ha":1042,"x_min":0,"x_max":868,"o":"m 0 0 l 347 0 l 347 694 l 868 694 l 868 868 l 0 868 l 0 0 "},"Δ":{"ha":1389,"x_min":0,"x_max":1215,"o":"m 0 0 l 1215 0 l 1215 347 l 1042 347 l 1042 694 l 868 694 l 868 868 l 347 868 l 347 694 l 174 694 l 174 347 l 0 347 l 0 0 m 347 174 l 347 347 l 514 347 l 514 688 l 694 688 l 694 347 l 861 347 l 861 174 l 347 174 "},"Ε":{"ha":1042,"x_min":0,"x_max":868,"o":"m 0 0 l 868 0 l 868 174 l 347 174 l 347 347 l 694 347 l 694 521 l 347 521 l 347 694 l 868 694 l 868 868 l 0 868 l 0 0 "},"Ζ":{"ha":1215,"x_min":0,"x_max":1042,"o":"m 0 0 l 1042 0 l 1042 174 l 521 174 l 521 347 l 694 347 l 694 521 l 868 521 l 868 694 l 1042 694 l 1042 868 l 0 868 l 0 694 l 521 694 l 521 521 l 347 521 l 347 347 l 174 347 l 174 174 l 0 174 l 0 0 "},"Η":{"ha":1215,"x_min":0,"x_max":1042,"o":"m 0 0 l 347 0 l 347 347 l 694 347 l 694 0 l 1042 0 l 1042 868 l 694 868 l 694 521 l 347 521 l 347 868 l 0 868 l 0 0 "},"Θ":{"ha":1215,"x_min":0,"x_max":1042,"o":"m 0 174 l 174 174 l 174 0 l 868 0 l 868 174 l 1042 174 l 1042 694 l 868 694 l 868 868 l 174 868 l 174 694 l 0 694 l 0 174 m 347 174 l 347 347 l 694 347 l 694 174 l 347 174 m 347 521 l 347 694 l 694 694 l 694 521 l 347 521 "},"Ι":{"ha":521,"x_min":0,"x_max":347,"o":"m 0 0 l 347 0 l 347 868 l 0 868 l 0 0 "},"Κ":{"ha":1215,"x_min":0,"x_max":1042,"o":"m 0 0 l 347 0 l 347 347 l 521 347 l 521 174 l 694 174 l 694 0 l 1042 0 l 1042 174 l 868 174 l 868 347 l 694 347 l 694 521 l 868 521 l 868 694 l 1042 694 l 1042 868 l 694 868 l 694 694 l 521 694 l 521 521 l 347 521 l 347 868 l 0 868 l 0 0 "},"Λ":{"ha":1389,"x_min":0,"x_max":1215,"o":"m 0 0 l 347 0 l 347 347 l 521 347 l 521 694 l 694 694 l 694 347 l 868 347 l 868 0 l 1215 0 l 1215 347 l 1042 347 l 1042 694 l 868 694 l 868 868 l 347 868 l 347 694 l 174 694 l 174 347 l 0 347 l 0 0 "},"Μ":{"ha":1389,"x_min":0,"x_max":1215,"o":"m 0 0 l 347 0 l 347 347 l 521 347 l 521 174 l 694 174 l 694 347 l 868 347 l 868 0 l 1215 0 l 1215 868 l 868 868 l 868 694 l 694 694 l 694 521 l 521 521 l 521 694 l 347 694 l 347 868 l 0 868 l 0 0 "},"Ν":{"ha":1215,"x_min":0,"x_max":1042,"o":"m 0 0 l 347 0 l 347 347 l 521 347 l 521 174 l 694 174 l 694 0 l 1042 0 l 1042 868 l 694 868 l 694 521 l 521 521 l 521 694 l 347 694 l 347 868 l 0 868 l 0 0 "},"Ξ":{"ha":1042,"x_min":0,"x_max":868,"o":"m 0 0 l 868 0 l 868 174 l 0 174 l 0 0 m 0 694 l 868 694 l 868 868 l 0 868 l 0 694 m 174 347 l 694 347 l 694 521 l 174 521 l 174 347 "},"Ο":{"ha":1215,"x_min":0,"x_max":1042,"o":"m 0 174 l 174 174 l 174 0 l 868 0 l 868 174 l 1042 174 l 1042 694 l 868 694 l 868 868 l 174 868 l 174 694 l 0 694 l 0 174 m 347 174 l 347 694 l 694 694 l 694 174 l 347 174 "},"Π":{"ha":1215,"x_min":0,"x_max":1042,"o":"m 0 0 l 347 0 l 347 694 l 694 694 l 694 0 l 1042 0 l 1042 868 l 0 868 l 0 0 "},"Ρ":{"ha":1215,"x_min":0,"x_max":1042,"o":"m 0 0 l 347 0 l 347 347 l 868 347 l 868 521 l 1042 521 l 1042 694 l 868 694 l 868 868 l 0 868 l 0 0 m 347 521 l 347 694 l 694 694 l 694 521 l 347 521 "},"Σ":{"ha":1215,"x_min":0,"x_max":1042,"o":"m 0 0 l 1042 0 l 1042 347 l 701 347 l 701 521 l 1042 521 l 1042 868 l 0 868 l 0 694 l 174 694 l 174 521 l 347 521 l 347 347 l 174 347 l 174 174 l 0 174 l 0 0 m 521 174 l 521 347 l 694 347 l 694 174 l 521 174 m 521 521 l 521 694 l 694 694 l 694 521 l 521 521 "},"Τ":{"ha":1215,"x_min":0,"x_max":1042,"o":"m 0 694 l 347 694 l 347 0 l 694 0 l 694 694 l 1042 694 l 1042 868 l 0 868 l 0 694 "},"Υ":{"ha":1215,"x_min":0,"x_max":1042,"o":"m 0 521 l 174 521 l 174 347 l 347 347 l 347 0 l 694 0 l 694 347 l 868 347 l 868 521 l 1042 521 l 1042 868 l 694 868 l 694 521 l 347 521 l 347 868 l 0 868 l 0 521 "},"Φ":{"ha":1736,"x_min":0,"x_max":1563,"o":"m 0 347 l 174 347 l 174 174 l 347 174 l 347 0 l 521 0 l 521 -174 l 1042 -174 l 1042 0 l 1215 0 l 1215 174 l 1389 174 l 1389 347 l 1563 347 l 1563 521 l 1389 521 l 1389 694 l 1215 694 l 1215 868 l 1042 868 l 1042 1042 l 521 1042 l 521 868 l 347 868 l 347 694 l 174 694 l 174 521 l 0 521 l 0 347 m 354 347 l 354 521 l 528 521 l 528 694 l 694 694 l 694 174 l 528 174 l 528 347 l 354 347 m 868 174 l 868 694 l 1035 694 l 1035 521 l 1208 521 l 1208 347 l 1035 347 l 1035 174 l 868 174 "},"Χ":{"ha":1215,"x_min":0,"x_max":1042,"o":"m 0 0 l 347 0 l 347 174 l 694 174 l 694 0 l 1042 0 l 1042 174 l 868 174 l 868 347 l 694 347 l 694 521 l 868 521 l 868 694 l 1042 694 l 1042 868 l 694 868 l 694 694 l 347 694 l 347 868 l 0 868 l 0 694 l 174 694 l 174 521 l 347 521 l 347 347 l 174 347 l 174 174 l 0 174 l 0 0 "},"Ψ":{"ha":1563,"x_min":0,"x_max":1389,"o":"m 0 521 l 174 521 l 174 347 l 521 347 l 521 0 l 868 0 l 868 347 l 1215 347 l 1215 521 l 1389 521 l 1389 868 l 1042 868 l 1042 521 l 868 521 l 868 868 l 521 868 l 521 521 l 347 521 l 347 868 l 0 868 l 0 521 "},"Ω":{"ha":1389,"x_min":0,"x_max":1215,"o":"m 0 0 l 521 0 l 521 347 l 347 347 l 347 694 l 868 694 l 868 347 l 694 347 l 694 0 l 1215 0 l 1215 174 l 1042 174 l 1042 347 l 1215 347 l 1215 694 l 1042 694 l 1042 868 l 174 868 l 174 694 l 0 694 l 0 347 l 174 347 l 174 174 l 0 174 l 0 0 "},"Ϊ":{"ha":521,"x_min":-349,"x_max":696,"o":"m -349 1042 l 0 1042 l 0 1389 l -349 1389 l -349 1042 m 0 0 l 347 0 l 347 868 l 0 868 l 0 0 m 347 1042 l 696 1042 l 696 1389 l 347 1389 l 347 1042 "},"Ϋ":{"ha":1215,"x_min":-1,"x_max":1042,"o":"m -1 1042 l 347 1042 l 347 1389 l -1 1389 l -1 1042 m 0 521 l 174 521 l 174 347 l 347 347 l 347 0 l 694 0 l 694 347 l 868 347 l 868 521 l 1042 521 l 1042 868 l 694 868 l 694 521 l 347 521 l 347 868 l 0 868 l 0 521 m 693 1042 l 1042 1042 l 1042 1389 l 693 1389 l 693 1042 "},"ά":{"ha":1042,"x_min":0,"x_max":868,"o":"m 0 174 l 174 174 l 174 0 l 868 0 l 868 521 l 694 521 l 694 694 l 174 694 l 174 521 l 0 521 l 0 174 m 174 868 l 521 868 l 521 1215 l 174 1215 l 174 868 m 347 174 l 347 521 l 521 521 l 521 174 l 347 174 "},"έ":{"ha":1215,"x_min":0,"x_max":1042,"o":"m 0 0 l 174 0 l 174 -174 l 868 -174 l 868 0 l 1042 0 l 1042 174 l 694 174 l 694 0 l 347 0 l 347 174 l 521 174 l 521 347 l 347 347 l 347 521 l 694 521 l 694 347 l 1042 347 l 1042 521 l 868 521 l 868 694 l 174 694 l 174 521 l 0 521 l 0 347 l 174 347 l 174 174 l 0 174 l 0 0 m 174 868 l 521 868 l 521 1215 l 174 1215 l 174 868 "},"ή":{"ha":1042,"x_min":0,"x_max":868,"o":"m 0 0 l 347 0 l 347 521 l 521 521 l 521 -174 l 868 -174 l 868 521 l 694 521 l 694 694 l 0 694 l 0 0 m 174 868 l 521 868 l 521 1215 l 174 1215 l 174 868 "},"ί":{"ha":694,"x_min":0,"x_max":521,"o":"m 0 174 l 174 174 l 174 0 l 521 0 l 521 174 l 347 174 l 347 694 l 0 694 l 0 174 m 0 868 l 347 868 l 347 1215 l 0 1215 l 0 868 "},"ΰ":{"ha":1042,"x_min":0,"x_max":868,"o":"m 0 174 l 0 694 l 347 694 l 347 174 l 521 174 l 521 694 l 868 694 l 868 0 l 174 0 l 174 174 l 0 174 m 0 868 l 347 868 l 347 1042 l 521 1042 l 521 868 l 868 868 l 868 1042 l 521 1042 l 521 1215 l 694 1215 l 694 1389 l 347 1389 l 347 1215 l 174 1215 l 174 1042 l 0 1042 l 0 868 "},"α":{"ha":1042,"x_min":0,"x_max":868,"o":"m 0 174 l 174 174 l 174 0 l 868 0 l 868 521 l 694 521 l 694 694 l 174 694 l 174 521 l 0 521 l 0 174 m 347 174 l 347 521 l 521 521 l 521 174 l 347 174 "},"β":{"ha":1215,"x_min":0,"x_max":1039,"o":"m 0 0 l 347 0 l 347 694 l 694 694 l 694 521 l 521 521 l 521 347 l 694 347 l 694 174 l 521 174 l 521 0 l 865 0 l 865 174 l 1039 174 l 1039 347 l 865 347 l 865 521 l 1039 521 l 1039 694 l 865 694 l 865 868 l 171 868 l 171 694 l 0 694 l 0 0 "},"γ":{"ha":1042,"x_min":0,"x_max":868,"o":"m 0 174 l 174 174 l 174 0 l 521 0 l 521 -174 l 174 -174 l 174 -347 l 694 -347 l 694 -174 l 868 -174 l 868 694 l 521 694 l 521 174 l 347 174 l 347 694 l 0 694 l 0 174 "},"δ":{"ha":1042,"x_min":0,"x_max":868,"o":"m 0 174 l 174 174 l 174 0 l 694 0 l 694 174 l 868 174 l 868 347 l 694 347 l 694 521 l 521 521 l 521 694 l 868 694 l 868 868 l 0 868 l 0 694 l 174 694 l 174 347 l 0 347 l 0 174 m 347 174 l 347 347 l 521 347 l 521 174 l 347 174 "},"ε":{"ha":1215,"x_min":0,"x_max":1042,"o":"m 0 0 l 174 0 l 174 -174 l 868 -174 l 868 0 l 1042 0 l 1042 174 l 694 174 l 694 0 l 347 0 l 347 174 l 521 174 l 521 347 l 347 347 l 347 521 l 694 521 l 694 347 l 1042 347 l 1042 521 l 868 521 l 868 694 l 174 694 l 174 521 l 0 521 l 0 347 l 174 347 l 174 174 l 0 174 l 0 0 "},"ζ":{"ha":868,"x_min":0,"x_max":694,"o":"m 0 0 l 174 0 l 174 -174 l 0 -174 l 0 -347 l 347 -347 l 347 -174 l 521 -174 l 521 0 l 347 0 l 347 521 l 521 521 l 521 694 l 694 694 l 694 868 l 0 868 l 0 694 l 174 694 l 174 521 l 0 521 l 0 0 "},"η":{"ha":1042,"x_min":0,"x_max":868,"o":"m 0 0 l 347 0 l 347 521 l 521 521 l 521 -174 l 868 -174 l 868 521 l 694 521 l 694 694 l 0 694 l 0 0 "},"θ":{"ha":1042,"x_min":0,"x_max":868,"o":"m 0 174 l 174 174 l 174 0 l 694 0 l 694 174 l 868 174 l 868 694 l 694 694 l 694 868 l 174 868 l 174 694 l 0 694 l 0 174 m 347 174 l 347 347 l 521 347 l 521 174 l 347 174 m 347 521 l 347 694 l 521 694 l 521 521 l 347 521 "},"ι":{"ha":694,"x_min":0,"x_max":521,"o":"m 0 174 l 174 174 l 174 0 l 521 0 l 521 174 l 347 174 l 347 694 l 0 694 l 0 174 "},"κ":{"ha":1042,"x_min":0,"x_max":868,"o":"m 0 0 l 347 0 l 347 174 l 521 174 l 521 0 l 868 0 l 868 347 l 694 347 l 694 521 l 868 521 l 868 694 l 521 694 l 521 521 l 347 521 l 347 694 l 0 694 l 0 0 "},"λ":{"ha":1042,"x_min":0,"x_max":868,"o":"m 0 0 l 347 0 l 347 347 l 521 347 l 521 0 l 868 0 l 868 694 l 694 694 l 694 868 l 174 868 l 174 694 l 521 694 l 521 521 l 174 521 l 174 347 l 0 347 l 0 0 "},"μ":{"ha":1215,"x_min":0,"x_max":1038,"o":"m 0 -347 l 343 -347 l 343 0 l 521 0 l 521 174 l 694 174 l 694 0 l 1038 0 l 1038 174 l 864 174 l 864 694 l 521 694 l 521 174 l 343 174 l 343 694 l 0 694 l 0 -347 "},"ν":{"ha":1389,"x_min":0,"x_max":1215,"o":"m 0 521 l 174 521 l 174 174 l 347 174 l 347 0 l 868 0 l 868 174 l 1042 174 l 1042 521 l 1215 521 l 1215 694 l 868 694 l 868 521 l 694 521 l 694 174 l 521 174 l 521 521 l 347 521 l 347 694 l 0 694 l 0 521 "},"ξ":{"ha":868,"x_min":0,"x_max":694,"o":"m 0 0 l 174 0 l 174 -174 l 0 -174 l 0 -347 l 347 -347 l 347 -174 l 521 -174 l 521 0 l 347 0 l 347 347 l 521 347 l 521 521 l 694 521 l 694 694 l 347 694 l 347 868 l 521 868 l 521 1042 l 174 1042 l 174 868 l 0 868 l 0 694 l 174 694 l 174 347 l 0 347 l 0 0 "},"ο":{"ha":1042,"x_min":0,"x_max":868,"o":"m 0 174 l 174 174 l 174 0 l 694 0 l 694 174 l 868 174 l 868 521 l 694 521 l 694 694 l 174 694 l 174 521 l 0 521 l 0 174 m 347 174 l 347 521 l 521 521 l 521 174 l 347 174 "},"π":{"ha":1389,"x_min":0,"x_max":1215,"o":"m 0 521 l 174 521 l 174 0 l 521 0 l 521 521 l 694 521 l 694 0 l 1042 0 l 1042 521 l 1215 521 l 1215 694 l 0 694 l 0 521 "},"ρ":{"ha":1042,"x_min":0,"x_max":868,"o":"m 0 -347 l 347 -347 l 347 0 l 694 0 l 694 174 l 868 174 l 868 521 l 694 521 l 694 694 l 0 694 l 0 -347 m 347 174 l 347 521 l 514 521 l 514 174 l 347 174 "},"ς":{"ha":1042,"x_min":0,"x_max":868,"o":"m 0 347 l 347 347 l 347 174 l 174 174 l 174 0 l 694 0 l 694 174 l 868 174 l 868 347 l 521 347 l 521 521 l 868 521 l 868 694 l 174 694 l 174 521 l 0 521 l 0 347 "},"σ":{"ha":1215,"x_min":0,"x_max":1042,"o":"m 0 174 l 174 174 l 174 0 l 694 0 l 694 174 l 868 174 l 868 521 l 1042 521 l 1042 694 l 174 694 l 174 521 l 0 521 l 0 174 m 347 174 l 347 521 l 521 521 l 521 174 l 347 174 "},"τ":{"ha":868,"x_min":0,"x_max":694,"o":"m 0 521 l 174 521 l 174 174 l 347 174 l 347 0 l 694 0 l 694 174 l 521 174 l 521 521 l 694 521 l 694 694 l 0 694 l 0 521 "},"υ":{"ha":1215,"x_min":0,"x_max":1042,"o":"m 0 0 l 868 0 l 868 174 l 1042 174 l 1042 521 l 868 521 l 868 694 l 521 694 l 521 521 l 694 521 l 694 174 l 347 174 l 347 694 l 0 694 l 0 0 "},"φ":{"ha":1042,"x_min":0,"x_max":868,"o":"m 0 174 l 174 174 l 174 0 l 347 0 l 347 -347 l 521 -347 l 521 0 l 694 0 l 694 174 l 868 174 l 868 521 l 694 521 l 694 694 l 174 694 l 174 521 l 0 521 l 0 174 m 180 174 l 180 521 l 347 521 l 347 174 l 180 174 m 521 174 l 521 521 l 688 521 l 688 174 l 521 174 "},"χ":{"ha":1042,"x_min":0,"x_max":868,"o":"m 0 0 l 347 0 l 347 174 l 521 174 l 521 0 l 868 0 l 868 174 l 694 174 l 694 521 l 868 521 l 868 694 l 521 694 l 521 521 l 347 521 l 347 694 l 0 694 l 0 521 l 174 521 l 174 174 l 0 174 l 0 0 "},"ψ":{"ha":1563,"x_min":0,"x_max":1389,"o":"m 0 174 l 174 174 l 174 0 l 521 0 l 521 -174 l 868 -174 l 868 0 l 1215 0 l 1215 174 l 1389 174 l 1389 694 l 1042 694 l 1042 174 l 868 174 l 868 694 l 521 694 l 521 174 l 347 174 l 347 694 l 0 694 l 0 174 "},"ω":{"ha":1563,"x_min":0,"x_max":1389,"o":"m 0 174 l 174 174 l 174 0 l 1215 0 l 1215 174 l 1389 174 l 1389 694 l 1042 694 l 1042 174 l 868 174 l 868 521 l 521 521 l 521 174 l 347 174 l 347 694 l 0 694 l 0 174 "},"ϊ":{"ha":694,"x_min":-347,"x_max":694,"o":"m -347 868 l 0 868 l 0 1215 l -347 1215 l -347 868 m 0 174 l 174 174 l 174 0 l 521 0 l 521 174 l 347 174 l 347 694 l 0 694 l 0 174 m 347 868 l 694 868 l 694 1215 l 347 1215 l 347 868 "},"ϋ":{"ha":1215,"x_min":0,"x_max":1042,"o":"m 0 0 l 868 0 l 868 174 l 1042 174 l 1042 521 l 868 521 l 868 694 l 521 694 l 521 521 l 694 521 l 694 174 l 347 174 l 347 694 l 0 694 l 0 0 m 0 868 l 347 868 l 347 1215 l 0 1215 l 0 868 m 694 868 l 1042 868 l 1042 1215 l 694 1215 l 694 868 "},"ό":{"ha":1042,"x_min":0,"x_max":868,"o":"m 0 174 l 174 174 l 174 0 l 694 0 l 694 174 l 868 174 l 868 521 l 694 521 l 694 694 l 174 694 l 174 521 l 0 521 l 0 174 m 174 868 l 521 868 l 521 1215 l 174 1215 l 174 868 m 347 174 l 347 521 l 521 521 l 521 174 l 347 174 "},"ύ":{"ha":1215,"x_min":0,"x_max":1042,"o":"m 0 0 l 868 0 l 868 174 l 1042 174 l 1042 521 l 868 521 l 868 694 l 521 694 l 521 521 l 694 521 l 694 174 l 347 174 l 347 694 l 0 694 l 0 0 m 174 868 l 521 868 l 521 1215 l 174 1215 l 174 868 "},"ώ":{"ha":1563,"x_min":0,"x_max":1389,"o":"m 0 174 l 174 174 l 174 0 l 1215 0 l 1215 174 l 1389 174 l 1389 694 l 1042 694 l 1042 174 l 868 174 l 868 521 l 521 521 l 521 174 l 347 174 l 347 694 l 0 694 l 0 174 m 174 868 l 521 868 l 521 1215 l 174 1215 l 174 868 "},"Ѐ":{"ha":1042,"x_min":0,"x_max":868,"o":"m 0 0 l 868 0 l 868 174 l 347 174 l 347 347 l 694 347 l 694 521 l 347 521 l 347 694 l 868 694 l 868 868 l 0 868 l 0 0 m 174 1215 l 347 1215 l 347 1042 l 694 1042 l 694 1215 l 521 1215 l 521 1389 l 174 1389 l 174 1215 "},"Ё":{"ha":1042,"x_min":-1,"x_max":868,"o":"m -1 1042 l 347 1042 l 347 1389 l -1 1389 l -1 1042 m 0 0 l 868 0 l 868 174 l 347 174 l 347 347 l 694 347 l 694 521 l 347 521 l 347 694 l 868 694 l 868 868 l 0 868 l 0 0 m 519 1042 l 868 1042 l 868 1389 l 519 1389 l 519 1042 "},"Ђ":{"ha":1563,"x_min":0,"x_max":1389,"o":"m 0 694 l 347 694 l 347 0 l 694 0 l 694 347 l 1042 347 l 1042 0 l 868 0 l 868 -174 l 1215 -174 l 1215 0 l 1389 0 l 1389 347 l 1215 347 l 1215 521 l 694 521 l 694 694 l 1042 694 l 1042 868 l 0 868 l 0 694 "},"Ѓ":{"ha":1042,"x_min":0,"x_max":868,"o":"m 0 0 l 347 0 l 347 694 l 868 694 l 868 868 l 0 868 l 0 0 m 174 1042 l 521 1042 l 521 1215 l 694 1215 l 694 1389 l 347 1389 l 347 1215 l 174 1215 l 174 1042 "},"Є":{"ha":1215,"x_min":0,"x_max":1042,"o":"m 0 174 l 174 174 l 174 0 l 868 0 l 868 174 l 1042 174 l 1042 347 l 694 347 l 694 174 l 347 174 l 347 347 l 521 347 l 521 521 l 347 521 l 347 694 l 694 694 l 694 521 l 1042 521 l 1042 694 l 868 694 l 868 868 l 174 868 l 174 694 l 0 694 l 0 174 "},"Ѕ":{"ha":1215,"x_min":0,"x_max":1042,"o":"m 0 0 l 868 0 l 868 174 l 1042 174 l 1042 347 l 868 347 l 868 521 l 521 521 l 521 694 l 1042 694 l 1042 868 l 174 868 l 174 694 l 0 694 l 0 521 l 174 521 l 174 347 l 521 347 l 521 174 l 0 174 l 0 0 "},"І":{"ha":521,"x_min":0,"x_max":347,"o":"m 0 0 l 347 0 l 347 868 l 0 868 l 0 0 "},"Ї":{"ha":521,"x_min":-349,"x_max":696,"o":"m -349 1042 l 0 1042 l 0 1389 l -349 1389 l -349 1042 m 0 0 l 347 0 l 347 868 l 0 868 l 0 0 m 347 1042 l 696 1042 l 696 1389 l 347 1389 l 347 1042 "},"Ј":{"ha":1042,"x_min":0,"x_max":868,"o":"m 0 174 l 174 174 l 174 0 l 694 0 l 694 174 l 868 174 l 868 868 l 521 868 l 521 174 l 347 174 l 347 347 l 0 347 l 0 174 "},"Љ":{"ha":1910,"x_min":0,"x_max":1736,"o":"m 0 0 l 347 0 l 347 174 l 521 174 l 521 694 l 694 694 l 694 0 l 1563 0 l 1563 174 l 1736 174 l 1736 347 l 1563 347 l 1563 521 l 1042 521 l 1042 868 l 174 868 l 174 174 l 0 174 l 0 0 m 1042 174 l 1042 347 l 1389 347 l 1389 174 l 1042 174 "},"Њ":{"ha":1910,"x_min":0,"x_max":1736,"o":"m 0 0 l 347 0 l 347 347 l 694 347 l 694 0 l 1563 0 l 1563 174 l 1736 174 l 1736 347 l 1563 347 l 1563 521 l 1042 521 l 1042 868 l 694 868 l 694 521 l 347 521 l 347 868 l 0 868 l 0 0 m 1042 174 l 1042 347 l 1389 347 l 1389 174 l 1042 174 "},"Ћ":{"ha":1563,"x_min":0,"x_max":1389,"o":"m 0 694 l 347 694 l 347 0 l 694 0 l 694 347 l 1042 347 l 1042 0 l 1389 0 l 1389 347 l 1215 347 l 1215 521 l 694 521 l 694 694 l 1042 694 l 1042 868 l 0 868 l 0 694 "},"Ќ":{"ha":1215,"x_min":0,"x_max":1042,"o":"m 0 0 l 347 0 l 347 347 l 521 347 l 521 174 l 694 174 l 694 0 l 1042 0 l 1042 174 l 868 174 l 868 347 l 694 347 l 694 521 l 868 521 l 868 694 l 1042 694 l 1042 868 l 694 868 l 694 694 l 521 694 l 521 521 l 347 521 l 347 868 l 0 868 l 0 0 m 347 1042 l 694 1042 l 694 1215 l 868 1215 l 868 1389 l 521 1389 l 521 1215 l 347 1215 l 347 1042 "},"Ѝ":{"ha":1215,"x_min":0,"x_max":1042,"o":"m 0 0 l 0 868 l 347 868 l 347 521 l 521 521 l 521 694 l 694 694 l 694 868 l 1042 868 l 1042 0 l 694 0 l 694 347 l 521 347 l 521 174 l 347 174 l 347 0 l 0 0 m 0 1215 l 174 1215 l 174 1042 l 868 1042 l 868 1215 l 1042 1215 l 1042 1389 l 694 1389 l 694 1215 l 347 1215 l 347 1389 l 0 1389 l 0 1215 "},"Ў":{"ha":1215,"x_min":0,"x_max":1042,"o":"m 0 0 l 521 0 l 521 174 l 694 174 l 694 347 l 868 347 l 868 521 l 1042 521 l 1042 868 l 694 868 l 694 521 l 347 521 l 347 868 l 0 868 l 0 521 l 174 521 l 174 347 l 347 347 l 347 174 l 0 174 l 0 0 m 0 1215 l 174 1215 l 174 1042 l 868 1042 l 868 1215 l 1042 1215 l 1042 1389 l 694 1389 l 694 1215 l 347 1215 l 347 1389 l 0 1389 l 0 1215 "},"Џ":{"ha":1215,"x_min":0,"x_max":1042,"o":"m 0 0 l 347 0 l 347 -174 l 694 -174 l 694 0 l 1042 0 l 1042 868 l 694 868 l 694 174 l 347 174 l 347 868 l 0 868 l 0 0 "},"А":{"ha":1215,"x_min":0,"x_max":1042,"o":"m 0 0 l 347 0 l 347 347 l 694 347 l 694 0 l 1042 0 l 1042 694 l 868 694 l 868 868 l 174 868 l 174 694 l 0 694 l 0 0 m 347 521 l 347 694 l 694 694 l 694 521 l 347 521 "},"Б":{"ha":1215,"x_min":0,"x_max":1042,"o":"m 0 0 l 868 0 l 868 174 l 1042 174 l 1042 347 l 868 347 l 868 521 l 347 521 l 347 694 l 868 694 l 868 868 l 0 868 l 0 0 m 347 174 l 347 347 l 688 347 l 688 174 l 347 174 "},"В":{"ha":1215,"x_min":0,"x_max":1042,"o":"m 0 0 l 868 0 l 868 174 l 1042 174 l 1042 347 l 868 347 l 868 521 l 1042 521 l 1042 694 l 868 694 l 868 868 l 0 868 l 0 0 m 347 174 l 347 347 l 694 347 l 694 174 l 347 174 m 347 521 l 347 694 l 694 694 l 694 521 l 347 521 "},"Г":{"ha":1042,"x_min":0,"x_max":868,"o":"m 0 0 l 347 0 l 347 694 l 868 694 l 868 868 l 0 868 l 0 0 "},"Д":{"ha":1563,"x_min":0,"x_max":1389,"o":"m 0 0 l 0 -174 l 347 -174 l 347 0 l 1042 0 l 1042 -174 l 1389 -174 l 1389 0 l 1215 0 l 1215 868 l 174 868 l 174 0 l 0 0 m 521 174 l 521 694 l 868 694 l 868 174 l 521 174 "},"Е":{"ha":1042,"x_min":0,"x_max":868,"o":"m 0 0 l 868 0 l 868 174 l 347 174 l 347 347 l 694 347 l 694 521 l 347 521 l 347 694 l 868 694 l 868 868 l 0 868 l 0 0 "},"Ж":{"ha":1563,"x_min":0,"x_max":1389,"o":"m 0 0 l 347 0 l 347 174 l 521 174 l 521 0 l 868 0 l 868 174 l 1042 174 l 1042 0 l 1389 0 l 1389 174 l 1215 174 l 1215 347 l 1042 347 l 1042 521 l 1215 521 l 1215 694 l 1389 694 l 1389 868 l 1042 868 l 1042 694 l 868 694 l 868 868 l 521 868 l 521 694 l 347 694 l 347 868 l 0 868 l 0 694 l 174 694 l 174 521 l 347 521 l 347 347 l 174 347 l 174 174 l 0 174 l 0 0 "},"З":{"ha":1215,"x_min":0,"x_max":1042,"o":"m 0 174 l 174 174 l 174 0 l 868 0 l 868 174 l 1042 174 l 1042 347 l 868 347 l 868 521 l 1042 521 l 1042 694 l 868 694 l 868 868 l 174 868 l 174 694 l 0 694 l 0 521 l 347 521 l 347 694 l 694 694 l 694 521 l 521 521 l 521 347 l 694 347 l 694 174 l 347 174 l 347 347 l 0 347 l 0 174 "},"И":{"ha":1215,"x_min":0,"x_max":1042,"o":"m 0 0 l 347 0 l 347 174 l 521 174 l 521 347 l 694 347 l 694 0 l 1042 0 l 1042 868 l 694 868 l 694 694 l 521 694 l 521 521 l 347 521 l 347 868 l 0 868 l 0 0 "},"Й":{"ha":1215,"x_min":0,"x_max":1042,"o":"m 0 0 l 0 868 l 347 868 l 347 521 l 521 521 l 521 694 l 694 694 l 694 868 l 1042 868 l 1042 0 l 694 0 l 694 347 l 521 347 l 521 174 l 347 174 l 347 0 l 0 0 m 0 1215 l 174 1215 l 174 1042 l 868 1042 l 868 1215 l 1042 1215 l 1042 1389 l 694 1389 l 694 1215 l 347 1215 l 347 1389 l 0 1389 l 0 1215 "},"К":{"ha":1215,"x_min":0,"x_max":1042,"o":"m 0 0 l 347 0 l 347 347 l 521 347 l 521 174 l 694 174 l 694 0 l 1042 0 l 1042 174 l 868 174 l 868 347 l 694 347 l 694 521 l 868 521 l 868 694 l 1042 694 l 1042 868 l 694 868 l 694 694 l 521 694 l 521 521 l 347 521 l 347 868 l 0 868 l 0 0 "},"Л":{"ha":1215,"x_min":0,"x_max":1042,"o":"m 0 0 l 347 0 l 347 174 l 521 174 l 521 694 l 694 694 l 694 0 l 1042 0 l 1042 868 l 174 868 l 174 174 l 0 174 l 0 0 "},"М":{"ha":1389,"x_min":0,"x_max":1215,"o":"m 0 0 l 347 0 l 347 347 l 521 347 l 521 174 l 694 174 l 694 347 l 868 347 l 868 0 l 1215 0 l 1215 868 l 868 868 l 868 694 l 694 694 l 694 521 l 521 521 l 521 694 l 347 694 l 347 868 l 0 868 l 0 0 "},"Н":{"ha":1215,"x_min":0,"x_max":1042,"o":"m 0 0 l 347 0 l 347 347 l 694 347 l 694 0 l 1042 0 l 1042 868 l 694 868 l 694 521 l 347 521 l 347 868 l 0 868 l 0 0 "},"О":{"ha":1215,"x_min":0,"x_max":1042,"o":"m 0 174 l 174 174 l 174 0 l 868 0 l 868 174 l 1042 174 l 1042 694 l 868 694 l 868 868 l 174 868 l 174 694 l 0 694 l 0 174 m 347 174 l 347 694 l 694 694 l 694 174 l 347 174 "},"П":{"ha":1215,"x_min":0,"x_max":1042,"o":"m 0 0 l 347 0 l 347 694 l 694 694 l 694 0 l 1042 0 l 1042 868 l 0 868 l 0 0 "},"Р":{"ha":1215,"x_min":0,"x_max":1042,"o":"m 0 0 l 347 0 l 347 347 l 868 347 l 868 521 l 1042 521 l 1042 694 l 868 694 l 868 868 l 0 868 l 0 0 m 347 521 l 347 694 l 694 694 l 694 521 l 347 521 "},"С":{"ha":1042,"x_min":0,"x_max":868,"o":"m 0 174 l 174 174 l 174 0 l 868 0 l 868 174 l 347 174 l 347 694 l 868 694 l 868 868 l 174 868 l 174 694 l 0 694 l 0 174 "},"Т":{"ha":1215,"x_min":0,"x_max":1042,"o":"m 0 694 l 347 694 l 347 0 l 694 0 l 694 694 l 1042 694 l 1042 868 l 0 868 l 0 694 "},"У":{"ha":1215,"x_min":0,"x_max":1042,"o":"m 0 0 l 521 0 l 521 174 l 694 174 l 694 347 l 868 347 l 868 521 l 1042 521 l 1042 868 l 694 868 l 694 521 l 347 521 l 347 868 l 0 868 l 0 521 l 174 521 l 174 347 l 347 347 l 347 174 l 0 174 l 0 0 "},"Ф":{"ha":1736,"x_min":0,"x_max":1563,"o":"m 0 347 l 174 347 l 174 174 l 347 174 l 347 0 l 521 0 l 521 -174 l 1042 -174 l 1042 0 l 1215 0 l 1215 174 l 1389 174 l 1389 347 l 1563 347 l 1563 521 l 1389 521 l 1389 694 l 1215 694 l 1215 868 l 1042 868 l 1042 1042 l 521 1042 l 521 868 l 347 868 l 347 694 l 174 694 l 174 521 l 0 521 l 0 347 m 354 347 l 354 521 l 528 521 l 528 694 l 694 694 l 694 174 l 528 174 l 528 347 l 354 347 m 868 174 l 868 694 l 1035 694 l 1035 521 l 1208 521 l 1208 347 l 1035 347 l 1035 174 l 868 174 "},"Х":{"ha":1215,"x_min":0,"x_max":1042,"o":"m 0 0 l 347 0 l 347 174 l 694 174 l 694 0 l 1042 0 l 1042 174 l 868 174 l 868 347 l 694 347 l 694 521 l 868 521 l 868 694 l 1042 694 l 1042 868 l 694 868 l 694 694 l 347 694 l 347 868 l 0 868 l 0 694 l 174 694 l 174 521 l 347 521 l 347 347 l 174 347 l 174 174 l 0 174 l 0 0 "},"Ц":{"ha":1389,"x_min":0,"x_max":1215,"o":"m 0 0 l 868 0 l 868 -174 l 1215 -174 l 1215 0 l 1042 0 l 1042 868 l 694 868 l 694 174 l 347 174 l 347 868 l 0 868 l 0 0 "},"Ч":{"ha":1215,"x_min":0,"x_max":1042,"o":"m 0 521 l 174 521 l 174 347 l 694 347 l 694 0 l 1042 0 l 1042 868 l 694 868 l 694 521 l 347 521 l 347 868 l 0 868 l 0 521 "},"Ш":{"ha":1563,"x_min":0,"x_max":1389,"o":"m 0 0 l 1389 0 l 1389 868 l 1042 868 l 1042 174 l 868 174 l 868 868 l 521 868 l 521 174 l 347 174 l 347 868 l 0 868 l 0 0 "},"Щ":{"ha":1736,"x_min":0,"x_max":1563,"o":"m 0 0 l 1215 0 l 1215 -174 l 1563 -174 l 1563 0 l 1389 0 l 1389 868 l 1042 868 l 1042 174 l 868 174 l 868 868 l 521 868 l 521 174 l 347 174 l 347 868 l 0 868 l 0 0 "},"Ъ":{"ha":1563,"x_min":0,"x_max":1389,"o":"m 0 694 l 354 694 l 354 0 l 1215 1 l 1215 175 l 1389 175 l 1389 349 l 1215 349 l 1215 521 l 694 521 l 694 868 l 0 868 l 0 694 m 694 174 l 694 347 l 1042 347 l 1042 174 l 694 174 "},"Ы":{"ha":1736,"x_min":0,"x_max":1563,"o":"m 0 0 l 868 0 l 868 174 l 1042 174 l 1042 347 l 868 347 l 868 521 l 347 521 l 347 868 l 0 868 l 0 0 m 347 174 l 347 347 l 688 347 l 688 174 l 347 174 m 1215 0 l 1563 0 l 1563 868 l 1215 868 l 1215 0 "},"Ь":{"ha":1215,"x_min":0,"x_max":1042,"o":"m 0 0 l 868 0 l 868 174 l 1042 174 l 1042 347 l 868 347 l 868 521 l 347 521 l 347 868 l 0 868 l 0 0 m 347 174 l 347 347 l 688 347 l 688 174 l 347 174 "},"Э":{"ha":1215,"x_min":0,"x_max":1042,"o":"m 0 174 l 174 174 l 174 0 l 868 0 l 868 174 l 1042 174 l 1042 694 l 868 694 l 868 868 l 174 868 l 174 694 l 0 694 l 0 521 l 347 521 l 347 694 l 694 694 l 694 521 l 521 521 l 521 347 l 694 347 l 694 174 l 347 174 l 347 347 l 0 347 l 0 174 "},"Ю":{"ha":1736,"x_min":0,"x_max":1563,"o":"m 0 0 l 347 0 l 347 347 l 521 347 l 521 174 l 694 174 l 694 0 l 1389 0 l 1389 174 l 1563 174 l 1563 694 l 1389 694 l 1389 868 l 694 868 l 694 694 l 521 694 l 521 521 l 347 521 l 347 868 l 0 868 l 0 0 m 868 174 l 868 694 l 1215 694 l 1215 174 l 868 174 "},"Я":{"ha":1215,"x_min":0,"x_max":1042,"o":"m 0 0 l 347 0 l 347 174 l 521 174 l 521 347 l 694 347 l 694 0 l 1042 0 l 1042 868 l 174 868 l 174 694 l 0 694 l 0 521 l 174 521 l 174 174 l 0 174 l 0 0 m 347 521 l 347 694 l 694 694 l 694 521 l 347 521 "},"а":{"ha":1042,"x_min":0,"x_max":868,"o":"m 0 174 l 174 174 l 174 0 l 694 0 l 694 174 l 868 174 l 868 521 l 694 521 l 694 694 l 0 694 l 0 521 l 174 521 l 174 347 l 0 347 l 0 174 m 347 174 l 347 347 l 521 347 l 521 174 l 347 174 "},"б":{"ha":1042,"x_min":0,"x_max":868,"o":"m 0 174 l 174 174 l 174 0 l 694 0 l 694 174 l 868 174 l 868 347 l 694 347 l 694 521 l 347 521 l 347 694 l 694 694 l 694 868 l 174 868 l 174 694 l 0 694 l 0 174 m 347 180 l 347 340 l 521 340 l 521 180 l 347 180 "},"в":{"ha":1042,"x_min":0,"x_max":868,"o":"m 0 0 l 694 0 l 694 174 l 868 174 l 868 347 l 694 347 l 694 521 l 868 521 l 868 694 l 694 694 l 694 868 l 0 868 l 0 0 m 347 174 l 347 347 l 521 347 l 521 174 l 347 174 m 347 521 l 347 694 l 521 694 l 521 521 l 347 521 "},"г":{"ha":868,"x_min":0,"x_max":694,"o":"m 0 0 l 347 0 l 347 521 l 694 521 l 694 694 l 0 694 l 0 0 "},"д":{"ha":1389,"x_min":0,"x_max":1227,"o":"m 0 0 l 0 -174 l 347 -174 l 347 0 l 880 0 l 880 -174 l 1227 -174 l 1227 0 l 1054 0 l 1054 694 l 174 694 l 174 0 l 0 0 m 521 174 l 521 521 l 707 521 l 707 174 l 521 174 "},"е":{"ha":1042,"x_min":0,"x_max":868,"o":"m 0 174 l 174 174 l 174 0 l 868 0 l 868 174 l 694 174 l 694 347 l 868 347 l 868 694 l 174 694 l 174 521 l 0 521 l 0 174 m 347 354 l 347 514 l 521 514 l 521 354 l 347 354 "},"ж":{"ha":1215,"x_min":0,"x_max":1042,"o":"m 0 0 l 174 0 l 174 174 l 347 174 l 347 0 l 694 0 l 694 174 l 868 174 l 868 0 l 1042 0 l 1042 174 l 868 174 l 868 521 l 1042 521 l 1042 694 l 868 694 l 868 521 l 694 521 l 694 694 l 347 694 l 347 521 l 174 521 l 174 694 l 0 694 l 0 521 l 174 521 l 174 174 l 0 174 l 0 0 "},"з":{"ha":1042,"x_min":0,"x_max":868,"o":"m 0 174 l 174 174 l 174 0 l 694 0 l 694 174 l 868 174 l 868 347 l 694 347 l 694 521 l 868 521 l 868 694 l 694 694 l 694 868 l 174 868 l 174 694 l 0 694 l 0 521 l 340 521 l 340 347 l 0 347 l 0 174 m 347 174 l 347 347 l 521 347 l 521 174 l 347 174 m 347 521 l 347 694 l 521 694 l 521 521 l 347 521 "},"и":{"ha":1215,"x_min":0,"x_max":1042,"o":"m 0 0 l 347 0 l 347 174 l 521 174 l 521 0 l 1042 0 l 1042 694 l 694 694 l 694 347 l 521 347 l 521 521 l 347 521 l 347 694 l 0 694 l 0 0 "},"й":{"ha":1215,"x_min":0,"x_max":1042,"o":"m 0 0 l 347 0 l 347 174 l 521 174 l 521 0 l 1042 0 l 1042 694 l 694 694 l 694 347 l 521 347 l 521 521 l 347 521 l 347 694 l 0 694 l 0 0 m 0 1042 l 174 1042 l 174 868 l 868 868 l 868 1042 l 1042 1042 l 1042 1215 l 694 1215 l 694 1042 l 347 1042 l 347 1215 l 0 1215 l 0 1042 "},"к":{"ha":1042,"x_min":0,"x_max":868,"o":"m 0 0 l 347 0 l 347 174 l 521 174 l 521 0 l 868 0 l 868 347 l 694 347 l 694 521 l 868 521 l 868 694 l 521 694 l 521 521 l 347 521 l 347 694 l 0 694 l 0 0 "},"л":{"ha":1215,"x_min":0,"x_max":1042,"o":"m 0 0 l 347 0 l 347 174 l 521 174 l 521 521 l 694 521 l 694 0 l 1042 0 l 1042 694 l 174 694 l 174 174 l 0 174 l 0 0 "},"м":{"ha":1389,"x_min":0,"x_max":1215,"o":"m 0 0 l 347 0 l 347 174 l 521 174 l 521 0 l 694 0 l 694 174 l 868 174 l 868 0 l 1215 0 l 1215 694 l 868 694 l 868 521 l 694 521 l 694 347 l 521 347 l 521 521 l 347 521 l 347 694 l 0 694 l 0 0 "},"н":{"ha":1042,"x_min":0,"x_max":868,"o":"m 0 0 l 347 0 l 347 347 l 521 347 l 521 0 l 868 0 l 868 694 l 521 694 l 521 521 l 347 521 l 347 694 l 0 694 l 0 0 "},"о":{"ha":1042,"x_min":0,"x_max":868,"o":"m 0 174 l 174 174 l 174 0 l 694 0 l 694 174 l 868 174 l 868 521 l 694 521 l 694 694 l 174 694 l 174 521 l 0 521 l 0 174 m 347 174 l 347 521 l 521 521 l 521 174 l 347 174 "},"п":{"ha":1042,"x_min":0,"x_max":868,"o":"m 0 0 l 347 0 l 347 521 l 521 521 l 521 0 l 868 0 l 868 694 l 0 694 l 0 0 "},"р":{"ha":1042,"x_min":0,"x_max":868,"o":"m 0 -174 l 347 -174 l 347 0 l 694 0 l 694 174 l 868 174 l 868 521 l 694 521 l 694 694 l 0 694 l 0 -174 m 347 174 l 347 521 l 514 521 l 514 174 l 347 174 "},"с":{"ha":1042,"x_min":0,"x_max":868,"o":"m 0 174 l 174 174 l 174 0 l 868 0 l 868 174 l 347 174 l 347 521 l 868 521 l 868 694 l 174 694 l 174 521 l 0 521 l 0 174 "},"т":{"ha":1215,"x_min":0,"x_max":1042,"o":"m 0 521 l 347 521 l 347 0 l 694 0 l 694 521 l 1042 521 l 1042 694 l 0 694 l 0 521 "},"у":{"ha":1215,"x_min":0,"x_max":1042,"o":"m 0 0 l 0 -174 l 521 -174 l 521 0 l 694 0 l 694 174 l 868 174 l 868 347 l 1042 347 l 1042 694 l 694 694 l 694 347 l 347 347 l 347 694 l 0 694 l 0 347 l 174 347 l 174 174 l 347 174 l 347 0 l 0 0 "},"ф":{"ha":1389,"x_min":0,"x_max":1215,"o":"m 0 347 l 174 347 l 174 174 l 521 174 l 521 0 l 694 0 l 694 174 l 1042 174 l 1042 347 l 1215 347 l 1215 521 l 1042 521 l 1042 694 l 694 694 l 694 868 l 521 868 l 521 694 l 174 694 l 174 521 l 0 521 l 0 347 m 354 347 l 354 521 l 521 521 l 521 347 l 354 347 m 694 347 l 694 521 l 861 521 l 861 347 l 694 347 "},"х":{"ha":1042,"x_min":0,"x_max":868,"o":"m 0 0 l 347 0 l 347 174 l 521 174 l 521 0 l 868 0 l 868 174 l 694 174 l 694 521 l 868 521 l 868 694 l 521 694 l 521 521 l 347 521 l 347 694 l 0 694 l 0 521 l 174 521 l 174 174 l 0 174 l 0 0 "},"ц":{"ha":1215,"x_min":0,"x_max":1042,"o":"m 0 0 l 694 0 l 694 -174 l 1042 -174 l 1042 0 l 868 0 l 868 694 l 521 694 l 521 174 l 347 174 l 347 694 l 0 694 l 0 0 "},"ч":{"ha":1042,"x_min":0,"x_max":868,"o":"m 0 347 l 174 347 l 174 174 l 521 174 l 521 0 l 868 0 l 868 694 l 521 694 l 521 347 l 347 347 l 347 694 l 0 694 l 0 347 "},"ш":{"ha":1563,"x_min":0,"x_max":1389,"o":"m 0 0 l 1389 0 l 1389 694 l 1042 694 l 1042 174 l 868 174 l 868 694 l 521 694 l 521 174 l 347 174 l 347 694 l 0 694 l 0 0 "},"щ":{"ha":1736,"x_min":0,"x_max":1563,"o":"m 0 0 l 1215 0 l 1215 -174 l 1563 -174 l 1563 0 l 1389 0 l 1389 694 l 1042 694 l 1042 174 l 868 174 l 868 694 l 521 694 l 521 174 l 347 174 l 347 694 l 0 694 l 0 0 "},"ъ":{"ha":1389,"x_min":0,"x_max":1215,"o":"m 0 519 l 354 519 l 354 -1 l 1042 0 l 1042 174 l 1215 174 l 1215 347 l 1042 347 l 1042 521 l 701 519 l 701 693 l 0 693 l 0 519 m 701 172 l 701 346 l 868 346 l 868 172 l 701 172 "},"ы":{"ha":1563,"x_min":0,"x_max":1389,"o":"m 0 0 l 694 0 l 694 174 l 868 174 l 868 347 l 694 347 l 694 521 l 347 521 l 347 694 l 0 694 l 0 0 m 347 174 l 347 347 l 514 347 l 514 174 l 347 174 m 1042 0 l 1389 0 l 1389 694 l 1042 694 l 1042 0 "},"ь":{"ha":1042,"x_min":0,"x_max":868,"o":"m 0 0 l 694 0 l 694 174 l 868 174 l 868 347 l 694 347 l 694 521 l 347 521 l 347 694 l 0 694 l 0 0 m 347 174 l 347 347 l 514 347 l 514 174 l 347 174 "},"э":{"ha":1042,"x_min":0,"x_max":868,"o":"m 0 174 l 174 174 l 174 0 l 694 0 l 694 174 l 868 174 l 868 694 l 694 694 l 694 868 l 174 868 l 174 694 l 0 694 l 0 521 l 340 521 l 340 347 l 0 347 l 0 174 m 347 174 l 347 347 l 521 347 l 521 174 l 347 174 m 347 521 l 347 694 l 521 694 l 521 521 l 347 521 "},"ю":{"ha":1389,"x_min":0,"x_max":1215,"o":"m 0 0 l 347 0 l 347 174 l 521 174 l 521 0 l 1042 0 l 1042 174 l 1215 174 l 1215 521 l 1042 521 l 1042 694 l 521 694 l 521 521 l 347 521 l 347 694 l 0 694 l 0 0 m 694 174 l 694 521 l 868 521 l 868 174 l 694 174 "},"я":{"ha":1042,"x_min":0,"x_max":868,"o":"m 0 0 l 347 0 l 347 174 l 521 174 l 521 0 l 868 0 l 868 694 l 174 694 l 174 521 l 0 521 l 0 347 l 174 347 l 174 174 l 0 174 l 0 0 m 347 347 l 347 521 l 521 521 l 521 347 l 347 347 "},"ѐ":{"ha":1042,"x_min":0,"x_max":868,"o":"m 0 174 l 0 521 l 174 521 l 174 694 l 868 694 l 868 347 l 694 347 l 694 174 l 868 174 l 868 0 l 174 0 l 174 174 l 0 174 m 174 1042 l 347 1042 l 347 868 l 694 868 l 694 1042 l 521 1042 l 521 1215 l 174 1215 l 174 1042 m 347 354 l 521 354 l 521 514 l 347 514 l 347 354 "},"ё":{"ha":1042,"x_min":-1,"x_max":868,"o":"m -1 868 l 347 868 l 347 1215 l -1 1215 l -1 868 m 0 174 l 174 174 l 174 0 l 868 0 l 868 174 l 694 174 l 694 347 l 868 347 l 868 694 l 174 694 l 174 521 l 0 521 l 0 174 m 347 354 l 347 514 l 521 514 l 521 354 l 347 354 m 519 868 l 868 868 l 868 1215 l 519 1215 l 519 868 "},"ђ":{"ha":1389,"x_min":0,"x_max":1215,"o":"m 0 694 l 174 694 l 174 0 l 521 0 l 521 347 l 868 347 l 868 0 l 694 0 l 694 -174 l 1042 -174 l 1042 0 l 1215 0 l 1215 347 l 1042 347 l 1042 521 l 521 521 l 521 694 l 868 694 l 868 868 l 0 868 l 0 694 "},"ѓ":{"ha":868,"x_min":0,"x_max":694,"o":"m 0 0 l 347 0 l 347 521 l 694 521 l 694 694 l 0 694 l 0 0 m 174 868 l 521 868 l 521 1042 l 694 1042 l 694 1215 l 347 1215 l 347 1042 l 174 1042 l 174 868 "},"є":{"ha":1042,"x_min":0,"x_max":868,"o":"m 0 174 l 174 174 l 174 0 l 694 0 l 694 174 l 868 174 l 868 347 l 528 347 l 528 521 l 868 521 l 868 694 l 694 694 l 694 868 l 174 868 l 174 694 l 0 694 l 0 174 m 347 174 l 347 347 l 521 347 l 521 174 l 347 174 m 347 521 l 347 694 l 521 694 l 521 521 l 347 521 "},"ѕ":{"ha":1042,"x_min":0,"x_max":868,"o":"m 0 0 l 694 0 l 694 174 l 868 174 l 868 347 l 521 347 l 521 521 l 868 521 l 868 694 l 174 694 l 174 521 l 0 521 l 0 347 l 347 347 l 347 174 l 0 174 l 0 0 "},"і":{"ha":521,"x_min":0,"x_max":347,"o":"m 0 0 l 347 0 l 347 521 l 0 521 l 0 0 m 0 694 l 347 694 l 347 868 l 0 868 l 0 694 "},"ї":{"ha":521,"x_min":-349,"x_max":696,"o":"m -349 1042 l 0 1042 l 0 1389 l -349 1389 l -349 1042 m 0 0 l 347 0 l 347 868 l 0 868 l 0 0 m 347 1042 l 696 1042 l 696 1389 l 347 1389 l 347 1042 "},"ј":{"ha":694,"x_min":0,"x_max":521,"o":"m 0 0 l 0 -174 l 347 -174 l 347 0 l 521 0 l 521 521 l 174 521 l 174 0 l 0 0 m 174 694 l 521 694 l 521 868 l 174 868 l 174 694 "},"љ":{"ha":1736,"x_min":0,"x_max":1563,"o":"m 0 0 l 347 0 l 347 174 l 521 174 l 521 521 l 694 521 l 694 0 l 1389 0 l 1389 174 l 1563 174 l 1563 347 l 1389 347 l 1389 521 l 1042 521 l 1042 694 l 174 694 l 174 174 l 0 174 l 0 0 m 1042 174 l 1042 347 l 1215 347 l 1215 174 l 1042 174 "},"њ":{"ha":1563,"x_min":0,"x_max":1389,"o":"m 0 0 l 347 0 l 347 347 l 521 347 l 521 0 l 1215 0 l 1215 174 l 1389 174 l 1389 347 l 1215 347 l 1215 521 l 868 521 l 868 694 l 521 694 l 521 521 l 347 521 l 347 694 l 0 694 l 0 0 m 868 174 l 868 347 l 1042 347 l 1042 174 l 868 174 "},"ћ":{"ha":1215,"x_min":0,"x_max":1042,"o":"m 0 694 l 174 694 l 174 0 l 521 0 l 521 347 l 694 347 l 694 0 l 1042 0 l 1042 347 l 868 347 l 868 521 l 521 521 l 521 694 l 868 694 l 868 868 l 0 868 l 0 694 "},"ќ":{"ha":1042,"x_min":0,"x_max":1042,"o":"m 0 0 l 347 0 l 347 347 l 521 347 l 521 0 l 868 0 l 868 347 l 694 347 l 694 521 l 868 521 l 868 694 l 521 694 l 521 521 l 347 521 l 347 868 l 0 868 l 0 0 m 521 868 l 868 868 l 868 1042 l 1042 1042 l 1042 1215 l 694 1215 l 694 1042 l 521 1042 l 521 868 "},"ѝ":{"ha":1215,"x_min":0,"x_max":1042,"o":"m 0 0 l 0 694 l 347 694 l 347 347 l 521 347 l 521 521 l 694 521 l 694 694 l 1042 694 l 1042 0 l 694 0 l 694 174 l 521 174 l 521 0 l 0 0 m 0 1042 l 174 1042 l 174 868 l 868 868 l 868 1042 l 1042 1042 l 1042 1215 l 694 1215 l 694 1042 l 347 1042 l 347 1215 l 0 1215 l 0 1042 "},"ў":{"ha":1215,"x_min":0,"x_max":1042,"o":"m 0 0 l 0 -174 l 521 -174 l 521 0 l 694 0 l 694 174 l 868 174 l 868 347 l 1042 347 l 1042 694 l 694 694 l 694 347 l 347 347 l 347 694 l 0 694 l 0 347 l 174 347 l 174 174 l 347 174 l 347 0 l 0 0 m 0 1042 l 174 1042 l 174 868 l 868 868 l 868 1042 l 1042 1042 l 1042 1215 l 694 1215 l 694 1042 l 347 1042 l 347 1215 l 0 1215 l 0 1042 "},"џ":{"ha":1215,"x_min":0,"x_max":1042,"o":"m 0 0 l 347 0 l 347 -174 l 694 -174 l 694 0 l 1042 0 l 1042 694 l 694 694 l 694 174 l 347 174 l 347 694 l 0 694 l 0 0 "},"Ѡ":{"ha":1736,"x_min":0,"x_max":1563,"o":"m 0 174 l 174 174 l 174 0 l 694 0 l 694 174 l 868 174 l 868 0 l 1389 0 l 1389 174 l 1563 174 l 1563 694 l 1389 694 l 1389 868 l 1042 868 l 1042 694 l 868 694 l 868 521 l 1042 521 l 1042 694 l 1215 694 l 1215 174 l 868 174 l 868 347 l 694 347 l 694 174 l 347 174 l 347 694 l 521 694 l 521 521 l 694 521 l 694 694 l 521 694 l 521 868 l 174 868 l 174 694 l 0 694 l 0 174 "},"ѡ":{"ha":1563,"x_min":0,"x_max":1389,"o":"m 0 174 l 174 174 l 174 0 l 1215 0 l 1215 174 l 1389 174 l 1389 694 l 1042 694 l 1042 174 l 868 174 l 868 694 l 521 694 l 521 174 l 347 174 l 347 694 l 0 694 l 0 174 "},"Ѣ":{"ha":1389,"x_min":0,"x_max":1215,"o":"m 0 694 l 180 694 l 180 0 l 1042 1 l 1042 175 l 1215 175 l 1215 349 l 1042 349 l 1042 521 l 521 521 l 521 694 l 875 694 l 875 868 l 0 868 l 0 694 m 521 174 l 521 347 l 868 347 l 868 174 l 521 174 "},"ѣ":{"ha":1215,"x_min":0,"x_max":1042,"o":"m 0 694 l 180 694 l 180 0 l 868 0 l 868 174 l 1042 174 l 1042 347 l 868 347 l 868 519 l 528 521 l 528 694 l 875 694 l 875 868 l 0 868 l 0 694 m 528 174 l 528 347 l 694 346 l 694 172 l 528 174 "},"Ѥ":{"ha":1736,"x_min":0,"x_max":1563,"o":"m 0 0 l 347 0 l 347 347 l 521 347 l 521 174 l 694 174 l 694 0 l 1389 0 l 1389 174 l 1563 174 l 1563 347 l 1215 347 l 1215 174 l 868 174 l 868 347 l 1042 347 l 1042 521 l 868 521 l 868 694 l 1215 694 l 1215 521 l 1563 521 l 1563 694 l 1389 694 l 1389 868 l 694 868 l 694 694 l 521 694 l 521 521 l 347 521 l 347 868 l 0 868 l 0 0 "},"ѥ":{"ha":1389,"x_min":0,"x_max":1215,"o":"m 0 0 l 347 0 l 347 174 l 521 174 l 521 0 l 1042 0 l 1042 174 l 1215 174 l 1215 347 l 875 347 l 875 521 l 1215 521 l 1215 694 l 1042 694 l 1042 868 l 521 868 l 521 694 l 347 694 l 347 868 l 0 868 l 0 0 m 694 174 l 694 347 l 868 347 l 868 174 l 694 174 m 694 521 l 694 694 l 868 694 l 868 521 l 694 521 "},"Ѧ":{"ha":1736,"x_min":0,"x_max":1563,"o":"m 0 0 l 347 0 l 347 174 l 521 174 l 521 347 l 694 347 l 694 0 l 868 0 l 868 347 l 1042 347 l 1042 174 l 1215 174 l 1215 0 l 1563 0 l 1563 174 l 1389 174 l 1389 347 l 1215 347 l 1215 521 l 1042 521 l 1042 694 l 868 694 l 868 868 l 694 868 l 694 694 l 521 694 l 521 521 l 347 521 l 347 347 l 174 347 l 174 174 l 0 174 l 0 0 m 694 353 l 694 688 l 868 688 l 868 353 l 694 353 "},"ѧ":{"ha":1389,"x_min":0,"x_max":1215,"o":"m 0 0 l 347 0 l 347 174 l 521 174 l 521 0 l 694 0 l 694 174 l 868 174 l 868 0 l 1215 0 l 1215 174 l 1042 174 l 1042 347 l 868 347 l 868 521 l 694 521 l 694 694 l 521 694 l 521 521 l 347 521 l 347 347 l 174 347 l 174 174 l 0 174 l 0 0 m 521 354 l 521 514 l 694 514 l 694 354 l 521 354 "},"Ѩ":{"ha":2083,"x_min":0,"x_max":1910,"o":"m 0 0 l 694 0 l 694 174 l 868 174 l 868 347 l 1042 347 l 1042 0 l 1215 0 l 1215 347 l 1389 347 l 1389 174 l 1563 174 l 1563 0 l 1910 0 l 1910 174 l 1736 174 l 1736 347 l 1563 347 l 1563 521 l 1389 521 l 1389 694 l 1215 694 l 1215 868 l 1042 868 l 1042 694 l 868 694 l 868 521 l 347 521 l 347 868 l 0 868 l 0 0 m 347 174 l 347 347 l 521 347 l 521 174 l 347 174 m 1042 353 l 1042 688 l 1215 688 l 1215 353 l 1042 353 "},"ѩ":{"ha":1736,"x_min":0,"x_max":1563,"o":"m 0 0 l 694 0 l 694 174 l 868 174 l 868 0 l 1042 0 l 1042 174 l 1215 174 l 1215 0 l 1563 0 l 1563 174 l 1389 174 l 1389 347 l 1215 347 l 1215 521 l 1042 521 l 1042 694 l 868 694 l 868 521 l 347 521 l 347 694 l 0 694 l 0 0 m 347 174 l 347 347 l 521 347 l 521 174 l 347 174 m 868 354 l 868 514 l 1042 514 l 1042 354 l 868 354 "},"Ѫ":{"ha":1389,"x_min":0,"x_max":1215,"o":"m 0 0 l 349 0 l 349 174 l 521 174 l 521 0 l 694 0 l 694 174 l 868 174 l 868 0 l 1215 0 l 1215 174 l 1042 174 l 1042 347 l 868 347 l 868 521 l 1042 521 l 1042 694 l 1215 694 l 1215 868 l 0 868 l 0 694 l 174 694 l 174 521 l 347 521 l 347 347 l 174 347 l 174 174 l 0 174 l 0 0 m 521 521 l 521 694 l 694 694 l 694 521 l 521 521 "},"ѫ":{"ha":1389,"x_min":0,"x_max":1215,"o":"m 0 0 l 347 0 l 347 174 l 521 174 l 521 0 l 694 0 l 694 174 l 868 174 l 868 0 l 1215 0 l 1215 174 l 1042 174 l 1042 521 l 1215 521 l 1215 694 l 0 694 l 0 521 l 174 521 l 174 174 l 0 174 l 0 0 m 521 347 l 521 521 l 694 521 l 694 347 l 521 347 "},"Ѭ":{"ha":1910,"x_min":0,"x_max":1736,"o":"m 0 0 l 347 0 l 347 347 l 694 347 l 694 174 l 521 174 l 521 0 l 869 0 l 869 174 l 1042 174 l 1042 0 l 1215 0 l 1215 174 l 1389 174 l 1389 0 l 1736 0 l 1736 174 l 1563 174 l 1563 347 l 1389 347 l 1389 521 l 1563 521 l 1563 694 l 1736 694 l 1736 868 l 521 868 l 521 694 l 694 694 l 694 521 l 347 521 l 347 868 l 0 868 l 0 0 m 1042 521 l 1042 694 l 1215 694 l 1215 521 l 1042 521 "},"ѭ":{"ha":1910,"x_min":0,"x_max":1736,"o":"m 0 0 l 347 0 l 347 174 l 521 174 l 521 0 l 868 0 l 868 174 l 1042 174 l 1042 0 l 1215 0 l 1215 174 l 1389 174 l 1389 0 l 1736 0 l 1736 174 l 1563 174 l 1563 521 l 1736 521 l 1736 694 l 521 694 l 521 521 l 694 521 l 694 347 l 347 347 l 347 694 l 0 694 l 0 0 m 1042 347 l 1042 521 l 1215 521 l 1215 347 l 1042 347 "},"Ѯ":{"ha":1215,"x_min":0,"x_max":1042,"o":"m 0 0 l 0 -174 l 174 -174 l 174 -347 l 868 -347 l 868 -174 l 347 -174 l 347 0 l 868 0 l 868 174 l 1042 174 l 1042 347 l 868 347 l 868 521 l 1042 521 l 1042 694 l 868 694 l 868 868 l 174 868 l 174 694 l 0 694 l 0 521 l 174 521 l 174 694 l 694 694 l 694 521 l 347 521 l 347 347 l 694 347 l 694 174 l 174 174 l 174 0 l 0 0 m 0 1215 l 174 1215 l 174 1042 l 868 1042 l 868 1215 l 1042 1215 l 1042 1389 l 694 1389 l 694 1215 l 347 1215 l 347 1389 l 0 1389 l 0 1215 "},"ѯ":{"ha":1042,"x_min":0,"x_max":868,"o":"m 0 0 l 0 -174 l 174 -174 l 174 -347 l 694 -347 l 694 -174 l 347 -174 l 347 0 l 694 0 l 694 174 l 868 174 l 868 347 l 694 347 l 694 521 l 868 521 l 868 694 l 694 694 l 694 868 l 174 868 l 174 694 l 0 694 l 0 521 l 174 521 l 174 694 l 521 694 l 521 521 l 347 521 l 347 347 l 521 347 l 521 174 l 174 174 l 174 0 l 0 0 m 0 1215 l 174 1215 l 174 1042 l 694 1042 l 694 1215 l 868 1215 l 868 1389 l 521 1389 l 521 1215 l 347 1215 l 347 1389 l 0 1389 l 0 1215 "},"Ѱ":{"ha":1563,"x_min":0,"x_max":1389,"o":"m 0 521 l 174 521 l 174 347 l 521 347 l 521 0 l 868 0 l 868 347 l 1215 347 l 1215 521 l 1389 521 l 1389 868 l 1042 868 l 1042 521 l 868 521 l 868 868 l 521 868 l 521 521 l 347 521 l 347 868 l 0 868 l 0 521 "},"ѱ":{"ha":1563,"x_min":0,"x_max":1389,"o":"m 0 174 l 174 174 l 174 0 l 521 0 l 521 -174 l 868 -174 l 868 0 l 1215 0 l 1215 174 l 1389 174 l 1389 694 l 1042 694 l 1042 174 l 868 174 l 868 694 l 521 694 l 521 174 l 347 174 l 347 694 l 0 694 l 0 174 "},"Ѳ":{"ha":1215,"x_min":0,"x_max":1042,"o":"m 0 174 l 174 174 l 174 0 l 868 0 l 868 174 l 1042 174 l 1042 694 l 868 694 l 868 868 l 174 868 l 174 694 l 0 694 l 0 174 m 347 174 l 347 347 l 694 347 l 694 174 l 347 174 m 347 521 l 347 694 l 694 694 l 694 521 l 347 521 "},"ѳ":{"ha":1042,"x_min":0,"x_max":868,"o":"m 0 174 l 174 174 l 174 0 l 694 0 l 694 174 l 868 174 l 868 694 l 694 694 l 694 868 l 174 868 l 174 694 l 0 694 l 0 174 m 347 174 l 347 347 l 521 347 l 521 174 l 347 174 m 347 521 l 347 694 l 521 694 l 521 521 l 347 521 "},"Ѵ":{"ha":1389,"x_min":0,"x_max":1215,"o":"m 0 347 l 174 347 l 174 174 l 347 174 l 347 0 l 868 0 l 868 174 l 1042 174 l 1042 694 l 1215 694 l 1215 868 l 868 868 l 868 694 l 694 694 l 694 174 l 521 174 l 521 347 l 347 347 l 347 868 l 0 868 l 0 347 "},"ѵ":{"ha":1389,"x_min":0,"x_max":1215,"o":"m 0 347 l 174 347 l 174 174 l 347 174 l 347 0 l 868 0 l 868 174 l 1042 174 l 1042 521 l 1215 521 l 1215 694 l 868 694 l 868 521 l 694 521 l 694 174 l 521 174 l 521 347 l 347 347 l 347 694 l 0 694 l 0 347 "},"Ѷ":{"ha":1389,"x_min":0,"x_max":1215,"o":"m 0 347 l 174 347 l 174 174 l 347 174 l 347 0 l 868 0 l 868 174 l 1042 174 l 1042 694 l 1215 694 l 1215 868 l 868 868 l 868 694 l 694 694 l 694 174 l 521 174 l 521 347 l 347 347 l 347 868 l 0 868 l 0 347 m 174 1215 l 347 1215 l 347 1042 l 694 1042 l 694 1215 l 521 1215 l 521 1389 l 174 1389 l 174 1215 "},"ѷ":{"ha":1389,"x_min":0,"x_max":1215,"o":"m 0 347 l 174 347 l 174 174 l 347 174 l 347 0 l 868 0 l 868 174 l 1042 174 l 1042 521 l 1215 521 l 1215 694 l 868 694 l 868 521 l 694 521 l 694 174 l 521 174 l 521 347 l 347 347 l 347 694 l 0 694 l 0 347 m 174 1042 l 347 1042 l 347 868 l 694 868 l 694 1042 l 521 1042 l 521 1215 l 174 1215 l 174 1042 "},"Ѹ":{"ha":1910,"x_min":0,"x_max":1736,"o":"m 0 174 l 174 174 l 174 0 l 694 0 l 694 -174 l 1215 -174 l 1215 0 l 1389 0 l 1389 174 l 1563 174 l 1563 347 l 1736 347 l 1736 694 l 1389 694 l 1389 347 l 1042 347 l 1042 694 l 868 694 l 868 868 l 174 868 l 174 694 l 0 694 l 0 174 m 347 174 l 694 174 l 694 694 l 347 694 l 347 174 m 868 0 l 868 174 l 1042 174 l 1042 0 l 868 0 "},"ѹ":{"ha":1910,"x_min":0,"x_max":1736,"o":"m 0 174 l 174 174 l 174 0 l 694 0 l 694 -174 l 1215 -174 l 1215 0 l 1389 0 l 1389 174 l 1563 174 l 1563 347 l 1736 347 l 1736 521 l 1389 521 l 1389 347 l 1042 347 l 1042 521 l 868 521 l 868 694 l 174 694 l 174 521 l 0 521 l 0 174 m 347 174 l 694 174 l 694 521 l 347 521 l 347 174 m 868 0 l 868 174 l 1042 174 l 1042 0 l 868 0 "},"Ѻ":{"ha":1389,"x_min":0,"x_max":1215,"o":"m 0 174 l 174 174 l 174 0 l 521 0 l 521 -174 l 694 -174 l 694 0 l 1042 0 l 1042 174 l 1215 174 l 1215 694 l 1042 694 l 1042 868 l 694 868 l 694 1042 l 521 1042 l 521 868 l 174 868 l 174 694 l 0 694 l 0 174 m 347 174 l 347 694 l 868 694 l 868 174 l 347 174 "},"ѻ":{"ha":1389,"x_min":0,"x_max":1215,"o":"m 0 174 l 174 174 l 174 0 l 521 0 l 521 -174 l 694 -174 l 694 0 l 1042 0 l 1042 174 l 1215 174 l 1215 521 l 1042 521 l 1042 694 l 694 694 l 694 868 l 521 868 l 521 694 l 174 694 l 174 521 l 0 521 l 0 174 m 347 174 l 347 521 l 868 521 l 868 174 l 347 174 "},"Ѽ":{"ha":1736,"x_min":0,"x_max":1563,"o":"m 0 174 l 174 174 l 174 0 l 694 0 l 694 174 l 868 174 l 868 0 l 1389 0 l 1389 174 l 1563 174 l 1563 694 l 1389 694 l 1389 868 l 1042 868 l 1042 694 l 868 694 l 868 521 l 1042 521 l 1042 694 l 1215 694 l 1215 174 l 868 174 l 868 347 l 694 347 l 694 174 l 347 174 l 347 694 l 521 694 l 521 521 l 694 521 l 694 694 l 521 694 l 521 868 l 694 868 l 694 1042 l 868 1042 l 868 1215 l 521 1215 l 521 1042 l 347 1042 l 347 868 l 174 868 l 174 694 l 0 694 l 0 174 "},"ѽ":{"ha":1736,"x_min":0,"x_max":1563,"o":"m 0 174 l 174 174 l 174 0 l 694 0 l 694 174 l 868 174 l 868 0 l 1389 0 l 1389 174 l 1563 174 l 1563 521 l 1389 521 l 1389 694 l 1042 694 l 1042 521 l 868 521 l 868 347 l 694 347 l 694 521 l 521 521 l 521 694 l 694 694 l 694 868 l 868 868 l 868 1042 l 521 1042 l 521 868 l 347 868 l 347 694 l 174 694 l 174 521 l 0 521 l 0 174 m 347 174 l 347 521 l 514 521 l 514 347 l 688 347 l 688 174 l 347 174 m 875 174 l 875 347 l 1048 347 l 1048 521 l 1215 521 l 1215 174 l 875 174 "},"Ѿ":{"ha":1389,"x_min":0,"x_max":1563,"o":"m 0 174 l 174 174 l 174 0 l 694 0 l 694 174 l 868 174 l 868 0 l 1389 0 l 1389 174 l 1563 174 l 1563 694 l 1389 694 l 1389 868 l 1042 868 l 1042 694 l 868 694 l 868 521 l 1042 521 l 1042 694 l 1215 694 l 1215 174 l 868 174 l 868 347 l 694 347 l 694 174 l 347 174 l 347 694 l 521 694 l 521 521 l 694 521 l 694 694 l 521 694 l 521 868 l 174 868 l 174 694 l 0 694 l 0 174 m 347 1042 l 1215 1042 l 1215 1215 l 347 1215 l 347 1042 "},"ѿ":{"ha":1563,"x_min":0,"x_max":1389,"o":"m 0 174 l 174 174 l 174 0 l 1215 0 l 1215 174 l 1389 174 l 1389 694 l 1042 694 l 1042 174 l 868 174 l 868 694 l 521 694 l 521 174 l 347 174 l 347 694 l 0 694 l 0 174 m 174 868 l 1181 868 l 1181 1042 l 174 1042 l 174 868 "}," ":{"ha":868,"x_min":0,"x_max":0,"o":""}," ":{"ha":1736,"x_min":0,"x_max":0,"o":""}," ":{"ha":868,"x_min":0,"x_max":0,"o":""}," ":{"ha":1736,"x_min":0,"x_max":0,"o":""}," ":{"ha":578,"x_min":0,"x_max":0,"o":""}," ":{"ha":434,"x_min":0,"x_max":0,"o":""}," ":{"ha":289,"x_min":0,"x_max":0,"o":""}," ":{"ha":289,"x_min":0,"x_max":0,"o":""}," ":{"ha":217,"x_min":0,"x_max":0,"o":""}," ":{"ha":347,"x_min":0,"x_max":0,"o":""}," ":{"ha":96,"x_min":0,"x_max":0,"o":""},"‐":{"ha":694,"x_min":0,"x_max":521,"o":"m 0 347 l 521 347 l 521 521 l 0 521 l 0 347 "},"‑":{"ha":868,"x_min":0,"x_max":694,"o":"m 0 347 l 694 347 l 694 521 l 0 521 l 0 347 "},"‒":{"ha":868,"x_min":0,"x_max":694,"o":"m 0 347 l 694 347 l 694 521 l 0 521 l 0 347 "},"–":{"ha":868,"x_min":0,"x_max":694,"o":"m 0 347 l 694 347 l 694 521 l 0 521 l 0 347 "},"—":{"ha":1042,"x_min":0,"x_max":868,"o":"m 0 347 l 868 347 l 868 521 l 0 521 l 0 347 "},"‘":{"ha":694,"x_min":0,"x_max":521,"o":"m 0 347 l 347 347 l 347 694 l 521 694 l 521 868 l 174 868 l 174 694 l 0 694 l 0 347 "},"’":{"ha":694,"x_min":0,"x_max":521,"o":"m 0 347 l 347 347 l 347 521 l 521 521 l 521 868 l 174 868 l 174 521 l 0 521 l 0 347 "},"‚":{"ha":694,"x_min":0,"x_max":521,"o":"m 0 -174 l 0 -347 l 347 -347 l 347 -174 l 521 -174 l 521 174 l 174 174 l 174 -174 l 0 -174 "},"“":{"ha":1215,"x_min":0,"x_max":1042,"o":"m 0 347 l 347 347 l 347 694 l 521 694 l 521 347 l 868 347 l 868 694 l 1042 694 l 1042 868 l 694 868 l 694 694 l 521 694 l 521 868 l 174 868 l 174 694 l 0 694 l 0 347 "},"”":{"ha":1215,"x_min":0,"x_max":1042,"o":"m 0 347 l 347 347 l 347 521 l 521 521 l 521 347 l 868 347 l 868 521 l 1042 521 l 1042 868 l 694 868 l 694 521 l 521 521 l 521 868 l 174 868 l 174 521 l 0 521 l 0 347 "},"„":{"ha":1215,"x_min":0,"x_max":1042,"o":"m 0 -174 l 0 -347 l 347 -347 l 347 -174 l 521 -174 l 521 -347 l 868 -347 l 868 -174 l 1042 -174 l 1042 174 l 694 174 l 694 -174 l 521 -174 l 521 174 l 174 174 l 174 -174 l 0 -174 "},"†":{"ha":868,"x_min":0,"x_max":694,"o":"m 0 347 l 174 347 l 174 0 l 521 0 l 521 347 l 694 347 l 694 521 l 521 521 l 521 694 l 174 694 l 174 521 l 0 521 l 0 347 "},"‡":{"ha":868,"x_min":0,"x_max":694,"o":"m 0 174 l 174 174 l 174 -174 l 521 -174 l 521 174 l 694 174 l 694 347 l 521 347 l 521 521 l 694 521 l 694 694 l 521 694 l 521 1042 l 174 1042 l 174 694 l 0 694 l 0 521 l 174 521 l 174 347 l 0 347 l 0 174 "},"•":{"ha":521,"x_min":0,"x_max":347,"o":"m 0 347 l 347 347 l 347 694 l 0 694 l 0 347 "},"…":{"ha":1563,"x_min":0,"x_max":1389,"o":"m 0 0 l 347 0 l 347 347 l 0 347 l 0 0 m 521 0 l 868 0 l 868 347 l 521 347 l 521 0 m 1042 0 l 1389 0 l 1389 347 l 1042 347 l 1042 0 "}," ":{"ha":347,"x_min":0,"x_max":0,"o":""},"‰":{"ha":1736,"x_min":0,"x_max":1563,"o":"m 0 0 l 347 0 l 347 174 l 521 174 l 521 347 l 694 347 l 694 0 l 1042 0 l 1042 347 l 694 347 l 694 521 l 868 521 l 868 694 l 1042 694 l 1042 868 l 694 868 l 694 694 l 521 694 l 521 521 l 347 521 l 347 868 l 0 868 l 0 521 l 347 521 l 347 347 l 175 347 l 175 174 l 0 174 l 0 0 m 1215 0 l 1563 0 l 1563 347 l 1215 347 l 1215 0 "},"‹":{"ha":694,"x_min":0,"x_max":521,"o":"m 0 347 l 174 347 l 174 174 l 521 174 l 521 347 l 347 347 l 347 521 l 521 521 l 521 694 l 174 694 l 174 521 l 0 521 l 0 347 "},"›":{"ha":694,"x_min":0,"x_max":521,"o":"m 0 174 l 347 174 l 347 347 l 521 347 l 521 521 l 347 521 l 347 694 l 0 694 l 0 521 l 174 521 l 174 347 l 0 347 l 0 174 "},"⁄":{"ha":1215,"x_min":0,"x_max":1042,"o":"m 0 0 l 347 0 l 347 174 l 521 174 l 521 347 l 694 347 l 694 521 l 868 521 l 868 694 l 1042 694 l 1042 868 l 694 868 l 694 694 l 521 694 l 521 521 l 347 521 l 347 347 l 174 347 l 174 174 l 0 174 l 0 0 "}," ":{"ha":434,"x_min":0,"x_max":0,"o":""},"€":{"ha":1389,"x_min":0,"x_max":1215,"o":"m 0 347 l 174 347 l 174 174 l 347 174 l 347 0 l 1042 0 l 1042 174 l 1215 174 l 1215 347 l 868 347 l 868 174 l 521 174 l 521 347 l 694 347 l 694 521 l 521 521 l 521 694 l 868 694 l 868 521 l 1215 521 l 1215 694 l 1042 694 l 1042 868 l 347 868 l 347 694 l 174 694 l 174 521 l 0 521 l 0 347 "},"℠":{"ha":1563,"x_min":0,"x_max":1389,"o":"m 0 347 l 347 347 l 347 694 l 521 694 l 521 347 l 694 347 l 694 694 l 868 694 l 868 347 l 1042 347 l 1042 694 l 1215 694 l 1215 347 l 1389 347 l 1389 694 l 1215 694 l 1215 868 l 1042 868 l 1042 694 l 868 694 l 868 868 l 694 868 l 694 694 l 521 694 l 521 868 l 174 868 l 174 521 l 0 521 l 0 347 "},"™":{"ha":1563,"x_min":0,"x_max":1389,"o":"m 0 694 l 174 694 l 174 347 l 347 347 l 347 694 l 521 694 l 521 347 l 694 347 l 694 694 l 868 694 l 868 347 l 1042 347 l 1042 694 l 1215 694 l 1215 347 l 1389 347 l 1389 694 l 1215 694 l 1215 868 l 1042 868 l 1042 694 l 868 694 l 868 868 l 694 868 l 694 694 l 521 694 l 521 868 l 0 868 l 0 694 "},"Ω":{"ha":1389,"x_min":0,"x_max":1215,"o":"m 0 0 l 521 0 l 521 347 l 347 347 l 347 694 l 868 694 l 868 347 l 694 347 l 694 0 l 1215 0 l 1215 174 l 1042 174 l 1042 347 l 1215 347 l 1215 694 l 1042 694 l 1042 868 l 174 868 l 174 694 l 0 694 l 0 347 l 174 347 l 174 174 l 0 174 l 0 0 "},"←":{"ha":1042,"x_min":0,"x_max":868,"o":"m 0 347 l 174 347 l 174 174 l 347 174 l 347 0 l 521 0 l 521 174 l 347 174 l 347 347 l 868 347 l 868 521 l 347 521 l 347 694 l 521 694 l 521 868 l 347 868 l 347 694 l 174 694 l 174 521 l 0 521 l 0 347 "},"↑":{"ha":1042,"x_min":0,"x_max":868,"o":"m 0 347 l 174 347 l 174 521 l 347 521 l 347 0 l 521 0 l 521 521 l 694 521 l 694 347 l 868 347 l 868 521 l 694 521 l 694 694 l 521 694 l 521 868 l 347 868 l 347 694 l 174 694 l 174 521 l 0 521 l 0 347 "},"→":{"ha":1042,"x_min":0,"x_max":868,"o":"m 0 347 l 521 347 l 521 174 l 347 174 l 347 0 l 521 0 l 521 174 l 694 174 l 694 347 l 868 347 l 868 521 l 694 521 l 694 694 l 521 694 l 521 868 l 347 868 l 347 694 l 521 694 l 521 521 l 0 521 l 0 347 "},"↓":{"ha":1042,"x_min":0,"x_max":868,"o":"m 0 347 l 174 347 l 174 174 l 347 174 l 347 0 l 521 0 l 521 174 l 694 174 l 694 347 l 868 347 l 868 521 l 694 521 l 694 347 l 521 347 l 521 868 l 347 868 l 347 347 l 174 347 l 174 521 l 0 521 l 0 347 "},"↔":{"ha":1736,"x_min":0,"x_max":1563,"o":"m 0 347 l 174 347 l 174 174 l 347 174 l 347 0 l 521 0 l 521 174 l 347 174 l 347 347 l 1215 347 l 1215 174 l 1042 174 l 1042 0 l 1215 0 l 1215 174 l 1389 174 l 1389 347 l 1563 347 l 1563 521 l 1389 521 l 1389 694 l 1215 694 l 1215 868 l 1042 868 l 1042 694 l 1215 694 l 1215 521 l 347 521 l 347 694 l 521 694 l 521 868 l 347 868 l 347 694 l 174 694 l 174 521 l 0 521 l 0 347 "},"↕":{"ha":1042,"x_min":0,"x_max":868,"o":"m 0 0 l 174 0 l 174 -174 l 347 -174 l 347 -347 l 521 -347 l 521 -174 l 694 -174 l 694 0 l 868 0 l 868 174 l 694 174 l 694 0 l 521 0 l 521 868 l 694 868 l 694 694 l 868 694 l 868 868 l 694 868 l 694 1042 l 521 1042 l 521 1215 l 347 1215 l 347 1042 l 174 1042 l 174 868 l 0 868 l 0 694 l 174 694 l 174 868 l 347 868 l 347 0 l 174 0 l 174 174 l 0 174 l 0 0 "},"↖":{"ha":1042,"x_min":0,"x_max":868,"o":"m 0 0 l 174 0 l 174 521 l 347 521 l 347 347 l 521 347 l 521 174 l 694 174 l 694 0 l 868 0 l 868 174 l 694 174 l 694 347 l 521 347 l 521 521 l 347 521 l 347 694 l 868 694 l 868 868 l 0 868 l 0 0 "},"↗":{"ha":1042,"x_min":0,"x_max":868,"o":"m 0 0 l 174 0 l 174 174 l 347 174 l 347 347 l 521 347 l 521 521 l 694 521 l 694 0 l 868 0 l 868 868 l 0 868 l 0 694 l 521 694 l 521 521 l 347 521 l 347 347 l 174 347 l 174 174 l 0 174 l 0 0 "},"↘":{"ha":1042,"x_min":0,"x_max":868,"o":"m 0 0 l 868 0 l 868 868 l 694 868 l 694 347 l 521 347 l 521 521 l 347 521 l 347 694 l 174 694 l 174 868 l 0 868 l 0 694 l 174 694 l 174 521 l 347 521 l 347 347 l 521 347 l 521 174 l 0 174 l 0 0 "},"↙":{"ha":1042,"x_min":0,"x_max":868,"o":"m 0 0 l 868 0 l 868 174 l 347 174 l 347 347 l 521 347 l 521 521 l 694 521 l 694 694 l 868 694 l 868 868 l 694 868 l 694 694 l 521 694 l 521 521 l 347 521 l 347 347 l 174 347 l 174 868 l 0 868 l 0 0 "},"↴":{"ha":1042,"x_min":0,"x_max":868,"o":"m 0 347 l 174 347 l 174 174 l 347 174 l 347 0 l 521 0 l 521 174 l 694 174 l 694 347 l 868 347 l 868 521 l 694 521 l 694 347 l 521 347 l 521 868 l 0 868 l 0 694 l 347 694 l 347 347 l 174 347 l 174 521 l 0 521 l 0 347 "},"↵":{"ha":1042,"x_min":0,"x_max":868,"o":"m 0 347 l 174 347 l 174 174 l 347 174 l 347 0 l 521 0 l 521 174 l 347 174 l 347 347 l 868 347 l 868 868 l 694 868 l 694 521 l 347 521 l 347 694 l 521 694 l 521 868 l 347 868 l 347 694 l 174 694 l 174 521 l 0 521 l 0 347 "},"⇠":{"ha":1389,"x_min":0,"x_max":1215,"o":"m 0 347 l 174 347 l 174 174 l 347 174 l 347 0 l 521 0 l 521 174 l 347 174 l 347 347 l 521 347 l 521 521 l 347 521 l 347 694 l 521 694 l 521 868 l 347 868 l 347 694 l 174 694 l 174 521 l 0 521 l 0 347 m 694 347 l 868 347 l 868 521 l 694 521 l 694 347 m 1042 347 l 1215 347 l 1215 521 l 1042 521 l 1042 347 "},"⇡":{"ha":1042,"x_min":0,"x_max":868,"o":"m 0 521 l 174 521 l 174 694 l 347 694 l 347 521 l 521 521 l 521 694 l 694 694 l 694 521 l 868 521 l 868 694 l 694 694 l 694 868 l 521 868 l 521 1042 l 347 1042 l 347 868 l 174 868 l 174 694 l 0 694 l 0 521 m 347 0 l 347 -174 l 521 -174 l 521 0 l 347 0 m 347 174 l 521 174 l 521 347 l 347 347 l 347 174 "},"⇢":{"ha":1389,"x_min":0,"x_max":1215,"o":"m 0 347 l 174 347 l 174 521 l 0 521 l 0 347 m 347 347 l 521 347 l 521 521 l 347 521 l 347 347 m 694 0 l 868 0 l 868 174 l 1042 174 l 1042 347 l 1215 347 l 1215 521 l 1042 521 l 1042 694 l 868 694 l 868 868 l 694 868 l 694 694 l 868 694 l 868 521 l 694 521 l 694 347 l 868 347 l 868 174 l 694 174 l 694 0 "},"⇣":{"ha":1042,"x_min":0,"x_max":868,"o":"m 0 174 l 174 174 l 174 0 l 347 0 l 347 -174 l 521 -174 l 521 0 l 694 0 l 694 174 l 868 174 l 868 347 l 694 347 l 694 174 l 521 174 l 521 347 l 347 347 l 347 174 l 174 174 l 174 347 l 0 347 l 0 174 m 347 521 l 521 521 l 521 694 l 347 694 l 347 521 m 347 868 l 521 868 l 521 1042 l 347 1042 l 347 868 "},"∂":{"ha":1042,"x_min":0,"x_max":868,"o":"m 0 174 l 174 174 l 174 0 l 694 0 l 694 174 l 868 174 l 868 694 l 694 694 l 694 868 l 521 868 l 521 1042 l 174 1042 l 174 868 l 347 868 l 347 694 l 174 694 l 174 521 l 0 521 l 0 174 m 347 174 l 347 521 l 521 521 l 521 174 l 347 174 "},"∆":{"ha":1389,"x_min":0,"x_max":1215,"o":"m 0 0 l 1215 0 l 1215 347 l 1042 347 l 1042 694 l 868 694 l 868 868 l 347 868 l 347 694 l 174 694 l 174 347 l 0 347 l 0 0 m 347 174 l 347 347 l 514 347 l 514 688 l 694 688 l 694 347 l 861 347 l 861 174 l 347 174 "},"∏":{"ha":1389,"x_min":0,"x_max":1215,"o":"m 0 694 l 174 694 l 174 0 l 521 0 l 521 694 l 694 694 l 694 0 l 1042 0 l 1042 694 l 1215 694 l 1215 868 l 0 868 l 0 694 "},"∑":{"ha":1215,"x_min":0,"x_max":1042,"o":"m 0 0 l 1042 0 l 1042 347 l 701 347 l 701 521 l 1042 521 l 1042 868 l 0 868 l 0 694 l 174 694 l 174 521 l 347 521 l 347 347 l 174 347 l 174 174 l 0 174 l 0 0 m 521 174 l 521 347 l 694 347 l 694 174 l 521 174 m 521 521 l 521 694 l 694 694 l 694 521 l 521 521 "},"−":{"ha":868,"x_min":0,"x_max":694,"o":"m 0 347 l 694 347 l 694 521 l 0 521 l 0 347 "},"∙":{"ha":521,"x_min":0,"x_max":347,"o":"m 0 347 l 347 347 l 347 694 l 0 694 l 0 347 "},"√":{"ha":1215,"x_min":0,"x_max":1042,"o":"m 0 174 l 174 174 l 174 0 l 347 0 l 347 -174 l 521 -174 l 521 0 l 694 0 l 694 347 l 868 347 l 868 521 l 1042 521 l 1042 694 l 694 694 l 694 521 l 521 521 l 521 174 l 347 174 l 347 347 l 0 347 l 0 174 "},"∞":{"ha":1736,"x_min":0,"x_max":1563,"o":"m 0 347 l 174 347 l 174 174 l 694 174 l 694 347 l 868 347 l 868 174 l 1389 174 l 1389 347 l 1563 347 l 1563 521 l 1389 521 l 1389 694 l 868 694 l 868 521 l 694 521 l 694 694 l 174 694 l 174 521 l 0 521 l 0 347 m 347 347 l 347 521 l 521 521 l 521 347 l 347 347 m 1042 347 l 1042 521 l 1215 521 l 1215 347 l 1042 347 "},"∫":{"ha":868,"x_min":0,"x_max":694,"o":"m 0 0 l 0 -174 l 347 -174 l 347 0 l 521 0 l 521 868 l 694 868 l 694 1042 l 347 1042 l 347 868 l 174 868 l 174 0 l 0 0 "},"≈":{"ha":1215,"x_min":0,"x_max":1042,"o":"m 0 174 l 347 174 l 347 347 l 521 347 l 521 521 l 174 521 l 174 347 l 0 347 l 0 174 m 0 693 l 347 693 l 347 867 l 521 867 l 521 1040 l 174 1040 l 174 867 l 0 867 l 0 693 m 521 174 l 868 174 l 868 347 l 1042 347 l 1042 521 l 694 521 l 694 347 l 521 347 l 521 174 m 521 693 l 868 693 l 868 867 l 1042 867 l 1042 1040 l 694 1040 l 694 867 l 521 867 l 521 693 "},"≠":{"ha":1215,"x_min":0,"x_max":1039,"o":"m 0 174 l 174 174 l 174 0 l 518 0 l 518 174 l 1039 174 l 1039 347 l 692 347 l 692 521 l 1039 521 l 1039 694 l 865 694 l 865 868 l 521 868 l 521 694 l 0 694 l 0 521 l 347 521 l 347 347 l 0 347 l 0 174 "},"≤":{"ha":694,"x_min":0,"x_max":521,"o":"m 0 0 l 521 0 l 521 174 l 0 174 l 0 0 m 0 521 l 174 521 l 174 347 l 521 347 l 521 521 l 347 521 l 347 694 l 521 694 l 521 868 l 174 868 l 174 694 l 0 694 l 0 521 "},"≥":{"ha":694,"x_min":0,"x_max":521,"o":"m 0 0 l 521 0 l 521 174 l 0 174 l 0 0 m 0 347 l 347 347 l 347 521 l 521 521 l 521 694 l 347 694 l 347 868 l 0 868 l 0 694 l 174 694 l 174 521 l 0 521 l 0 347 "},"⋲":{"ha":1215,"x_min":0,"x_max":1042,"o":"m 0 174 l 347 174 l 347 347 l 521 347 l 521 521 l 174 521 l 174 347 l 0 347 l 0 174 m 0 693 l 347 693 l 347 867 l 521 867 l 521 1040 l 174 1040 l 174 867 l 0 867 l 0 693 m 521 174 l 868 174 l 868 347 l 1042 347 l 1042 521 l 694 521 l 694 347 l 521 347 l 521 174 m 521 693 l 868 693 l 868 867 l 1042 867 l 1042 1040 l 694 1040 l 694 867 l 521 867 l 521 693 "},"◊":{"ha":1042,"x_min":0,"x_max":868,"o":"m 0 521 l 174 521 l 174 347 l 694 347 l 694 521 l 868 521 l 868 694 l 694 694 l 694 868 l 174 868 l 174 694 l 0 694 l 0 521 m 347 521 l 347 694 l 521 694 l 521 521 l 347 521 "},"":{"ha":694,"x_min":0,"x_max":694,"o":"m 0 0 l 694 0 l 694 694 l 0 694 l 0 0 "},"":{"ha":1389,"x_min":0,"x_max":0,"o":""},"":{"ha":1042,"x_min":0,"x_max":868,"o":"m 0 0 l 347 0 l 347 347 l 521 347 l 521 0 l 868 0 l 868 521 l 347 521 l 347 694 l 868 694 l 868 868 l 174 868 l 174 694 l 0 694 l 0 0 "},"":{"ha":868,"x_min":0,"x_max":868,"o":"m 0 0 l 347 0 l 347 347 l 521 347 l 521 0 l 868 0 l 868 868 l 174 868 l 174 694 l 0 694 l 0 0 m 347 521 l 347 694 l 521 694 l 521 521 l 347 521 "}}}
